<svg xmlns="http://www.w3.org/2000/svg" viewBox="0 0 1600 900" width="1600" height="900" role="img" aria-labelledby="title desc">
  <title id="title">Agent Workflow Practice</title>
  <desc id="desc">Tool Calling, Reflection, Multi-Agent, Report Generation을 하나의 제어 흐름으로 정리한 그림.</desc>
  <defs>
    <linearGradient id="bg" x1="0" y1="0" x2="1" y2="1">
      <stop offset="0" stop-color="#f8fafc"/>
      <stop offset="0.55" stop-color="#ffffff"/>
      <stop offset="1" stop-color="#eef6ff"/>
    </linearGradient>
    <filter id="shadow" x="-20%" y="-20%" width="140%" height="140%">
      <feDropShadow dx="0" dy="14" stdDeviation="18" flood-color="#0f172a" flood-opacity="0.14"/>
    </filter>
    <filter id="soft" x="-20%" y="-20%" width="140%" height="140%">
      <feDropShadow dx="0" dy="8" stdDeviation="10" flood-color="#1e293b" flood-opacity="0.08"/>
    </filter>
    <marker id="arrow" markerWidth="14" markerHeight="12" refX="12" refY="6" orient="auto">
      <path d="M0,0 L14,6 L0,12 Z" fill="#2563eb"/>
    </marker>
    <style><![CDATA[
      text { font-family: "Pretendard", "Noto Sans KR", "Apple SD Gothic Neo", "Malgun Gothic", Inter, Arial, sans-serif; fill: #0f172a; }
      .title { font-size: 42px; font-weight: 900; letter-spacing: 0; }
      .subtitle { font-size: 20px; fill: #475569; font-weight: 500; }
      .eyebrow { font-size: 15px; fill: #2563eb; font-weight: 900; letter-spacing: 1.2px; }
      .card-title { font-size: 24px; font-weight: 850; }
      .card-sub { font-size: 16px; fill: #475569; font-weight: 550; }
      .small { font-size: 14px; fill: #64748b; font-weight: 600; }
      .label { font-size: 15px; fill: #334155; font-weight: 800; }
      .metric { font-size: 20px; font-weight: 900; }
      .line { stroke: #2563eb; stroke-width: 3.5; fill: none; marker-end: url(#arrow); stroke-linecap: round; stroke-linejoin: round; }
    ]]></style>
  </defs>
  <rect width="1600" height="900" fill="url(#bg)"/>
  <path d="M0 104 C260 60 395 150 650 92 C935 28 1070 88 1600 44" fill="none" stroke="#dbeafe" stroke-width="24" opacity="0.75"/>
  <g opacity="0.42"><circle cx="70" cy="120" r="1.7" fill="#cbd5e1"/><circle cx="70" cy="160" r="1.7" fill="#cbd5e1"/><circle cx="70" cy="200" r="1.7" fill="#cbd5e1"/><circle cx="70" cy="240" r="1.7" fill="#cbd5e1"/><circle cx="70" cy="280" r="1.7" fill="#cbd5e1"/><circle cx="70" cy="320" r="1.7" fill="#cbd5e1"/><circle cx="70" cy="360" r="1.7" fill="#cbd5e1"/><circle cx="70" cy="400" r="1.7" fill="#cbd5e1"/><circle cx="70" cy="440" r="1.7" fill="#cbd5e1"/><circle cx="70" cy="480" r="1.7" fill="#cbd5e1"/><circle cx="70" cy="520" r="1.7" fill="#cbd5e1"/><circle cx="70" cy="560" r="1.7" fill="#cbd5e1"/><circle cx="70" cy="600" r="1.7" fill="#cbd5e1"/><circle cx="70" cy="640" r="1.7" fill="#cbd5e1"/><circle cx="70" cy="680" r="1.7" fill="#cbd5e1"/><circle cx="70" cy="720" r="1.7" fill="#cbd5e1"/><circle cx="70" cy="760" r="1.7" fill="#cbd5e1"/><circle cx="70" cy="800" r="1.7" fill="#cbd5e1"/><circle cx="70" cy="840" r="1.7" fill="#cbd5e1"/><circle cx="110" cy="120" r="1.7" fill="#cbd5e1"/><circle cx="110" cy="160" r="1.7" fill="#cbd5e1"/><circle cx="110" cy="200" r="1.7" fill="#cbd5e1"/><circle cx="110" cy="240" r="1.7" fill="#cbd5e1"/><circle cx="110" cy="280" r="1.7" fill="#cbd5e1"/><circle cx="110" cy="320" r="1.7" fill="#cbd5e1"/><circle cx="110" cy="360" r="1.7" fill="#cbd5e1"/><circle cx="110" cy="400" r="1.7" fill="#cbd5e1"/><circle cx="110" cy="440" r="1.7" fill="#cbd5e1"/><circle cx="110" cy="480" r="1.7" fill="#cbd5e1"/><circle cx="110" cy="520" r="1.7" fill="#cbd5e1"/><circle cx="110" cy="560" r="1.7" fill="#cbd5e1"/><circle cx="110" cy="600" r="1.7" fill="#cbd5e1"/><circle cx="110" cy="640" r="1.7" fill="#cbd5e1"/><circle cx="110" cy="680" r="1.7" fill="#cbd5e1"/><circle cx="110" cy="720" r="1.7" fill="#cbd5e1"/><circle cx="110" cy="760" r="1.7" fill="#cbd5e1"/><circle cx="110" cy="800" r="1.7" fill="#cbd5e1"/><circle cx="110" cy="840" r="1.7" fill="#cbd5e1"/><circle cx="150" cy="120" r="1.7" fill="#cbd5e1"/><circle cx="150" cy="160" r="1.7" fill="#cbd5e1"/><circle cx="150" cy="200" r="1.7" fill="#cbd5e1"/><circle cx="150" cy="240" r="1.7" fill="#cbd5e1"/><circle cx="150" cy="280" r="1.7" fill="#cbd5e1"/><circle cx="150" cy="320" r="1.7" fill="#cbd5e1"/><circle cx="150" cy="360" r="1.7" fill="#cbd5e1"/><circle cx="150" cy="400" r="1.7" fill="#cbd5e1"/><circle cx="150" cy="440" r="1.7" fill="#cbd5e1"/><circle cx="150" cy="480" r="1.7" fill="#cbd5e1"/><circle cx="150" cy="520" r="1.7" fill="#cbd5e1"/><circle cx="150" cy="560" r="1.7" fill="#cbd5e1"/><circle cx="150" cy="600" r="1.7" fill="#cbd5e1"/><circle cx="150" cy="640" r="1.7" fill="#cbd5e1"/><circle cx="150" cy="680" r="1.7" fill="#cbd5e1"/><circle cx="150" cy="720" r="1.7" fill="#cbd5e1"/><circle cx="150" cy="760" r="1.7" fill="#cbd5e1"/><circle cx="150" cy="800" r="1.7" fill="#cbd5e1"/><circle cx="150" cy="840" r="1.7" fill="#cbd5e1"/><circle cx="190" cy="120" r="1.7" fill="#cbd5e1"/><circle cx="190" cy="160" r="1.7" fill="#cbd5e1"/><circle cx="190" cy="200" r="1.7" fill="#cbd5e1"/><circle cx="190" cy="240" r="1.7" fill="#cbd5e1"/><circle cx="190" cy="280" r="1.7" fill="#cbd5e1"/><circle cx="190" cy="320" r="1.7" fill="#cbd5e1"/><circle cx="190" cy="360" r="1.7" fill="#cbd5e1"/><circle cx="190" cy="400" r="1.7" fill="#cbd5e1"/><circle cx="190" cy="440" r="1.7" fill="#cbd5e1"/><circle cx="190" cy="480" r="1.7" fill="#cbd5e1"/><circle cx="190" cy="520" r="1.7" fill="#cbd5e1"/><circle cx="190" cy="560" r="1.7" fill="#cbd5e1"/><circle cx="190" cy="600" r="1.7" fill="#cbd5e1"/><circle cx="190" cy="640" r="1.7" fill="#cbd5e1"/><circle cx="190" cy="680" r="1.7" fill="#cbd5e1"/><circle cx="190" cy="720" r="1.7" fill="#cbd5e1"/><circle cx="190" cy="760" r="1.7" fill="#cbd5e1"/><circle cx="190" cy="800" r="1.7" fill="#cbd5e1"/><circle cx="190" cy="840" r="1.7" fill="#cbd5e1"/><circle cx="230" cy="120" r="1.7" fill="#cbd5e1"/><circle cx="230" cy="160" r="1.7" fill="#cbd5e1"/><circle cx="230" cy="200" r="1.7" fill="#cbd5e1"/><circle cx="230" cy="240" r="1.7" fill="#cbd5e1"/><circle cx="230" cy="280" r="1.7" fill="#cbd5e1"/><circle cx="230" cy="320" r="1.7" fill="#cbd5e1"/><circle cx="230" cy="360" r="1.7" fill="#cbd5e1"/><circle cx="230" cy="400" r="1.7" fill="#cbd5e1"/><circle cx="230" cy="440" r="1.7" fill="#cbd5e1"/><circle cx="230" cy="480" r="1.7" fill="#cbd5e1"/><circle cx="230" cy="520" r="1.7" fill="#cbd5e1"/><circle cx="230" cy="560" r="1.7" fill="#cbd5e1"/><circle cx="230" cy="600" r="1.7" fill="#cbd5e1"/><circle cx="230" cy="640" r="1.7" fill="#cbd5e1"/><circle cx="230" cy="680" r="1.7" fill="#cbd5e1"/><circle cx="230" cy="720" r="1.7" fill="#cbd5e1"/><circle cx="230" cy="760" r="1.7" fill="#cbd5e1"/><circle cx="230" cy="800" r="1.7" fill="#cbd5e1"/><circle cx="230" cy="840" r="1.7" fill="#cbd5e1"/><circle cx="270" cy="120" r="1.7" fill="#cbd5e1"/><circle cx="270" cy="160" r="1.7" fill="#cbd5e1"/><circle cx="270" cy="200" r="1.7" fill="#cbd5e1"/><circle cx="270" cy="240" r="1.7" fill="#cbd5e1"/><circle cx="270" cy="280" r="1.7" fill="#cbd5e1"/><circle cx="270" cy="320" r="1.7" fill="#cbd5e1"/><circle cx="270" cy="360" r="1.7" fill="#cbd5e1"/><circle cx="270" cy="400" r="1.7" fill="#cbd5e1"/><circle cx="270" cy="440" r="1.7" fill="#cbd5e1"/><circle cx="270" cy="480" r="1.7" fill="#cbd5e1"/><circle cx="270" cy="520" r="1.7" fill="#cbd5e1"/><circle cx="270" cy="560" r="1.7" fill="#cbd5e1"/><circle cx="270" cy="600" r="1.7" fill="#cbd5e1"/><circle cx="270" cy="640" r="1.7" fill="#cbd5e1"/><circle cx="270" cy="680" r="1.7" fill="#cbd5e1"/><circle cx="270" cy="720" r="1.7" fill="#cbd5e1"/><circle cx="270" cy="760" r="1.7" fill="#cbd5e1"/><circle cx="270" cy="800" r="1.7" fill="#cbd5e1"/><circle cx="270" cy="840" r="1.7" fill="#cbd5e1"/><circle cx="310" cy="120" r="1.7" fill="#cbd5e1"/><circle cx="310" cy="160" r="1.7" fill="#cbd5e1"/><circle cx="310" cy="200" r="1.7" fill="#cbd5e1"/><circle cx="310" cy="240" r="1.7" fill="#cbd5e1"/><circle cx="310" cy="280" r="1.7" fill="#cbd5e1"/><circle cx="310" cy="320" r="1.7" fill="#cbd5e1"/><circle cx="310" cy="360" r="1.7" fill="#cbd5e1"/><circle cx="310" cy="400" r="1.7" fill="#cbd5e1"/><circle cx="310" cy="440" r="1.7" fill="#cbd5e1"/><circle cx="310" cy="480" r="1.7" fill="#cbd5e1"/><circle cx="310" cy="520" r="1.7" fill="#cbd5e1"/><circle cx="310" cy="560" r="1.7" fill="#cbd5e1"/><circle cx="310" cy="600" r="1.7" fill="#cbd5e1"/><circle cx="310" cy="640" r="1.7" fill="#cbd5e1"/><circle cx="310" cy="680" r="1.7" fill="#cbd5e1"/><circle cx="310" cy="720" r="1.7" fill="#cbd5e1"/><circle cx="310" cy="760" r="1.7" fill="#cbd5e1"/><circle cx="310" cy="800" r="1.7" fill="#cbd5e1"/><circle cx="310" cy="840" r="1.7" fill="#cbd5e1"/><circle cx="350" cy="120" r="1.7" fill="#cbd5e1"/><circle cx="350" cy="160" r="1.7" fill="#cbd5e1"/><circle cx="350" cy="200" r="1.7" fill="#cbd5e1"/><circle cx="350" cy="240" r="1.7" fill="#cbd5e1"/><circle cx="350" cy="280" r="1.7" fill="#cbd5e1"/><circle cx="350" cy="320" r="1.7" fill="#cbd5e1"/><circle cx="350" cy="360" r="1.7" fill="#cbd5e1"/><circle cx="350" cy="400" r="1.7" fill="#cbd5e1"/><circle cx="350" cy="440" r="1.7" fill="#cbd5e1"/><circle cx="350" cy="480" r="1.7" fill="#cbd5e1"/><circle cx="350" cy="520" r="1.7" fill="#cbd5e1"/><circle cx="350" cy="560" r="1.7" fill="#cbd5e1"/><circle cx="350" cy="600" r="1.7" fill="#cbd5e1"/><circle cx="350" cy="640" r="1.7" fill="#cbd5e1"/><circle cx="350" cy="680" r="1.7" fill="#cbd5e1"/><circle cx="350" cy="720" r="1.7" fill="#cbd5e1"/><circle cx="350" cy="760" r="1.7" fill="#cbd5e1"/><circle cx="350" cy="800" r="1.7" fill="#cbd5e1"/><circle cx="350" cy="840" r="1.7" fill="#cbd5e1"/><circle cx="390" cy="120" r="1.7" fill="#cbd5e1"/><circle cx="390" cy="160" r="1.7" fill="#cbd5e1"/><circle cx="390" cy="200" r="1.7" fill="#cbd5e1"/><circle cx="390" cy="240" r="1.7" fill="#cbd5e1"/><circle cx="390" cy="280" r="1.7" fill="#cbd5e1"/><circle cx="390" cy="320" r="1.7" fill="#cbd5e1"/><circle cx="390" cy="360" r="1.7" fill="#cbd5e1"/><circle cx="390" cy="400" r="1.7" fill="#cbd5e1"/><circle cx="390" cy="440" r="1.7" fill="#cbd5e1"/><circle cx="390" cy="480" r="1.7" fill="#cbd5e1"/><circle cx="390" cy="520" r="1.7" fill="#cbd5e1"/><circle cx="390" cy="560" r="1.7" fill="#cbd5e1"/><circle cx="390" cy="600" r="1.7" fill="#cbd5e1"/><circle cx="390" cy="640" r="1.7" fill="#cbd5e1"/><circle cx="390" cy="680" r="1.7" fill="#cbd5e1"/><circle cx="390" cy="720" r="1.7" fill="#cbd5e1"/><circle cx="390" cy="760" r="1.7" fill="#cbd5e1"/><circle cx="390" cy="800" r="1.7" fill="#cbd5e1"/><circle cx="390" cy="840" r="1.7" fill="#cbd5e1"/><circle cx="430" cy="120" r="1.7" fill="#cbd5e1"/><circle cx="430" cy="160" r="1.7" fill="#cbd5e1"/><circle cx="430" cy="200" r="1.7" fill="#cbd5e1"/><circle cx="430" cy="240" r="1.7" fill="#cbd5e1"/><circle cx="430" cy="280" r="1.7" fill="#cbd5e1"/><circle cx="430" cy="320" r="1.7" fill="#cbd5e1"/><circle cx="430" cy="360" r="1.7" fill="#cbd5e1"/><circle cx="430" cy="400" r="1.7" fill="#cbd5e1"/><circle cx="430" cy="440" r="1.7" fill="#cbd5e1"/><circle cx="430" cy="480" r="1.7" fill="#cbd5e1"/><circle cx="430" cy="520" r="1.7" fill="#cbd5e1"/><circle cx="430" cy="560" r="1.7" fill="#cbd5e1"/><circle cx="430" cy="600" r="1.7" fill="#cbd5e1"/><circle cx="430" cy="640" r="1.7" fill="#cbd5e1"/><circle cx="430" cy="680" r="1.7" fill="#cbd5e1"/><circle cx="430" cy="720" r="1.7" fill="#cbd5e1"/><circle cx="430" cy="760" r="1.7" fill="#cbd5e1"/><circle cx="430" cy="800" r="1.7" fill="#cbd5e1"/><circle cx="430" cy="840" r="1.7" fill="#cbd5e1"/><circle cx="470" cy="120" r="1.7" fill="#cbd5e1"/><circle cx="470" cy="160" r="1.7" fill="#cbd5e1"/><circle cx="470" cy="200" r="1.7" fill="#cbd5e1"/><circle cx="470" cy="240" r="1.7" fill="#cbd5e1"/><circle cx="470" cy="280" r="1.7" fill="#cbd5e1"/><circle cx="470" cy="320" r="1.7" fill="#cbd5e1"/><circle cx="470" cy="360" r="1.7" fill="#cbd5e1"/><circle cx="470" cy="400" r="1.7" fill="#cbd5e1"/><circle cx="470" cy="440" r="1.7" fill="#cbd5e1"/><circle cx="470" cy="480" r="1.7" fill="#cbd5e1"/><circle cx="470" cy="520" r="1.7" fill="#cbd5e1"/><circle cx="470" cy="560" r="1.7" fill="#cbd5e1"/><circle cx="470" cy="600" r="1.7" fill="#cbd5e1"/><circle cx="470" cy="640" r="1.7" fill="#cbd5e1"/><circle cx="470" cy="680" r="1.7" fill="#cbd5e1"/><circle cx="470" cy="720" r="1.7" fill="#cbd5e1"/><circle cx="470" cy="760" r="1.7" fill="#cbd5e1"/><circle cx="470" cy="800" r="1.7" fill="#cbd5e1"/><circle cx="470" cy="840" r="1.7" fill="#cbd5e1"/><circle cx="510" cy="120" r="1.7" fill="#cbd5e1"/><circle cx="510" cy="160" r="1.7" fill="#cbd5e1"/><circle cx="510" cy="200" r="1.7" fill="#cbd5e1"/><circle cx="510" cy="240" r="1.7" fill="#cbd5e1"/><circle cx="510" cy="280" r="1.7" fill="#cbd5e1"/><circle cx="510" cy="320" r="1.7" fill="#cbd5e1"/><circle cx="510" cy="360" r="1.7" fill="#cbd5e1"/><circle cx="510" cy="400" r="1.7" fill="#cbd5e1"/><circle cx="510" cy="440" r="1.7" fill="#cbd5e1"/><circle cx="510" cy="480" r="1.7" fill="#cbd5e1"/><circle cx="510" cy="520" r="1.7" fill="#cbd5e1"/><circle cx="510" cy="560" r="1.7" fill="#cbd5e1"/><circle cx="510" cy="600" r="1.7" fill="#cbd5e1"/><circle cx="510" cy="640" r="1.7" fill="#cbd5e1"/><circle cx="510" cy="680" r="1.7" fill="#cbd5e1"/><circle cx="510" cy="720" r="1.7" fill="#cbd5e1"/><circle cx="510" cy="760" r="1.7" fill="#cbd5e1"/><circle cx="510" cy="800" r="1.7" fill="#cbd5e1"/><circle cx="510" cy="840" r="1.7" fill="#cbd5e1"/><circle cx="550" cy="120" r="1.7" fill="#cbd5e1"/><circle cx="550" cy="160" r="1.7" fill="#cbd5e1"/><circle cx="550" cy="200" r="1.7" fill="#cbd5e1"/><circle cx="550" cy="240" r="1.7" fill="#cbd5e1"/><circle cx="550" cy="280" r="1.7" fill="#cbd5e1"/><circle cx="550" cy="320" r="1.7" fill="#cbd5e1"/><circle cx="550" cy="360" r="1.7" fill="#cbd5e1"/><circle cx="550" cy="400" r="1.7" fill="#cbd5e1"/><circle cx="550" cy="440" r="1.7" fill="#cbd5e1"/><circle cx="550" cy="480" r="1.7" fill="#cbd5e1"/><circle cx="550" cy="520" r="1.7" fill="#cbd5e1"/><circle cx="550" cy="560" r="1.7" fill="#cbd5e1"/><circle cx="550" cy="600" r="1.7" fill="#cbd5e1"/><circle cx="550" cy="640" r="1.7" fill="#cbd5e1"/><circle cx="550" cy="680" r="1.7" fill="#cbd5e1"/><circle cx="550" cy="720" r="1.7" fill="#cbd5e1"/><circle cx="550" cy="760" r="1.7" fill="#cbd5e1"/><circle cx="550" cy="800" r="1.7" fill="#cbd5e1"/><circle cx="550" cy="840" r="1.7" fill="#cbd5e1"/><circle cx="590" cy="120" r="1.7" fill="#cbd5e1"/><circle cx="590" cy="160" r="1.7" fill="#cbd5e1"/><circle cx="590" cy="200" r="1.7" fill="#cbd5e1"/><circle cx="590" cy="240" r="1.7" fill="#cbd5e1"/><circle cx="590" cy="280" r="1.7" fill="#cbd5e1"/><circle cx="590" cy="320" r="1.7" fill="#cbd5e1"/><circle cx="590" cy="360" r="1.7" fill="#cbd5e1"/><circle cx="590" cy="400" r="1.7" fill="#cbd5e1"/><circle cx="590" cy="440" r="1.7" fill="#cbd5e1"/><circle cx="590" cy="480" r="1.7" fill="#cbd5e1"/><circle cx="590" cy="520" r="1.7" fill="#cbd5e1"/><circle cx="590" cy="560" r="1.7" fill="#cbd5e1"/><circle cx="590" cy="600" r="1.7" fill="#cbd5e1"/><circle cx="590" cy="640" r="1.7" fill="#cbd5e1"/><circle cx="590" cy="680" r="1.7" fill="#cbd5e1"/><circle cx="590" cy="720" r="1.7" fill="#cbd5e1"/><circle cx="590" cy="760" r="1.7" fill="#cbd5e1"/><circle cx="590" cy="800" r="1.7" fill="#cbd5e1"/><circle cx="590" cy="840" r="1.7" fill="#cbd5e1"/><circle cx="630" cy="120" r="1.7" fill="#cbd5e1"/><circle cx="630" cy="160" r="1.7" fill="#cbd5e1"/><circle cx="630" cy="200" r="1.7" fill="#cbd5e1"/><circle cx="630" cy="240" r="1.7" fill="#cbd5e1"/><circle cx="630" cy="280" r="1.7" fill="#cbd5e1"/><circle cx="630" cy="320" r="1.7" fill="#cbd5e1"/><circle cx="630" cy="360" r="1.7" fill="#cbd5e1"/><circle cx="630" cy="400" r="1.7" fill="#cbd5e1"/><circle cx="630" cy="440" r="1.7" fill="#cbd5e1"/><circle cx="630" cy="480" r="1.7" fill="#cbd5e1"/><circle cx="630" cy="520" r="1.7" fill="#cbd5e1"/><circle cx="630" cy="560" r="1.7" fill="#cbd5e1"/><circle cx="630" cy="600" r="1.7" fill="#cbd5e1"/><circle cx="630" cy="640" r="1.7" fill="#cbd5e1"/><circle cx="630" cy="680" r="1.7" fill="#cbd5e1"/><circle cx="630" cy="720" r="1.7" fill="#cbd5e1"/><circle cx="630" cy="760" r="1.7" fill="#cbd5e1"/><circle cx="630" cy="800" r="1.7" fill="#cbd5e1"/><circle cx="630" cy="840" r="1.7" fill="#cbd5e1"/><circle cx="670" cy="120" r="1.7" fill="#cbd5e1"/><circle cx="670" cy="160" r="1.7" fill="#cbd5e1"/><circle cx="670" cy="200" r="1.7" fill="#cbd5e1"/><circle cx="670" cy="240" r="1.7" fill="#cbd5e1"/><circle cx="670" cy="280" r="1.7" fill="#cbd5e1"/><circle cx="670" cy="320" r="1.7" fill="#cbd5e1"/><circle cx="670" cy="360" r="1.7" fill="#cbd5e1"/><circle cx="670" cy="400" r="1.7" fill="#cbd5e1"/><circle cx="670" cy="440" r="1.7" fill="#cbd5e1"/><circle cx="670" cy="480" r="1.7" fill="#cbd5e1"/><circle cx="670" cy="520" r="1.7" fill="#cbd5e1"/><circle cx="670" cy="560" r="1.7" fill="#cbd5e1"/><circle cx="670" cy="600" r="1.7" fill="#cbd5e1"/><circle cx="670" cy="640" r="1.7" fill="#cbd5e1"/><circle cx="670" cy="680" r="1.7" fill="#cbd5e1"/><circle cx="670" cy="720" r="1.7" fill="#cbd5e1"/><circle cx="670" cy="760" r="1.7" fill="#cbd5e1"/><circle cx="670" cy="800" r="1.7" fill="#cbd5e1"/><circle cx="670" cy="840" r="1.7" fill="#cbd5e1"/><circle cx="710" cy="120" r="1.7" fill="#cbd5e1"/><circle cx="710" cy="160" r="1.7" fill="#cbd5e1"/><circle cx="710" cy="200" r="1.7" fill="#cbd5e1"/><circle cx="710" cy="240" r="1.7" fill="#cbd5e1"/><circle cx="710" cy="280" r="1.7" fill="#cbd5e1"/><circle cx="710" cy="320" r="1.7" fill="#cbd5e1"/><circle cx="710" cy="360" r="1.7" fill="#cbd5e1"/><circle cx="710" cy="400" r="1.7" fill="#cbd5e1"/><circle cx="710" cy="440" r="1.7" fill="#cbd5e1"/><circle cx="710" cy="480" r="1.7" fill="#cbd5e1"/><circle cx="710" cy="520" r="1.7" fill="#cbd5e1"/><circle cx="710" cy="560" r="1.7" fill="#cbd5e1"/><circle cx="710" cy="600" r="1.7" fill="#cbd5e1"/><circle cx="710" cy="640" r="1.7" fill="#cbd5e1"/><circle cx="710" cy="680" r="1.7" fill="#cbd5e1"/><circle cx="710" cy="720" r="1.7" fill="#cbd5e1"/><circle cx="710" cy="760" r="1.7" fill="#cbd5e1"/><circle cx="710" cy="800" r="1.7" fill="#cbd5e1"/><circle cx="710" cy="840" r="1.7" fill="#cbd5e1"/><circle cx="750" cy="120" r="1.7" fill="#cbd5e1"/><circle cx="750" cy="160" r="1.7" fill="#cbd5e1"/><circle cx="750" cy="200" r="1.7" fill="#cbd5e1"/><circle cx="750" cy="240" r="1.7" fill="#cbd5e1"/><circle cx="750" cy="280" r="1.7" fill="#cbd5e1"/><circle cx="750" cy="320" r="1.7" fill="#cbd5e1"/><circle cx="750" cy="360" r="1.7" fill="#cbd5e1"/><circle cx="750" cy="400" r="1.7" fill="#cbd5e1"/><circle cx="750" cy="440" r="1.7" fill="#cbd5e1"/><circle cx="750" cy="480" r="1.7" fill="#cbd5e1"/><circle cx="750" cy="520" r="1.7" fill="#cbd5e1"/><circle cx="750" cy="560" r="1.7" fill="#cbd5e1"/><circle cx="750" cy="600" r="1.7" fill="#cbd5e1"/><circle cx="750" cy="640" r="1.7" fill="#cbd5e1"/><circle cx="750" cy="680" r="1.7" fill="#cbd5e1"/><circle cx="750" cy="720" r="1.7" fill="#cbd5e1"/><circle cx="750" cy="760" r="1.7" fill="#cbd5e1"/><circle cx="750" cy="800" r="1.7" fill="#cbd5e1"/><circle cx="750" cy="840" r="1.7" fill="#cbd5e1"/><circle cx="790" cy="120" r="1.7" fill="#cbd5e1"/><circle cx="790" cy="160" r="1.7" fill="#cbd5e1"/><circle cx="790" cy="200" r="1.7" fill="#cbd5e1"/><circle cx="790" cy="240" r="1.7" fill="#cbd5e1"/><circle cx="790" cy="280" r="1.7" fill="#cbd5e1"/><circle cx="790" cy="320" r="1.7" fill="#cbd5e1"/><circle cx="790" cy="360" r="1.7" fill="#cbd5e1"/><circle cx="790" cy="400" r="1.7" fill="#cbd5e1"/><circle cx="790" cy="440" r="1.7" fill="#cbd5e1"/><circle cx="790" cy="480" r="1.7" fill="#cbd5e1"/><circle cx="790" cy="520" r="1.7" fill="#cbd5e1"/><circle cx="790" cy="560" r="1.7" fill="#cbd5e1"/><circle cx="790" cy="600" r="1.7" fill="#cbd5e1"/><circle cx="790" cy="640" r="1.7" fill="#cbd5e1"/><circle cx="790" cy="680" r="1.7" fill="#cbd5e1"/><circle cx="790" cy="720" r="1.7" fill="#cbd5e1"/><circle cx="790" cy="760" r="1.7" fill="#cbd5e1"/><circle cx="790" cy="800" r="1.7" fill="#cbd5e1"/><circle cx="790" cy="840" r="1.7" fill="#cbd5e1"/><circle cx="830" cy="120" r="1.7" fill="#cbd5e1"/><circle cx="830" cy="160" r="1.7" fill="#cbd5e1"/><circle cx="830" cy="200" r="1.7" fill="#cbd5e1"/><circle cx="830" cy="240" r="1.7" fill="#cbd5e1"/><circle cx="830" cy="280" r="1.7" fill="#cbd5e1"/><circle cx="830" cy="320" r="1.7" fill="#cbd5e1"/><circle cx="830" cy="360" r="1.7" fill="#cbd5e1"/><circle cx="830" cy="400" r="1.7" fill="#cbd5e1"/><circle cx="830" cy="440" r="1.7" fill="#cbd5e1"/><circle cx="830" cy="480" r="1.7" fill="#cbd5e1"/><circle cx="830" cy="520" r="1.7" fill="#cbd5e1"/><circle cx="830" cy="560" r="1.7" fill="#cbd5e1"/><circle cx="830" cy="600" r="1.7" fill="#cbd5e1"/><circle cx="830" cy="640" r="1.7" fill="#cbd5e1"/><circle cx="830" cy="680" r="1.7" fill="#cbd5e1"/><circle cx="830" cy="720" r="1.7" fill="#cbd5e1"/><circle cx="830" cy="760" r="1.7" fill="#cbd5e1"/><circle cx="830" cy="800" r="1.7" fill="#cbd5e1"/><circle cx="830" cy="840" r="1.7" fill="#cbd5e1"/><circle cx="870" cy="120" r="1.7" fill="#cbd5e1"/><circle cx="870" cy="160" r="1.7" fill="#cbd5e1"/><circle cx="870" cy="200" r="1.7" fill="#cbd5e1"/><circle cx="870" cy="240" r="1.7" fill="#cbd5e1"/><circle cx="870" cy="280" r="1.7" fill="#cbd5e1"/><circle cx="870" cy="320" r="1.7" fill="#cbd5e1"/><circle cx="870" cy="360" r="1.7" fill="#cbd5e1"/><circle cx="870" cy="400" r="1.7" fill="#cbd5e1"/><circle cx="870" cy="440" r="1.7" fill="#cbd5e1"/><circle cx="870" cy="480" r="1.7" fill="#cbd5e1"/><circle cx="870" cy="520" r="1.7" fill="#cbd5e1"/><circle cx="870" cy="560" r="1.7" fill="#cbd5e1"/><circle cx="870" cy="600" r="1.7" fill="#cbd5e1"/><circle cx="870" cy="640" r="1.7" fill="#cbd5e1"/><circle cx="870" cy="680" r="1.7" fill="#cbd5e1"/><circle cx="870" cy="720" r="1.7" fill="#cbd5e1"/><circle cx="870" cy="760" r="1.7" fill="#cbd5e1"/><circle cx="870" cy="800" r="1.7" fill="#cbd5e1"/><circle cx="870" cy="840" r="1.7" fill="#cbd5e1"/><circle cx="910" cy="120" r="1.7" fill="#cbd5e1"/><circle cx="910" cy="160" r="1.7" fill="#cbd5e1"/><circle cx="910" cy="200" r="1.7" fill="#cbd5e1"/><circle cx="910" cy="240" r="1.7" fill="#cbd5e1"/><circle cx="910" cy="280" r="1.7" fill="#cbd5e1"/><circle cx="910" cy="320" r="1.7" fill="#cbd5e1"/><circle cx="910" cy="360" r="1.7" fill="#cbd5e1"/><circle cx="910" cy="400" r="1.7" fill="#cbd5e1"/><circle cx="910" cy="440" r="1.7" fill="#cbd5e1"/><circle cx="910" cy="480" r="1.7" fill="#cbd5e1"/><circle cx="910" cy="520" r="1.7" fill="#cbd5e1"/><circle cx="910" cy="560" r="1.7" fill="#cbd5e1"/><circle cx="910" cy="600" r="1.7" fill="#cbd5e1"/><circle cx="910" cy="640" r="1.7" fill="#cbd5e1"/><circle cx="910" cy="680" r="1.7" fill="#cbd5e1"/><circle cx="910" cy="720" r="1.7" fill="#cbd5e1"/><circle cx="910" cy="760" r="1.7" fill="#cbd5e1"/><circle cx="910" cy="800" r="1.7" fill="#cbd5e1"/><circle cx="910" cy="840" r="1.7" fill="#cbd5e1"/><circle cx="950" cy="120" r="1.7" fill="#cbd5e1"/><circle cx="950" cy="160" r="1.7" fill="#cbd5e1"/><circle cx="950" cy="200" r="1.7" fill="#cbd5e1"/><circle cx="950" cy="240" r="1.7" fill="#cbd5e1"/><circle cx="950" cy="280" r="1.7" fill="#cbd5e1"/><circle cx="950" cy="320" r="1.7" fill="#cbd5e1"/><circle cx="950" cy="360" r="1.7" fill="#cbd5e1"/><circle cx="950" cy="400" r="1.7" fill="#cbd5e1"/><circle cx="950" cy="440" r="1.7" fill="#cbd5e1"/><circle cx="950" cy="480" r="1.7" fill="#cbd5e1"/><circle cx="950" cy="520" r="1.7" fill="#cbd5e1"/><circle cx="950" cy="560" r="1.7" fill="#cbd5e1"/><circle cx="950" cy="600" r="1.7" fill="#cbd5e1"/><circle cx="950" cy="640" r="1.7" fill="#cbd5e1"/><circle cx="950" cy="680" r="1.7" fill="#cbd5e1"/><circle cx="950" cy="720" r="1.7" fill="#cbd5e1"/><circle cx="950" cy="760" r="1.7" fill="#cbd5e1"/><circle cx="950" cy="800" r="1.7" fill="#cbd5e1"/><circle cx="950" cy="840" r="1.7" fill="#cbd5e1"/><circle cx="990" cy="120" r="1.7" fill="#cbd5e1"/><circle cx="990" cy="160" r="1.7" fill="#cbd5e1"/><circle cx="990" cy="200" r="1.7" fill="#cbd5e1"/><circle cx="990" cy="240" r="1.7" fill="#cbd5e1"/><circle cx="990" cy="280" r="1.7" fill="#cbd5e1"/><circle cx="990" cy="320" r="1.7" fill="#cbd5e1"/><circle cx="990" cy="360" r="1.7" fill="#cbd5e1"/><circle cx="990" cy="400" r="1.7" fill="#cbd5e1"/><circle cx="990" cy="440" r="1.7" fill="#cbd5e1"/><circle cx="990" cy="480" r="1.7" fill="#cbd5e1"/><circle cx="990" cy="520" r="1.7" fill="#cbd5e1"/><circle cx="990" cy="560" r="1.7" fill="#cbd5e1"/><circle cx="990" cy="600" r="1.7" fill="#cbd5e1"/><circle cx="990" cy="640" r="1.7" fill="#cbd5e1"/><circle cx="990" cy="680" r="1.7" fill="#cbd5e1"/><circle cx="990" cy="720" r="1.7" fill="#cbd5e1"/><circle cx="990" cy="760" r="1.7" fill="#cbd5e1"/><circle cx="990" cy="800" r="1.7" fill="#cbd5e1"/><circle cx="990" cy="840" r="1.7" fill="#cbd5e1"/><circle cx="1030" cy="120" r="1.7" fill="#cbd5e1"/><circle cx="1030" cy="160" r="1.7" fill="#cbd5e1"/><circle cx="1030" cy="200" r="1.7" fill="#cbd5e1"/><circle cx="1030" cy="240" r="1.7" fill="#cbd5e1"/><circle cx="1030" cy="280" r="1.7" fill="#cbd5e1"/><circle cx="1030" cy="320" r="1.7" fill="#cbd5e1"/><circle cx="1030" cy="360" r="1.7" fill="#cbd5e1"/><circle cx="1030" cy="400" r="1.7" fill="#cbd5e1"/><circle cx="1030" cy="440" r="1.7" fill="#cbd5e1"/><circle cx="1030" cy="480" r="1.7" fill="#cbd5e1"/><circle cx="1030" cy="520" r="1.7" fill="#cbd5e1"/><circle cx="1030" cy="560" r="1.7" fill="#cbd5e1"/><circle cx="1030" cy="600" r="1.7" fill="#cbd5e1"/><circle cx="1030" cy="640" r="1.7" fill="#cbd5e1"/><circle cx="1030" cy="680" r="1.7" fill="#cbd5e1"/><circle cx="1030" cy="720" r="1.7" fill="#cbd5e1"/><circle cx="1030" cy="760" r="1.7" fill="#cbd5e1"/><circle cx="1030" cy="800" r="1.7" fill="#cbd5e1"/><circle cx="1030" cy="840" r="1.7" fill="#cbd5e1"/><circle cx="1070" cy="120" r="1.7" fill="#cbd5e1"/><circle cx="1070" cy="160" r="1.7" fill="#cbd5e1"/><circle cx="1070" cy="200" r="1.7" fill="#cbd5e1"/><circle cx="1070" cy="240" r="1.7" fill="#cbd5e1"/><circle cx="1070" cy="280" r="1.7" fill="#cbd5e1"/><circle cx="1070" cy="320" r="1.7" fill="#cbd5e1"/><circle cx="1070" cy="360" r="1.7" fill="#cbd5e1"/><circle cx="1070" cy="400" r="1.7" fill="#cbd5e1"/><circle cx="1070" cy="440" r="1.7" fill="#cbd5e1"/><circle cx="1070" cy="480" r="1.7" fill="#cbd5e1"/><circle cx="1070" cy="520" r="1.7" fill="#cbd5e1"/><circle cx="1070" cy="560" r="1.7" fill="#cbd5e1"/><circle cx="1070" cy="600" r="1.7" fill="#cbd5e1"/><circle cx="1070" cy="640" r="1.7" fill="#cbd5e1"/><circle cx="1070" cy="680" r="1.7" fill="#cbd5e1"/><circle cx="1070" cy="720" r="1.7" fill="#cbd5e1"/><circle cx="1070" cy="760" r="1.7" fill="#cbd5e1"/><circle cx="1070" cy="800" r="1.7" fill="#cbd5e1"/><circle cx="1070" cy="840" r="1.7" fill="#cbd5e1"/><circle cx="1110" cy="120" r="1.7" fill="#cbd5e1"/><circle cx="1110" cy="160" r="1.7" fill="#cbd5e1"/><circle cx="1110" cy="200" r="1.7" fill="#cbd5e1"/><circle cx="1110" cy="240" r="1.7" fill="#cbd5e1"/><circle cx="1110" cy="280" r="1.7" fill="#cbd5e1"/><circle cx="1110" cy="320" r="1.7" fill="#cbd5e1"/><circle cx="1110" cy="360" r="1.7" fill="#cbd5e1"/><circle cx="1110" cy="400" r="1.7" fill="#cbd5e1"/><circle cx="1110" cy="440" r="1.7" fill="#cbd5e1"/><circle cx="1110" cy="480" r="1.7" fill="#cbd5e1"/><circle cx="1110" cy="520" r="1.7" fill="#cbd5e1"/><circle cx="1110" cy="560" r="1.7" fill="#cbd5e1"/><circle cx="1110" cy="600" r="1.7" fill="#cbd5e1"/><circle cx="1110" cy="640" r="1.7" fill="#cbd5e1"/><circle cx="1110" cy="680" r="1.7" fill="#cbd5e1"/><circle cx="1110" cy="720" r="1.7" fill="#cbd5e1"/><circle cx="1110" cy="760" r="1.7" fill="#cbd5e1"/><circle cx="1110" cy="800" r="1.7" fill="#cbd5e1"/><circle cx="1110" cy="840" r="1.7" fill="#cbd5e1"/><circle cx="1150" cy="120" r="1.7" fill="#cbd5e1"/><circle cx="1150" cy="160" r="1.7" fill="#cbd5e1"/><circle cx="1150" cy="200" r="1.7" fill="#cbd5e1"/><circle cx="1150" cy="240" r="1.7" fill="#cbd5e1"/><circle cx="1150" cy="280" r="1.7" fill="#cbd5e1"/><circle cx="1150" cy="320" r="1.7" fill="#cbd5e1"/><circle cx="1150" cy="360" r="1.7" fill="#cbd5e1"/><circle cx="1150" cy="400" r="1.7" fill="#cbd5e1"/><circle cx="1150" cy="440" r="1.7" fill="#cbd5e1"/><circle cx="1150" cy="480" r="1.7" fill="#cbd5e1"/><circle cx="1150" cy="520" r="1.7" fill="#cbd5e1"/><circle cx="1150" cy="560" r="1.7" fill="#cbd5e1"/><circle cx="1150" cy="600" r="1.7" fill="#cbd5e1"/><circle cx="1150" cy="640" r="1.7" fill="#cbd5e1"/><circle cx="1150" cy="680" r="1.7" fill="#cbd5e1"/><circle cx="1150" cy="720" r="1.7" fill="#cbd5e1"/><circle cx="1150" cy="760" r="1.7" fill="#cbd5e1"/><circle cx="1150" cy="800" r="1.7" fill="#cbd5e1"/><circle cx="1150" cy="840" r="1.7" fill="#cbd5e1"/><circle cx="1190" cy="120" r="1.7" fill="#cbd5e1"/><circle cx="1190" cy="160" r="1.7" fill="#cbd5e1"/><circle cx="1190" cy="200" r="1.7" fill="#cbd5e1"/><circle cx="1190" cy="240" r="1.7" fill="#cbd5e1"/><circle cx="1190" cy="280" r="1.7" fill="#cbd5e1"/><circle cx="1190" cy="320" r="1.7" fill="#cbd5e1"/><circle cx="1190" cy="360" r="1.7" fill="#cbd5e1"/><circle cx="1190" cy="400" r="1.7" fill="#cbd5e1"/><circle cx="1190" cy="440" r="1.7" fill="#cbd5e1"/><circle cx="1190" cy="480" r="1.7" fill="#cbd5e1"/><circle cx="1190" cy="520" r="1.7" fill="#cbd5e1"/><circle cx="1190" cy="560" r="1.7" fill="#cbd5e1"/><circle cx="1190" cy="600" r="1.7" fill="#cbd5e1"/><circle cx="1190" cy="640" r="1.7" fill="#cbd5e1"/><circle cx="1190" cy="680" r="1.7" fill="#cbd5e1"/><circle cx="1190" cy="720" r="1.7" fill="#cbd5e1"/><circle cx="1190" cy="760" r="1.7" fill="#cbd5e1"/><circle cx="1190" cy="800" r="1.7" fill="#cbd5e1"/><circle cx="1190" cy="840" r="1.7" fill="#cbd5e1"/><circle cx="1230" cy="120" r="1.7" fill="#cbd5e1"/><circle cx="1230" cy="160" r="1.7" fill="#cbd5e1"/><circle cx="1230" cy="200" r="1.7" fill="#cbd5e1"/><circle cx="1230" cy="240" r="1.7" fill="#cbd5e1"/><circle cx="1230" cy="280" r="1.7" fill="#cbd5e1"/><circle cx="1230" cy="320" r="1.7" fill="#cbd5e1"/><circle cx="1230" cy="360" r="1.7" fill="#cbd5e1"/><circle cx="1230" cy="400" r="1.7" fill="#cbd5e1"/><circle cx="1230" cy="440" r="1.7" fill="#cbd5e1"/><circle cx="1230" cy="480" r="1.7" fill="#cbd5e1"/><circle cx="1230" cy="520" r="1.7" fill="#cbd5e1"/><circle cx="1230" cy="560" r="1.7" fill="#cbd5e1"/><circle cx="1230" cy="600" r="1.7" fill="#cbd5e1"/><circle cx="1230" cy="640" r="1.7" fill="#cbd5e1"/><circle cx="1230" cy="680" r="1.7" fill="#cbd5e1"/><circle cx="1230" cy="720" r="1.7" fill="#cbd5e1"/><circle cx="1230" cy="760" r="1.7" fill="#cbd5e1"/><circle cx="1230" cy="800" r="1.7" fill="#cbd5e1"/><circle cx="1230" cy="840" r="1.7" fill="#cbd5e1"/><circle cx="1270" cy="120" r="1.7" fill="#cbd5e1"/><circle cx="1270" cy="160" r="1.7" fill="#cbd5e1"/><circle cx="1270" cy="200" r="1.7" fill="#cbd5e1"/><circle cx="1270" cy="240" r="1.7" fill="#cbd5e1"/><circle cx="1270" cy="280" r="1.7" fill="#cbd5e1"/><circle cx="1270" cy="320" r="1.7" fill="#cbd5e1"/><circle cx="1270" cy="360" r="1.7" fill="#cbd5e1"/><circle cx="1270" cy="400" r="1.7" fill="#cbd5e1"/><circle cx="1270" cy="440" r="1.7" fill="#cbd5e1"/><circle cx="1270" cy="480" r="1.7" fill="#cbd5e1"/><circle cx="1270" cy="520" r="1.7" fill="#cbd5e1"/><circle cx="1270" cy="560" r="1.7" fill="#cbd5e1"/><circle cx="1270" cy="600" r="1.7" fill="#cbd5e1"/><circle cx="1270" cy="640" r="1.7" fill="#cbd5e1"/><circle cx="1270" cy="680" r="1.7" fill="#cbd5e1"/><circle cx="1270" cy="720" r="1.7" fill="#cbd5e1"/><circle cx="1270" cy="760" r="1.7" fill="#cbd5e1"/><circle cx="1270" cy="800" r="1.7" fill="#cbd5e1"/><circle cx="1270" cy="840" r="1.7" fill="#cbd5e1"/><circle cx="1310" cy="120" r="1.7" fill="#cbd5e1"/><circle cx="1310" cy="160" r="1.7" fill="#cbd5e1"/><circle cx="1310" cy="200" r="1.7" fill="#cbd5e1"/><circle cx="1310" cy="240" r="1.7" fill="#cbd5e1"/><circle cx="1310" cy="280" r="1.7" fill="#cbd5e1"/><circle cx="1310" cy="320" r="1.7" fill="#cbd5e1"/><circle cx="1310" cy="360" r="1.7" fill="#cbd5e1"/><circle cx="1310" cy="400" r="1.7" fill="#cbd5e1"/><circle cx="1310" cy="440" r="1.7" fill="#cbd5e1"/><circle cx="1310" cy="480" r="1.7" fill="#cbd5e1"/><circle cx="1310" cy="520" r="1.7" fill="#cbd5e1"/><circle cx="1310" cy="560" r="1.7" fill="#cbd5e1"/><circle cx="1310" cy="600" r="1.7" fill="#cbd5e1"/><circle cx="1310" cy="640" r="1.7" fill="#cbd5e1"/><circle cx="1310" cy="680" r="1.7" fill="#cbd5e1"/><circle cx="1310" cy="720" r="1.7" fill="#cbd5e1"/><circle cx="1310" cy="760" r="1.7" fill="#cbd5e1"/><circle cx="1310" cy="800" r="1.7" fill="#cbd5e1"/><circle cx="1310" cy="840" r="1.7" fill="#cbd5e1"/><circle cx="1350" cy="120" r="1.7" fill="#cbd5e1"/><circle cx="1350" cy="160" r="1.7" fill="#cbd5e1"/><circle cx="1350" cy="200" r="1.7" fill="#cbd5e1"/><circle cx="1350" cy="240" r="1.7" fill="#cbd5e1"/><circle cx="1350" cy="280" r="1.7" fill="#cbd5e1"/><circle cx="1350" cy="320" r="1.7" fill="#cbd5e1"/><circle cx="1350" cy="360" r="1.7" fill="#cbd5e1"/><circle cx="1350" cy="400" r="1.7" fill="#cbd5e1"/><circle cx="1350" cy="440" r="1.7" fill="#cbd5e1"/><circle cx="1350" cy="480" r="1.7" fill="#cbd5e1"/><circle cx="1350" cy="520" r="1.7" fill="#cbd5e1"/><circle cx="1350" cy="560" r="1.7" fill="#cbd5e1"/><circle cx="1350" cy="600" r="1.7" fill="#cbd5e1"/><circle cx="1350" cy="640" r="1.7" fill="#cbd5e1"/><circle cx="1350" cy="680" r="1.7" fill="#cbd5e1"/><circle cx="1350" cy="720" r="1.7" fill="#cbd5e1"/><circle cx="1350" cy="760" r="1.7" fill="#cbd5e1"/><circle cx="1350" cy="800" r="1.7" fill="#cbd5e1"/><circle cx="1350" cy="840" r="1.7" fill="#cbd5e1"/><circle cx="1390" cy="120" r="1.7" fill="#cbd5e1"/><circle cx="1390" cy="160" r="1.7" fill="#cbd5e1"/><circle cx="1390" cy="200" r="1.7" fill="#cbd5e1"/><circle cx="1390" cy="240" r="1.7" fill="#cbd5e1"/><circle cx="1390" cy="280" r="1.7" fill="#cbd5e1"/><circle cx="1390" cy="320" r="1.7" fill="#cbd5e1"/><circle cx="1390" cy="360" r="1.7" fill="#cbd5e1"/><circle cx="1390" cy="400" r="1.7" fill="#cbd5e1"/><circle cx="1390" cy="440" r="1.7" fill="#cbd5e1"/><circle cx="1390" cy="480" r="1.7" fill="#cbd5e1"/><circle cx="1390" cy="520" r="1.7" fill="#cbd5e1"/><circle cx="1390" cy="560" r="1.7" fill="#cbd5e1"/><circle cx="1390" cy="600" r="1.7" fill="#cbd5e1"/><circle cx="1390" cy="640" r="1.7" fill="#cbd5e1"/><circle cx="1390" cy="680" r="1.7" fill="#cbd5e1"/><circle cx="1390" cy="720" r="1.7" fill="#cbd5e1"/><circle cx="1390" cy="760" r="1.7" fill="#cbd5e1"/><circle cx="1390" cy="800" r="1.7" fill="#cbd5e1"/><circle cx="1390" cy="840" r="1.7" fill="#cbd5e1"/><circle cx="1430" cy="120" r="1.7" fill="#cbd5e1"/><circle cx="1430" cy="160" r="1.7" fill="#cbd5e1"/><circle cx="1430" cy="200" r="1.7" fill="#cbd5e1"/><circle cx="1430" cy="240" r="1.7" fill="#cbd5e1"/><circle cx="1430" cy="280" r="1.7" fill="#cbd5e1"/><circle cx="1430" cy="320" r="1.7" fill="#cbd5e1"/><circle cx="1430" cy="360" r="1.7" fill="#cbd5e1"/><circle cx="1430" cy="400" r="1.7" fill="#cbd5e1"/><circle cx="1430" cy="440" r="1.7" fill="#cbd5e1"/><circle cx="1430" cy="480" r="1.7" fill="#cbd5e1"/><circle cx="1430" cy="520" r="1.7" fill="#cbd5e1"/><circle cx="1430" cy="560" r="1.7" fill="#cbd5e1"/><circle cx="1430" cy="600" r="1.7" fill="#cbd5e1"/><circle cx="1430" cy="640" r="1.7" fill="#cbd5e1"/><circle cx="1430" cy="680" r="1.7" fill="#cbd5e1"/><circle cx="1430" cy="720" r="1.7" fill="#cbd5e1"/><circle cx="1430" cy="760" r="1.7" fill="#cbd5e1"/><circle cx="1430" cy="800" r="1.7" fill="#cbd5e1"/><circle cx="1430" cy="840" r="1.7" fill="#cbd5e1"/><circle cx="1470" cy="120" r="1.7" fill="#cbd5e1"/><circle cx="1470" cy="160" r="1.7" fill="#cbd5e1"/><circle cx="1470" cy="200" r="1.7" fill="#cbd5e1"/><circle cx="1470" cy="240" r="1.7" fill="#cbd5e1"/><circle cx="1470" cy="280" r="1.7" fill="#cbd5e1"/><circle cx="1470" cy="320" r="1.7" fill="#cbd5e1"/><circle cx="1470" cy="360" r="1.7" fill="#cbd5e1"/><circle cx="1470" cy="400" r="1.7" fill="#cbd5e1"/><circle cx="1470" cy="440" r="1.7" fill="#cbd5e1"/><circle cx="1470" cy="480" r="1.7" fill="#cbd5e1"/><circle cx="1470" cy="520" r="1.7" fill="#cbd5e1"/><circle cx="1470" cy="560" r="1.7" fill="#cbd5e1"/><circle cx="1470" cy="600" r="1.7" fill="#cbd5e1"/><circle cx="1470" cy="640" r="1.7" fill="#cbd5e1"/><circle cx="1470" cy="680" r="1.7" fill="#cbd5e1"/><circle cx="1470" cy="720" r="1.7" fill="#cbd5e1"/><circle cx="1470" cy="760" r="1.7" fill="#cbd5e1"/><circle cx="1470" cy="800" r="1.7" fill="#cbd5e1"/><circle cx="1470" cy="840" r="1.7" fill="#cbd5e1"/><circle cx="1510" cy="120" r="1.7" fill="#cbd5e1"/><circle cx="1510" cy="160" r="1.7" fill="#cbd5e1"/><circle cx="1510" cy="200" r="1.7" fill="#cbd5e1"/><circle cx="1510" cy="240" r="1.7" fill="#cbd5e1"/><circle cx="1510" cy="280" r="1.7" fill="#cbd5e1"/><circle cx="1510" cy="320" r="1.7" fill="#cbd5e1"/><circle cx="1510" cy="360" r="1.7" fill="#cbd5e1"/><circle cx="1510" cy="400" r="1.7" fill="#cbd5e1"/><circle cx="1510" cy="440" r="1.7" fill="#cbd5e1"/><circle cx="1510" cy="480" r="1.7" fill="#cbd5e1"/><circle cx="1510" cy="520" r="1.7" fill="#cbd5e1"/><circle cx="1510" cy="560" r="1.7" fill="#cbd5e1"/><circle cx="1510" cy="600" r="1.7" fill="#cbd5e1"/><circle cx="1510" cy="640" r="1.7" fill="#cbd5e1"/><circle cx="1510" cy="680" r="1.7" fill="#cbd5e1"/><circle cx="1510" cy="720" r="1.7" fill="#cbd5e1"/><circle cx="1510" cy="760" r="1.7" fill="#cbd5e1"/><circle cx="1510" cy="800" r="1.7" fill="#cbd5e1"/><circle cx="1510" cy="840" r="1.7" fill="#cbd5e1"/></g>
  <text x="70" y="78" class="eyebrow">AGENT WORKFLOW</text>
  <text x="70" y="126" class="title">Agent Workflow 실습 정리</text>
  <text x="72" y="162" class="subtitle">Agent는 모델 호출이 아니라 상태, 도구, 검증, 중단 조건을 설계하는 문제다.</text>
  <g filter="url(#soft)">
    <rect x="70" y="320" width="240" height="150" rx="24" fill="#ffffff" stroke="#d8e2ef" stroke-width="1.4"/>
    <rect x="70" y="320" width="240" height="8" rx="4" fill="#334155" opacity="0.9"/>
    <circle cx="104" cy="364" r="18" fill="#e2e8f0"/>
    <text x="104" y="371" text-anchor="middle" class="label" style="fill:#334155">01</text>
    <text x="134" y="370" class="card-title">User Goal</text>
    <text x="98" y="408" class="card-sub">요청과 제약</text>
  </g>
  <g filter="url(#soft)">
    <rect x="320" y="210" width="240" height="150" rx="24" fill="#ffffff" stroke="#d8e2ef" stroke-width="1.4"/>
    <rect x="320" y="210" width="240" height="8" rx="4" fill="#1d4ed8" opacity="0.9"/>
    <circle cx="354" cy="254" r="18" fill="#dbeafe"/>
    <text x="354" y="261" text-anchor="middle" class="label" style="fill:#1d4ed8">02</text>
    <text x="384" y="260" class="card-title">Planner</text>
    <text x="348" y="298" class="card-sub">작업 분해</text>
  </g>
  <g filter="url(#soft)">
    <rect x="610" y="210" width="240" height="150" rx="24" fill="#ffffff" stroke="#d8e2ef" stroke-width="1.4"/>
    <rect x="610" y="210" width="240" height="8" rx="4" fill="#0f766e" opacity="0.9"/>
    <circle cx="644" cy="254" r="18" fill="#ccfbf1"/>
    <text x="644" y="261" text-anchor="middle" class="label" style="fill:#0f766e">03</text>
    <text x="674" y="260" class="card-title">Tool Calling</text>
    <text x="638" y="298" class="card-sub">외부 실행 경계</text>
  </g>
  <g filter="url(#soft)">
    <rect x="900" y="210" width="240" height="150" rx="24" fill="#ffffff" stroke="#d8e2ef" stroke-width="1.4"/>
    <rect x="900" y="210" width="240" height="8" rx="4" fill="#6d28d9" opacity="0.9"/>
    <circle cx="934" cy="254" r="18" fill="#ede9fe"/>
    <text x="934" y="261" text-anchor="middle" class="label" style="fill:#6d28d9">04</text>
    <text x="964" y="260" class="card-title">Evaluator</text>
    <text x="928" y="298" class="card-sub">결과 검토</text>
  </g>
  <g filter="url(#soft)">
    <rect x="900" y="500" width="240" height="150" rx="24" fill="#ffffff" stroke="#d8e2ef" stroke-width="1.4"/>
    <rect x="900" y="500" width="240" height="8" rx="4" fill="#b45309" opacity="0.9"/>
    <circle cx="934" cy="544" r="18" fill="#fef3c7"/>
    <text x="934" y="551" text-anchor="middle" class="label" style="fill:#b45309">05</text>
    <text x="964" y="550" class="card-title">Reflection</text>
    <text x="928" y="588" class="card-sub">실패 원인 저장</text>
  </g>
  <g filter="url(#soft)">
    <rect x="1190" y="320" width="240" height="150" rx="24" fill="#ffffff" stroke="#d8e2ef" stroke-width="1.4"/>
    <rect x="1190" y="320" width="240" height="8" rx="4" fill="#15803d" opacity="0.9"/>
    <circle cx="1224" cy="364" r="18" fill="#dcfce7"/>
    <text x="1224" y="371" text-anchor="middle" class="label" style="fill:#15803d">06</text>
    <text x="1254" y="370" class="card-title">Report</text>
    <text x="1218" y="408" class="card-sub">근거와 로그 정리</text>
  </g>
<path class="line" d="M310 395 C315.0 395, 315.0 285, 320 285"/>
<path class="line" d="M560 285 C585.0 285, 585.0 285, 610 285"/>
<path class="line" d="M850 285 C875.0 285, 875.0 285, 900 285"/>
<path class="line" d="M1020 360 C1020.0 360, 1020.0 500, 1020 500"/>
<path class="line" d="M1140 575 C1165.0 575, 1165.0 430, 1190 430"/>
  <path d="M1020 500 C760 665 560 610 430 360" class="line" stroke-dasharray="8 10"/>
  <g filter="url(#shadow)">
    <rect x="205" y="720" width="1190" height="86" rx="28" fill="#ffffff" stroke="#dbe3ef"/>
    <text x="255" y="773" class="metric" style="fill:#1d4ed8">실패 제어</text>
    <text x="385" y="773" class="card-sub">도구 호출 로그, 평가 기준, Reflection 메모리, HITL 승인 경계를 남겨야 반복 실행을 통제할 수 있다.</text>
  </g></svg>
