<svg xmlns="http://www.w3.org/2000/svg" viewBox="0 0 1600 900" width="1600" height="900" role="img" aria-labelledby="title desc">
  <title id="title">RAG Implementation Patterns</title>
  <desc id="desc">Naive RAG에서 Query Rewrite, Hybrid Search, Reranker, Evaluation으로 확장하는 흐름.</desc>
  <defs>
    <linearGradient id="bg" x1="0" y1="0" x2="1" y2="1">
      <stop offset="0" stop-color="#f8fafc"/>
      <stop offset="0.55" stop-color="#ffffff"/>
      <stop offset="1" stop-color="#eef6ff"/>
    </linearGradient>
    <filter id="shadow" x="-20%" y="-20%" width="140%" height="140%">
      <feDropShadow dx="0" dy="14" stdDeviation="18" flood-color="#0f172a" flood-opacity="0.14"/>
    </filter>
    <filter id="soft" x="-20%" y="-20%" width="140%" height="140%">
      <feDropShadow dx="0" dy="8" stdDeviation="10" flood-color="#1e293b" flood-opacity="0.08"/>
    </filter>
    <marker id="arrow" markerWidth="14" markerHeight="12" refX="12" refY="6" orient="auto">
      <path d="M0,0 L14,6 L0,12 Z" fill="#4f46e5"/>
    </marker>
    <style><![CDATA[
      text { font-family: "Pretendard", "Noto Sans KR", "Apple SD Gothic Neo", "Malgun Gothic", Inter, Arial, sans-serif; fill: #0f172a; }
      .title { font-size: 42px; font-weight: 900; letter-spacing: 0; }
      .subtitle { font-size: 20px; fill: #475569; font-weight: 500; }
      .eyebrow { font-size: 15px; fill: #4f46e5; font-weight: 900; letter-spacing: 1.2px; }
      .card-title { font-size: 24px; font-weight: 850; }
      .card-sub { font-size: 16px; fill: #475569; font-weight: 550; }
      .small { font-size: 14px; fill: #64748b; font-weight: 600; }
      .label { font-size: 15px; fill: #334155; font-weight: 800; }
      .metric { font-size: 20px; font-weight: 900; }
      .line { stroke: #4f46e5; stroke-width: 3.5; fill: none; marker-end: url(#arrow); stroke-linecap: round; stroke-linejoin: round; }
    ]]></style>
  </defs>
  <rect width="1600" height="900" fill="url(#bg)"/>
  <path d="M0 104 C260 60 395 150 650 92 C935 28 1070 88 1600 44" fill="none" stroke="#dbeafe" stroke-width="24" opacity="0.75"/>
  <g opacity="0.42"><circle cx="70" cy="120" r="1.7" fill="#cbd5e1"/><circle cx="70" cy="160" r="1.7" fill="#cbd5e1"/><circle cx="70" cy="200" r="1.7" fill="#cbd5e1"/><circle cx="70" cy="240" r="1.7" fill="#cbd5e1"/><circle cx="70" cy="280" r="1.7" fill="#cbd5e1"/><circle cx="70" cy="320" r="1.7" fill="#cbd5e1"/><circle cx="70" cy="360" r="1.7" fill="#cbd5e1"/><circle cx="70" cy="400" r="1.7" fill="#cbd5e1"/><circle cx="70" cy="440" r="1.7" fill="#cbd5e1"/><circle cx="70" cy="480" r="1.7" fill="#cbd5e1"/><circle cx="70" cy="520" r="1.7" fill="#cbd5e1"/><circle cx="70" cy="560" r="1.7" fill="#cbd5e1"/><circle cx="70" cy="600" r="1.7" fill="#cbd5e1"/><circle cx="70" cy="640" r="1.7" fill="#cbd5e1"/><circle cx="70" cy="680" r="1.7" fill="#cbd5e1"/><circle cx="70" cy="720" r="1.7" fill="#cbd5e1"/><circle cx="70" cy="760" r="1.7" fill="#cbd5e1"/><circle cx="70" cy="800" r="1.7" fill="#cbd5e1"/><circle cx="70" cy="840" r="1.7" fill="#cbd5e1"/><circle cx="110" cy="120" r="1.7" fill="#cbd5e1"/><circle cx="110" cy="160" r="1.7" fill="#cbd5e1"/><circle cx="110" cy="200" r="1.7" fill="#cbd5e1"/><circle cx="110" cy="240" r="1.7" fill="#cbd5e1"/><circle cx="110" cy="280" r="1.7" fill="#cbd5e1"/><circle cx="110" cy="320" r="1.7" fill="#cbd5e1"/><circle cx="110" cy="360" r="1.7" fill="#cbd5e1"/><circle cx="110" cy="400" r="1.7" fill="#cbd5e1"/><circle cx="110" cy="440" r="1.7" fill="#cbd5e1"/><circle cx="110" cy="480" r="1.7" fill="#cbd5e1"/><circle cx="110" cy="520" r="1.7" fill="#cbd5e1"/><circle cx="110" cy="560" r="1.7" fill="#cbd5e1"/><circle cx="110" cy="600" r="1.7" fill="#cbd5e1"/><circle cx="110" cy="640" r="1.7" fill="#cbd5e1"/><circle cx="110" cy="680" r="1.7" fill="#cbd5e1"/><circle cx="110" cy="720" r="1.7" fill="#cbd5e1"/><circle cx="110" cy="760" r="1.7" fill="#cbd5e1"/><circle cx="110" cy="800" r="1.7" fill="#cbd5e1"/><circle cx="110" cy="840" r="1.7" fill="#cbd5e1"/><circle cx="150" cy="120" r="1.7" fill="#cbd5e1"/><circle cx="150" cy="160" r="1.7" fill="#cbd5e1"/><circle cx="150" cy="200" r="1.7" fill="#cbd5e1"/><circle cx="150" cy="240" r="1.7" fill="#cbd5e1"/><circle cx="150" cy="280" r="1.7" fill="#cbd5e1"/><circle cx="150" cy="320" r="1.7" fill="#cbd5e1"/><circle cx="150" cy="360" r="1.7" fill="#cbd5e1"/><circle cx="150" cy="400" r="1.7" fill="#cbd5e1"/><circle cx="150" cy="440" r="1.7" fill="#cbd5e1"/><circle cx="150" cy="480" r="1.7" fill="#cbd5e1"/><circle cx="150" cy="520" r="1.7" fill="#cbd5e1"/><circle cx="150" cy="560" r="1.7" fill="#cbd5e1"/><circle cx="150" cy="600" r="1.7" fill="#cbd5e1"/><circle cx="150" cy="640" r="1.7" fill="#cbd5e1"/><circle cx="150" cy="680" r="1.7" fill="#cbd5e1"/><circle cx="150" cy="720" r="1.7" fill="#cbd5e1"/><circle cx="150" cy="760" r="1.7" fill="#cbd5e1"/><circle cx="150" cy="800" r="1.7" fill="#cbd5e1"/><circle cx="150" cy="840" r="1.7" fill="#cbd5e1"/><circle cx="190" cy="120" r="1.7" fill="#cbd5e1"/><circle cx="190" cy="160" r="1.7" fill="#cbd5e1"/><circle cx="190" cy="200" r="1.7" fill="#cbd5e1"/><circle cx="190" cy="240" r="1.7" fill="#cbd5e1"/><circle cx="190" cy="280" r="1.7" fill="#cbd5e1"/><circle cx="190" cy="320" r="1.7" fill="#cbd5e1"/><circle cx="190" cy="360" r="1.7" fill="#cbd5e1"/><circle cx="190" cy="400" r="1.7" fill="#cbd5e1"/><circle cx="190" cy="440" r="1.7" fill="#cbd5e1"/><circle cx="190" cy="480" r="1.7" fill="#cbd5e1"/><circle cx="190" cy="520" r="1.7" fill="#cbd5e1"/><circle cx="190" cy="560" r="1.7" fill="#cbd5e1"/><circle cx="190" cy="600" r="1.7" fill="#cbd5e1"/><circle cx="190" cy="640" r="1.7" fill="#cbd5e1"/><circle cx="190" cy="680" r="1.7" fill="#cbd5e1"/><circle cx="190" cy="720" r="1.7" fill="#cbd5e1"/><circle cx="190" cy="760" r="1.7" fill="#cbd5e1"/><circle cx="190" cy="800" r="1.7" fill="#cbd5e1"/><circle cx="190" cy="840" r="1.7" fill="#cbd5e1"/><circle cx="230" cy="120" r="1.7" fill="#cbd5e1"/><circle cx="230" cy="160" r="1.7" fill="#cbd5e1"/><circle cx="230" cy="200" r="1.7" fill="#cbd5e1"/><circle cx="230" cy="240" r="1.7" fill="#cbd5e1"/><circle cx="230" cy="280" r="1.7" fill="#cbd5e1"/><circle cx="230" cy="320" r="1.7" fill="#cbd5e1"/><circle cx="230" cy="360" r="1.7" fill="#cbd5e1"/><circle cx="230" cy="400" r="1.7" fill="#cbd5e1"/><circle cx="230" cy="440" r="1.7" fill="#cbd5e1"/><circle cx="230" cy="480" r="1.7" fill="#cbd5e1"/><circle cx="230" cy="520" r="1.7" fill="#cbd5e1"/><circle cx="230" cy="560" r="1.7" fill="#cbd5e1"/><circle cx="230" cy="600" r="1.7" fill="#cbd5e1"/><circle cx="230" cy="640" r="1.7" fill="#cbd5e1"/><circle cx="230" cy="680" r="1.7" fill="#cbd5e1"/><circle cx="230" cy="720" r="1.7" fill="#cbd5e1"/><circle cx="230" cy="760" r="1.7" fill="#cbd5e1"/><circle cx="230" cy="800" r="1.7" fill="#cbd5e1"/><circle cx="230" cy="840" r="1.7" fill="#cbd5e1"/><circle cx="270" cy="120" r="1.7" fill="#cbd5e1"/><circle cx="270" cy="160" r="1.7" fill="#cbd5e1"/><circle cx="270" cy="200" r="1.7" fill="#cbd5e1"/><circle cx="270" cy="240" r="1.7" fill="#cbd5e1"/><circle cx="270" cy="280" r="1.7" fill="#cbd5e1"/><circle cx="270" cy="320" r="1.7" fill="#cbd5e1"/><circle cx="270" cy="360" r="1.7" fill="#cbd5e1"/><circle cx="270" cy="400" r="1.7" fill="#cbd5e1"/><circle cx="270" cy="440" r="1.7" fill="#cbd5e1"/><circle cx="270" cy="480" r="1.7" fill="#cbd5e1"/><circle cx="270" cy="520" r="1.7" fill="#cbd5e1"/><circle cx="270" cy="560" r="1.7" fill="#cbd5e1"/><circle cx="270" cy="600" r="1.7" fill="#cbd5e1"/><circle cx="270" cy="640" r="1.7" fill="#cbd5e1"/><circle cx="270" cy="680" r="1.7" fill="#cbd5e1"/><circle cx="270" cy="720" r="1.7" fill="#cbd5e1"/><circle cx="270" cy="760" r="1.7" fill="#cbd5e1"/><circle cx="270" cy="800" r="1.7" fill="#cbd5e1"/><circle cx="270" cy="840" r="1.7" fill="#cbd5e1"/><circle cx="310" cy="120" r="1.7" fill="#cbd5e1"/><circle cx="310" cy="160" r="1.7" fill="#cbd5e1"/><circle cx="310" cy="200" r="1.7" fill="#cbd5e1"/><circle cx="310" cy="240" r="1.7" fill="#cbd5e1"/><circle cx="310" cy="280" r="1.7" fill="#cbd5e1"/><circle cx="310" cy="320" r="1.7" fill="#cbd5e1"/><circle cx="310" cy="360" r="1.7" fill="#cbd5e1"/><circle cx="310" cy="400" r="1.7" fill="#cbd5e1"/><circle cx="310" cy="440" r="1.7" fill="#cbd5e1"/><circle cx="310" cy="480" r="1.7" fill="#cbd5e1"/><circle cx="310" cy="520" r="1.7" fill="#cbd5e1"/><circle cx="310" cy="560" r="1.7" fill="#cbd5e1"/><circle cx="310" cy="600" r="1.7" fill="#cbd5e1"/><circle cx="310" cy="640" r="1.7" fill="#cbd5e1"/><circle cx="310" cy="680" r="1.7" fill="#cbd5e1"/><circle cx="310" cy="720" r="1.7" fill="#cbd5e1"/><circle cx="310" cy="760" r="1.7" fill="#cbd5e1"/><circle cx="310" cy="800" r="1.7" fill="#cbd5e1"/><circle cx="310" cy="840" r="1.7" fill="#cbd5e1"/><circle cx="350" cy="120" r="1.7" fill="#cbd5e1"/><circle cx="350" cy="160" r="1.7" fill="#cbd5e1"/><circle cx="350" cy="200" r="1.7" fill="#cbd5e1"/><circle cx="350" cy="240" r="1.7" fill="#cbd5e1"/><circle cx="350" cy="280" r="1.7" fill="#cbd5e1"/><circle cx="350" cy="320" r="1.7" fill="#cbd5e1"/><circle cx="350" cy="360" r="1.7" fill="#cbd5e1"/><circle cx="350" cy="400" r="1.7" fill="#cbd5e1"/><circle cx="350" cy="440" r="1.7" fill="#cbd5e1"/><circle cx="350" cy="480" r="1.7" fill="#cbd5e1"/><circle cx="350" cy="520" r="1.7" fill="#cbd5e1"/><circle cx="350" cy="560" r="1.7" fill="#cbd5e1"/><circle cx="350" cy="600" r="1.7" fill="#cbd5e1"/><circle cx="350" cy="640" r="1.7" fill="#cbd5e1"/><circle cx="350" cy="680" r="1.7" fill="#cbd5e1"/><circle cx="350" cy="720" r="1.7" fill="#cbd5e1"/><circle cx="350" cy="760" r="1.7" fill="#cbd5e1"/><circle cx="350" cy="800" r="1.7" fill="#cbd5e1"/><circle cx="350" cy="840" r="1.7" fill="#cbd5e1"/><circle cx="390" cy="120" r="1.7" fill="#cbd5e1"/><circle cx="390" cy="160" r="1.7" fill="#cbd5e1"/><circle cx="390" cy="200" r="1.7" fill="#cbd5e1"/><circle cx="390" cy="240" r="1.7" fill="#cbd5e1"/><circle cx="390" cy="280" r="1.7" fill="#cbd5e1"/><circle cx="390" cy="320" r="1.7" fill="#cbd5e1"/><circle cx="390" cy="360" r="1.7" fill="#cbd5e1"/><circle cx="390" cy="400" r="1.7" fill="#cbd5e1"/><circle cx="390" cy="440" r="1.7" fill="#cbd5e1"/><circle cx="390" cy="480" r="1.7" fill="#cbd5e1"/><circle cx="390" cy="520" r="1.7" fill="#cbd5e1"/><circle cx="390" cy="560" r="1.7" fill="#cbd5e1"/><circle cx="390" cy="600" r="1.7" fill="#cbd5e1"/><circle cx="390" cy="640" r="1.7" fill="#cbd5e1"/><circle cx="390" cy="680" r="1.7" fill="#cbd5e1"/><circle cx="390" cy="720" r="1.7" fill="#cbd5e1"/><circle cx="390" cy="760" r="1.7" fill="#cbd5e1"/><circle cx="390" cy="800" r="1.7" fill="#cbd5e1"/><circle cx="390" cy="840" r="1.7" fill="#cbd5e1"/><circle cx="430" cy="120" r="1.7" fill="#cbd5e1"/><circle cx="430" cy="160" r="1.7" fill="#cbd5e1"/><circle cx="430" cy="200" r="1.7" fill="#cbd5e1"/><circle cx="430" cy="240" r="1.7" fill="#cbd5e1"/><circle cx="430" cy="280" r="1.7" fill="#cbd5e1"/><circle cx="430" cy="320" r="1.7" fill="#cbd5e1"/><circle cx="430" cy="360" r="1.7" fill="#cbd5e1"/><circle cx="430" cy="400" r="1.7" fill="#cbd5e1"/><circle cx="430" cy="440" r="1.7" fill="#cbd5e1"/><circle cx="430" cy="480" r="1.7" fill="#cbd5e1"/><circle cx="430" cy="520" r="1.7" fill="#cbd5e1"/><circle cx="430" cy="560" r="1.7" fill="#cbd5e1"/><circle cx="430" cy="600" r="1.7" fill="#cbd5e1"/><circle cx="430" cy="640" r="1.7" fill="#cbd5e1"/><circle cx="430" cy="680" r="1.7" fill="#cbd5e1"/><circle cx="430" cy="720" r="1.7" fill="#cbd5e1"/><circle cx="430" cy="760" r="1.7" fill="#cbd5e1"/><circle cx="430" cy="800" r="1.7" fill="#cbd5e1"/><circle cx="430" cy="840" r="1.7" fill="#cbd5e1"/><circle cx="470" cy="120" r="1.7" fill="#cbd5e1"/><circle cx="470" cy="160" r="1.7" fill="#cbd5e1"/><circle cx="470" cy="200" r="1.7" fill="#cbd5e1"/><circle cx="470" cy="240" r="1.7" fill="#cbd5e1"/><circle cx="470" cy="280" r="1.7" fill="#cbd5e1"/><circle cx="470" cy="320" r="1.7" fill="#cbd5e1"/><circle cx="470" cy="360" r="1.7" fill="#cbd5e1"/><circle cx="470" cy="400" r="1.7" fill="#cbd5e1"/><circle cx="470" cy="440" r="1.7" fill="#cbd5e1"/><circle cx="470" cy="480" r="1.7" fill="#cbd5e1"/><circle cx="470" cy="520" r="1.7" fill="#cbd5e1"/><circle cx="470" cy="560" r="1.7" fill="#cbd5e1"/><circle cx="470" cy="600" r="1.7" fill="#cbd5e1"/><circle cx="470" cy="640" r="1.7" fill="#cbd5e1"/><circle cx="470" cy="680" r="1.7" fill="#cbd5e1"/><circle cx="470" cy="720" r="1.7" fill="#cbd5e1"/><circle cx="470" cy="760" r="1.7" fill="#cbd5e1"/><circle cx="470" cy="800" r="1.7" fill="#cbd5e1"/><circle cx="470" cy="840" r="1.7" fill="#cbd5e1"/><circle cx="510" cy="120" r="1.7" fill="#cbd5e1"/><circle cx="510" cy="160" r="1.7" fill="#cbd5e1"/><circle cx="510" cy="200" r="1.7" fill="#cbd5e1"/><circle cx="510" cy="240" r="1.7" fill="#cbd5e1"/><circle cx="510" cy="280" r="1.7" fill="#cbd5e1"/><circle cx="510" cy="320" r="1.7" fill="#cbd5e1"/><circle cx="510" cy="360" r="1.7" fill="#cbd5e1"/><circle cx="510" cy="400" r="1.7" fill="#cbd5e1"/><circle cx="510" cy="440" r="1.7" fill="#cbd5e1"/><circle cx="510" cy="480" r="1.7" fill="#cbd5e1"/><circle cx="510" cy="520" r="1.7" fill="#cbd5e1"/><circle cx="510" cy="560" r="1.7" fill="#cbd5e1"/><circle cx="510" cy="600" r="1.7" fill="#cbd5e1"/><circle cx="510" cy="640" r="1.7" fill="#cbd5e1"/><circle cx="510" cy="680" r="1.7" fill="#cbd5e1"/><circle cx="510" cy="720" r="1.7" fill="#cbd5e1"/><circle cx="510" cy="760" r="1.7" fill="#cbd5e1"/><circle cx="510" cy="800" r="1.7" fill="#cbd5e1"/><circle cx="510" cy="840" r="1.7" fill="#cbd5e1"/><circle cx="550" cy="120" r="1.7" fill="#cbd5e1"/><circle cx="550" cy="160" r="1.7" fill="#cbd5e1"/><circle cx="550" cy="200" r="1.7" fill="#cbd5e1"/><circle cx="550" cy="240" r="1.7" fill="#cbd5e1"/><circle cx="550" cy="280" r="1.7" fill="#cbd5e1"/><circle cx="550" cy="320" r="1.7" fill="#cbd5e1"/><circle cx="550" cy="360" r="1.7" fill="#cbd5e1"/><circle cx="550" cy="400" r="1.7" fill="#cbd5e1"/><circle cx="550" cy="440" r="1.7" fill="#cbd5e1"/><circle cx="550" cy="480" r="1.7" fill="#cbd5e1"/><circle cx="550" cy="520" r="1.7" fill="#cbd5e1"/><circle cx="550" cy="560" r="1.7" fill="#cbd5e1"/><circle cx="550" cy="600" r="1.7" fill="#cbd5e1"/><circle cx="550" cy="640" r="1.7" fill="#cbd5e1"/><circle cx="550" cy="680" r="1.7" fill="#cbd5e1"/><circle cx="550" cy="720" r="1.7" fill="#cbd5e1"/><circle cx="550" cy="760" r="1.7" fill="#cbd5e1"/><circle cx="550" cy="800" r="1.7" fill="#cbd5e1"/><circle cx="550" cy="840" r="1.7" fill="#cbd5e1"/><circle cx="590" cy="120" r="1.7" fill="#cbd5e1"/><circle cx="590" cy="160" r="1.7" fill="#cbd5e1"/><circle cx="590" cy="200" r="1.7" fill="#cbd5e1"/><circle cx="590" cy="240" r="1.7" fill="#cbd5e1"/><circle cx="590" cy="280" r="1.7" fill="#cbd5e1"/><circle cx="590" cy="320" r="1.7" fill="#cbd5e1"/><circle cx="590" cy="360" r="1.7" fill="#cbd5e1"/><circle cx="590" cy="400" r="1.7" fill="#cbd5e1"/><circle cx="590" cy="440" r="1.7" fill="#cbd5e1"/><circle cx="590" cy="480" r="1.7" fill="#cbd5e1"/><circle cx="590" cy="520" r="1.7" fill="#cbd5e1"/><circle cx="590" cy="560" r="1.7" fill="#cbd5e1"/><circle cx="590" cy="600" r="1.7" fill="#cbd5e1"/><circle cx="590" cy="640" r="1.7" fill="#cbd5e1"/><circle cx="590" cy="680" r="1.7" fill="#cbd5e1"/><circle cx="590" cy="720" r="1.7" fill="#cbd5e1"/><circle cx="590" cy="760" r="1.7" fill="#cbd5e1"/><circle cx="590" cy="800" r="1.7" fill="#cbd5e1"/><circle cx="590" cy="840" r="1.7" fill="#cbd5e1"/><circle cx="630" cy="120" r="1.7" fill="#cbd5e1"/><circle cx="630" cy="160" r="1.7" fill="#cbd5e1"/><circle cx="630" cy="200" r="1.7" fill="#cbd5e1"/><circle cx="630" cy="240" r="1.7" fill="#cbd5e1"/><circle cx="630" cy="280" r="1.7" fill="#cbd5e1"/><circle cx="630" cy="320" r="1.7" fill="#cbd5e1"/><circle cx="630" cy="360" r="1.7" fill="#cbd5e1"/><circle cx="630" cy="400" r="1.7" fill="#cbd5e1"/><circle cx="630" cy="440" r="1.7" fill="#cbd5e1"/><circle cx="630" cy="480" r="1.7" fill="#cbd5e1"/><circle cx="630" cy="520" r="1.7" fill="#cbd5e1"/><circle cx="630" cy="560" r="1.7" fill="#cbd5e1"/><circle cx="630" cy="600" r="1.7" fill="#cbd5e1"/><circle cx="630" cy="640" r="1.7" fill="#cbd5e1"/><circle cx="630" cy="680" r="1.7" fill="#cbd5e1"/><circle cx="630" cy="720" r="1.7" fill="#cbd5e1"/><circle cx="630" cy="760" r="1.7" fill="#cbd5e1"/><circle cx="630" cy="800" r="1.7" fill="#cbd5e1"/><circle cx="630" cy="840" r="1.7" fill="#cbd5e1"/><circle cx="670" cy="120" r="1.7" fill="#cbd5e1"/><circle cx="670" cy="160" r="1.7" fill="#cbd5e1"/><circle cx="670" cy="200" r="1.7" fill="#cbd5e1"/><circle cx="670" cy="240" r="1.7" fill="#cbd5e1"/><circle cx="670" cy="280" r="1.7" fill="#cbd5e1"/><circle cx="670" cy="320" r="1.7" fill="#cbd5e1"/><circle cx="670" cy="360" r="1.7" fill="#cbd5e1"/><circle cx="670" cy="400" r="1.7" fill="#cbd5e1"/><circle cx="670" cy="440" r="1.7" fill="#cbd5e1"/><circle cx="670" cy="480" r="1.7" fill="#cbd5e1"/><circle cx="670" cy="520" r="1.7" fill="#cbd5e1"/><circle cx="670" cy="560" r="1.7" fill="#cbd5e1"/><circle cx="670" cy="600" r="1.7" fill="#cbd5e1"/><circle cx="670" cy="640" r="1.7" fill="#cbd5e1"/><circle cx="670" cy="680" r="1.7" fill="#cbd5e1"/><circle cx="670" cy="720" r="1.7" fill="#cbd5e1"/><circle cx="670" cy="760" r="1.7" fill="#cbd5e1"/><circle cx="670" cy="800" r="1.7" fill="#cbd5e1"/><circle cx="670" cy="840" r="1.7" fill="#cbd5e1"/><circle cx="710" cy="120" r="1.7" fill="#cbd5e1"/><circle cx="710" cy="160" r="1.7" fill="#cbd5e1"/><circle cx="710" cy="200" r="1.7" fill="#cbd5e1"/><circle cx="710" cy="240" r="1.7" fill="#cbd5e1"/><circle cx="710" cy="280" r="1.7" fill="#cbd5e1"/><circle cx="710" cy="320" r="1.7" fill="#cbd5e1"/><circle cx="710" cy="360" r="1.7" fill="#cbd5e1"/><circle cx="710" cy="400" r="1.7" fill="#cbd5e1"/><circle cx="710" cy="440" r="1.7" fill="#cbd5e1"/><circle cx="710" cy="480" r="1.7" fill="#cbd5e1"/><circle cx="710" cy="520" r="1.7" fill="#cbd5e1"/><circle cx="710" cy="560" r="1.7" fill="#cbd5e1"/><circle cx="710" cy="600" r="1.7" fill="#cbd5e1"/><circle cx="710" cy="640" r="1.7" fill="#cbd5e1"/><circle cx="710" cy="680" r="1.7" fill="#cbd5e1"/><circle cx="710" cy="720" r="1.7" fill="#cbd5e1"/><circle cx="710" cy="760" r="1.7" fill="#cbd5e1"/><circle cx="710" cy="800" r="1.7" fill="#cbd5e1"/><circle cx="710" cy="840" r="1.7" fill="#cbd5e1"/><circle cx="750" cy="120" r="1.7" fill="#cbd5e1"/><circle cx="750" cy="160" r="1.7" fill="#cbd5e1"/><circle cx="750" cy="200" r="1.7" fill="#cbd5e1"/><circle cx="750" cy="240" r="1.7" fill="#cbd5e1"/><circle cx="750" cy="280" r="1.7" fill="#cbd5e1"/><circle cx="750" cy="320" r="1.7" fill="#cbd5e1"/><circle cx="750" cy="360" r="1.7" fill="#cbd5e1"/><circle cx="750" cy="400" r="1.7" fill="#cbd5e1"/><circle cx="750" cy="440" r="1.7" fill="#cbd5e1"/><circle cx="750" cy="480" r="1.7" fill="#cbd5e1"/><circle cx="750" cy="520" r="1.7" fill="#cbd5e1"/><circle cx="750" cy="560" r="1.7" fill="#cbd5e1"/><circle cx="750" cy="600" r="1.7" fill="#cbd5e1"/><circle cx="750" cy="640" r="1.7" fill="#cbd5e1"/><circle cx="750" cy="680" r="1.7" fill="#cbd5e1"/><circle cx="750" cy="720" r="1.7" fill="#cbd5e1"/><circle cx="750" cy="760" r="1.7" fill="#cbd5e1"/><circle cx="750" cy="800" r="1.7" fill="#cbd5e1"/><circle cx="750" cy="840" r="1.7" fill="#cbd5e1"/><circle cx="790" cy="120" r="1.7" fill="#cbd5e1"/><circle cx="790" cy="160" r="1.7" fill="#cbd5e1"/><circle cx="790" cy="200" r="1.7" fill="#cbd5e1"/><circle cx="790" cy="240" r="1.7" fill="#cbd5e1"/><circle cx="790" cy="280" r="1.7" fill="#cbd5e1"/><circle cx="790" cy="320" r="1.7" fill="#cbd5e1"/><circle cx="790" cy="360" r="1.7" fill="#cbd5e1"/><circle cx="790" cy="400" r="1.7" fill="#cbd5e1"/><circle cx="790" cy="440" r="1.7" fill="#cbd5e1"/><circle cx="790" cy="480" r="1.7" fill="#cbd5e1"/><circle cx="790" cy="520" r="1.7" fill="#cbd5e1"/><circle cx="790" cy="560" r="1.7" fill="#cbd5e1"/><circle cx="790" cy="600" r="1.7" fill="#cbd5e1"/><circle cx="790" cy="640" r="1.7" fill="#cbd5e1"/><circle cx="790" cy="680" r="1.7" fill="#cbd5e1"/><circle cx="790" cy="720" r="1.7" fill="#cbd5e1"/><circle cx="790" cy="760" r="1.7" fill="#cbd5e1"/><circle cx="790" cy="800" r="1.7" fill="#cbd5e1"/><circle cx="790" cy="840" r="1.7" fill="#cbd5e1"/><circle cx="830" cy="120" r="1.7" fill="#cbd5e1"/><circle cx="830" cy="160" r="1.7" fill="#cbd5e1"/><circle cx="830" cy="200" r="1.7" fill="#cbd5e1"/><circle cx="830" cy="240" r="1.7" fill="#cbd5e1"/><circle cx="830" cy="280" r="1.7" fill="#cbd5e1"/><circle cx="830" cy="320" r="1.7" fill="#cbd5e1"/><circle cx="830" cy="360" r="1.7" fill="#cbd5e1"/><circle cx="830" cy="400" r="1.7" fill="#cbd5e1"/><circle cx="830" cy="440" r="1.7" fill="#cbd5e1"/><circle cx="830" cy="480" r="1.7" fill="#cbd5e1"/><circle cx="830" cy="520" r="1.7" fill="#cbd5e1"/><circle cx="830" cy="560" r="1.7" fill="#cbd5e1"/><circle cx="830" cy="600" r="1.7" fill="#cbd5e1"/><circle cx="830" cy="640" r="1.7" fill="#cbd5e1"/><circle cx="830" cy="680" r="1.7" fill="#cbd5e1"/><circle cx="830" cy="720" r="1.7" fill="#cbd5e1"/><circle cx="830" cy="760" r="1.7" fill="#cbd5e1"/><circle cx="830" cy="800" r="1.7" fill="#cbd5e1"/><circle cx="830" cy="840" r="1.7" fill="#cbd5e1"/><circle cx="870" cy="120" r="1.7" fill="#cbd5e1"/><circle cx="870" cy="160" r="1.7" fill="#cbd5e1"/><circle cx="870" cy="200" r="1.7" fill="#cbd5e1"/><circle cx="870" cy="240" r="1.7" fill="#cbd5e1"/><circle cx="870" cy="280" r="1.7" fill="#cbd5e1"/><circle cx="870" cy="320" r="1.7" fill="#cbd5e1"/><circle cx="870" cy="360" r="1.7" fill="#cbd5e1"/><circle cx="870" cy="400" r="1.7" fill="#cbd5e1"/><circle cx="870" cy="440" r="1.7" fill="#cbd5e1"/><circle cx="870" cy="480" r="1.7" fill="#cbd5e1"/><circle cx="870" cy="520" r="1.7" fill="#cbd5e1"/><circle cx="870" cy="560" r="1.7" fill="#cbd5e1"/><circle cx="870" cy="600" r="1.7" fill="#cbd5e1"/><circle cx="870" cy="640" r="1.7" fill="#cbd5e1"/><circle cx="870" cy="680" r="1.7" fill="#cbd5e1"/><circle cx="870" cy="720" r="1.7" fill="#cbd5e1"/><circle cx="870" cy="760" r="1.7" fill="#cbd5e1"/><circle cx="870" cy="800" r="1.7" fill="#cbd5e1"/><circle cx="870" cy="840" r="1.7" fill="#cbd5e1"/><circle cx="910" cy="120" r="1.7" fill="#cbd5e1"/><circle cx="910" cy="160" r="1.7" fill="#cbd5e1"/><circle cx="910" cy="200" r="1.7" fill="#cbd5e1"/><circle cx="910" cy="240" r="1.7" fill="#cbd5e1"/><circle cx="910" cy="280" r="1.7" fill="#cbd5e1"/><circle cx="910" cy="320" r="1.7" fill="#cbd5e1"/><circle cx="910" cy="360" r="1.7" fill="#cbd5e1"/><circle cx="910" cy="400" r="1.7" fill="#cbd5e1"/><circle cx="910" cy="440" r="1.7" fill="#cbd5e1"/><circle cx="910" cy="480" r="1.7" fill="#cbd5e1"/><circle cx="910" cy="520" r="1.7" fill="#cbd5e1"/><circle cx="910" cy="560" r="1.7" fill="#cbd5e1"/><circle cx="910" cy="600" r="1.7" fill="#cbd5e1"/><circle cx="910" cy="640" r="1.7" fill="#cbd5e1"/><circle cx="910" cy="680" r="1.7" fill="#cbd5e1"/><circle cx="910" cy="720" r="1.7" fill="#cbd5e1"/><circle cx="910" cy="760" r="1.7" fill="#cbd5e1"/><circle cx="910" cy="800" r="1.7" fill="#cbd5e1"/><circle cx="910" cy="840" r="1.7" fill="#cbd5e1"/><circle cx="950" cy="120" r="1.7" fill="#cbd5e1"/><circle cx="950" cy="160" r="1.7" fill="#cbd5e1"/><circle cx="950" cy="200" r="1.7" fill="#cbd5e1"/><circle cx="950" cy="240" r="1.7" fill="#cbd5e1"/><circle cx="950" cy="280" r="1.7" fill="#cbd5e1"/><circle cx="950" cy="320" r="1.7" fill="#cbd5e1"/><circle cx="950" cy="360" r="1.7" fill="#cbd5e1"/><circle cx="950" cy="400" r="1.7" fill="#cbd5e1"/><circle cx="950" cy="440" r="1.7" fill="#cbd5e1"/><circle cx="950" cy="480" r="1.7" fill="#cbd5e1"/><circle cx="950" cy="520" r="1.7" fill="#cbd5e1"/><circle cx="950" cy="560" r="1.7" fill="#cbd5e1"/><circle cx="950" cy="600" r="1.7" fill="#cbd5e1"/><circle cx="950" cy="640" r="1.7" fill="#cbd5e1"/><circle cx="950" cy="680" r="1.7" fill="#cbd5e1"/><circle cx="950" cy="720" r="1.7" fill="#cbd5e1"/><circle cx="950" cy="760" r="1.7" fill="#cbd5e1"/><circle cx="950" cy="800" r="1.7" fill="#cbd5e1"/><circle cx="950" cy="840" r="1.7" fill="#cbd5e1"/><circle cx="990" cy="120" r="1.7" fill="#cbd5e1"/><circle cx="990" cy="160" r="1.7" fill="#cbd5e1"/><circle cx="990" cy="200" r="1.7" fill="#cbd5e1"/><circle cx="990" cy="240" r="1.7" fill="#cbd5e1"/><circle cx="990" cy="280" r="1.7" fill="#cbd5e1"/><circle cx="990" cy="320" r="1.7" fill="#cbd5e1"/><circle cx="990" cy="360" r="1.7" fill="#cbd5e1"/><circle cx="990" cy="400" r="1.7" fill="#cbd5e1"/><circle cx="990" cy="440" r="1.7" fill="#cbd5e1"/><circle cx="990" cy="480" r="1.7" fill="#cbd5e1"/><circle cx="990" cy="520" r="1.7" fill="#cbd5e1"/><circle cx="990" cy="560" r="1.7" fill="#cbd5e1"/><circle cx="990" cy="600" r="1.7" fill="#cbd5e1"/><circle cx="990" cy="640" r="1.7" fill="#cbd5e1"/><circle cx="990" cy="680" r="1.7" fill="#cbd5e1"/><circle cx="990" cy="720" r="1.7" fill="#cbd5e1"/><circle cx="990" cy="760" r="1.7" fill="#cbd5e1"/><circle cx="990" cy="800" r="1.7" fill="#cbd5e1"/><circle cx="990" cy="840" r="1.7" fill="#cbd5e1"/><circle cx="1030" cy="120" r="1.7" fill="#cbd5e1"/><circle cx="1030" cy="160" r="1.7" fill="#cbd5e1"/><circle cx="1030" cy="200" r="1.7" fill="#cbd5e1"/><circle cx="1030" cy="240" r="1.7" fill="#cbd5e1"/><circle cx="1030" cy="280" r="1.7" fill="#cbd5e1"/><circle cx="1030" cy="320" r="1.7" fill="#cbd5e1"/><circle cx="1030" cy="360" r="1.7" fill="#cbd5e1"/><circle cx="1030" cy="400" r="1.7" fill="#cbd5e1"/><circle cx="1030" cy="440" r="1.7" fill="#cbd5e1"/><circle cx="1030" cy="480" r="1.7" fill="#cbd5e1"/><circle cx="1030" cy="520" r="1.7" fill="#cbd5e1"/><circle cx="1030" cy="560" r="1.7" fill="#cbd5e1"/><circle cx="1030" cy="600" r="1.7" fill="#cbd5e1"/><circle cx="1030" cy="640" r="1.7" fill="#cbd5e1"/><circle cx="1030" cy="680" r="1.7" fill="#cbd5e1"/><circle cx="1030" cy="720" r="1.7" fill="#cbd5e1"/><circle cx="1030" cy="760" r="1.7" fill="#cbd5e1"/><circle cx="1030" cy="800" r="1.7" fill="#cbd5e1"/><circle cx="1030" cy="840" r="1.7" fill="#cbd5e1"/><circle cx="1070" cy="120" r="1.7" fill="#cbd5e1"/><circle cx="1070" cy="160" r="1.7" fill="#cbd5e1"/><circle cx="1070" cy="200" r="1.7" fill="#cbd5e1"/><circle cx="1070" cy="240" r="1.7" fill="#cbd5e1"/><circle cx="1070" cy="280" r="1.7" fill="#cbd5e1"/><circle cx="1070" cy="320" r="1.7" fill="#cbd5e1"/><circle cx="1070" cy="360" r="1.7" fill="#cbd5e1"/><circle cx="1070" cy="400" r="1.7" fill="#cbd5e1"/><circle cx="1070" cy="440" r="1.7" fill="#cbd5e1"/><circle cx="1070" cy="480" r="1.7" fill="#cbd5e1"/><circle cx="1070" cy="520" r="1.7" fill="#cbd5e1"/><circle cx="1070" cy="560" r="1.7" fill="#cbd5e1"/><circle cx="1070" cy="600" r="1.7" fill="#cbd5e1"/><circle cx="1070" cy="640" r="1.7" fill="#cbd5e1"/><circle cx="1070" cy="680" r="1.7" fill="#cbd5e1"/><circle cx="1070" cy="720" r="1.7" fill="#cbd5e1"/><circle cx="1070" cy="760" r="1.7" fill="#cbd5e1"/><circle cx="1070" cy="800" r="1.7" fill="#cbd5e1"/><circle cx="1070" cy="840" r="1.7" fill="#cbd5e1"/><circle cx="1110" cy="120" r="1.7" fill="#cbd5e1"/><circle cx="1110" cy="160" r="1.7" fill="#cbd5e1"/><circle cx="1110" cy="200" r="1.7" fill="#cbd5e1"/><circle cx="1110" cy="240" r="1.7" fill="#cbd5e1"/><circle cx="1110" cy="280" r="1.7" fill="#cbd5e1"/><circle cx="1110" cy="320" r="1.7" fill="#cbd5e1"/><circle cx="1110" cy="360" r="1.7" fill="#cbd5e1"/><circle cx="1110" cy="400" r="1.7" fill="#cbd5e1"/><circle cx="1110" cy="440" r="1.7" fill="#cbd5e1"/><circle cx="1110" cy="480" r="1.7" fill="#cbd5e1"/><circle cx="1110" cy="520" r="1.7" fill="#cbd5e1"/><circle cx="1110" cy="560" r="1.7" fill="#cbd5e1"/><circle cx="1110" cy="600" r="1.7" fill="#cbd5e1"/><circle cx="1110" cy="640" r="1.7" fill="#cbd5e1"/><circle cx="1110" cy="680" r="1.7" fill="#cbd5e1"/><circle cx="1110" cy="720" r="1.7" fill="#cbd5e1"/><circle cx="1110" cy="760" r="1.7" fill="#cbd5e1"/><circle cx="1110" cy="800" r="1.7" fill="#cbd5e1"/><circle cx="1110" cy="840" r="1.7" fill="#cbd5e1"/><circle cx="1150" cy="120" r="1.7" fill="#cbd5e1"/><circle cx="1150" cy="160" r="1.7" fill="#cbd5e1"/><circle cx="1150" cy="200" r="1.7" fill="#cbd5e1"/><circle cx="1150" cy="240" r="1.7" fill="#cbd5e1"/><circle cx="1150" cy="280" r="1.7" fill="#cbd5e1"/><circle cx="1150" cy="320" r="1.7" fill="#cbd5e1"/><circle cx="1150" cy="360" r="1.7" fill="#cbd5e1"/><circle cx="1150" cy="400" r="1.7" fill="#cbd5e1"/><circle cx="1150" cy="440" r="1.7" fill="#cbd5e1"/><circle cx="1150" cy="480" r="1.7" fill="#cbd5e1"/><circle cx="1150" cy="520" r="1.7" fill="#cbd5e1"/><circle cx="1150" cy="560" r="1.7" fill="#cbd5e1"/><circle cx="1150" cy="600" r="1.7" fill="#cbd5e1"/><circle cx="1150" cy="640" r="1.7" fill="#cbd5e1"/><circle cx="1150" cy="680" r="1.7" fill="#cbd5e1"/><circle cx="1150" cy="720" r="1.7" fill="#cbd5e1"/><circle cx="1150" cy="760" r="1.7" fill="#cbd5e1"/><circle cx="1150" cy="800" r="1.7" fill="#cbd5e1"/><circle cx="1150" cy="840" r="1.7" fill="#cbd5e1"/><circle cx="1190" cy="120" r="1.7" fill="#cbd5e1"/><circle cx="1190" cy="160" r="1.7" fill="#cbd5e1"/><circle cx="1190" cy="200" r="1.7" fill="#cbd5e1"/><circle cx="1190" cy="240" r="1.7" fill="#cbd5e1"/><circle cx="1190" cy="280" r="1.7" fill="#cbd5e1"/><circle cx="1190" cy="320" r="1.7" fill="#cbd5e1"/><circle cx="1190" cy="360" r="1.7" fill="#cbd5e1"/><circle cx="1190" cy="400" r="1.7" fill="#cbd5e1"/><circle cx="1190" cy="440" r="1.7" fill="#cbd5e1"/><circle cx="1190" cy="480" r="1.7" fill="#cbd5e1"/><circle cx="1190" cy="520" r="1.7" fill="#cbd5e1"/><circle cx="1190" cy="560" r="1.7" fill="#cbd5e1"/><circle cx="1190" cy="600" r="1.7" fill="#cbd5e1"/><circle cx="1190" cy="640" r="1.7" fill="#cbd5e1"/><circle cx="1190" cy="680" r="1.7" fill="#cbd5e1"/><circle cx="1190" cy="720" r="1.7" fill="#cbd5e1"/><circle cx="1190" cy="760" r="1.7" fill="#cbd5e1"/><circle cx="1190" cy="800" r="1.7" fill="#cbd5e1"/><circle cx="1190" cy="840" r="1.7" fill="#cbd5e1"/><circle cx="1230" cy="120" r="1.7" fill="#cbd5e1"/><circle cx="1230" cy="160" r="1.7" fill="#cbd5e1"/><circle cx="1230" cy="200" r="1.7" fill="#cbd5e1"/><circle cx="1230" cy="240" r="1.7" fill="#cbd5e1"/><circle cx="1230" cy="280" r="1.7" fill="#cbd5e1"/><circle cx="1230" cy="320" r="1.7" fill="#cbd5e1"/><circle cx="1230" cy="360" r="1.7" fill="#cbd5e1"/><circle cx="1230" cy="400" r="1.7" fill="#cbd5e1"/><circle cx="1230" cy="440" r="1.7" fill="#cbd5e1"/><circle cx="1230" cy="480" r="1.7" fill="#cbd5e1"/><circle cx="1230" cy="520" r="1.7" fill="#cbd5e1"/><circle cx="1230" cy="560" r="1.7" fill="#cbd5e1"/><circle cx="1230" cy="600" r="1.7" fill="#cbd5e1"/><circle cx="1230" cy="640" r="1.7" fill="#cbd5e1"/><circle cx="1230" cy="680" r="1.7" fill="#cbd5e1"/><circle cx="1230" cy="720" r="1.7" fill="#cbd5e1"/><circle cx="1230" cy="760" r="1.7" fill="#cbd5e1"/><circle cx="1230" cy="800" r="1.7" fill="#cbd5e1"/><circle cx="1230" cy="840" r="1.7" fill="#cbd5e1"/><circle cx="1270" cy="120" r="1.7" fill="#cbd5e1"/><circle cx="1270" cy="160" r="1.7" fill="#cbd5e1"/><circle cx="1270" cy="200" r="1.7" fill="#cbd5e1"/><circle cx="1270" cy="240" r="1.7" fill="#cbd5e1"/><circle cx="1270" cy="280" r="1.7" fill="#cbd5e1"/><circle cx="1270" cy="320" r="1.7" fill="#cbd5e1"/><circle cx="1270" cy="360" r="1.7" fill="#cbd5e1"/><circle cx="1270" cy="400" r="1.7" fill="#cbd5e1"/><circle cx="1270" cy="440" r="1.7" fill="#cbd5e1"/><circle cx="1270" cy="480" r="1.7" fill="#cbd5e1"/><circle cx="1270" cy="520" r="1.7" fill="#cbd5e1"/><circle cx="1270" cy="560" r="1.7" fill="#cbd5e1"/><circle cx="1270" cy="600" r="1.7" fill="#cbd5e1"/><circle cx="1270" cy="640" r="1.7" fill="#cbd5e1"/><circle cx="1270" cy="680" r="1.7" fill="#cbd5e1"/><circle cx="1270" cy="720" r="1.7" fill="#cbd5e1"/><circle cx="1270" cy="760" r="1.7" fill="#cbd5e1"/><circle cx="1270" cy="800" r="1.7" fill="#cbd5e1"/><circle cx="1270" cy="840" r="1.7" fill="#cbd5e1"/><circle cx="1310" cy="120" r="1.7" fill="#cbd5e1"/><circle cx="1310" cy="160" r="1.7" fill="#cbd5e1"/><circle cx="1310" cy="200" r="1.7" fill="#cbd5e1"/><circle cx="1310" cy="240" r="1.7" fill="#cbd5e1"/><circle cx="1310" cy="280" r="1.7" fill="#cbd5e1"/><circle cx="1310" cy="320" r="1.7" fill="#cbd5e1"/><circle cx="1310" cy="360" r="1.7" fill="#cbd5e1"/><circle cx="1310" cy="400" r="1.7" fill="#cbd5e1"/><circle cx="1310" cy="440" r="1.7" fill="#cbd5e1"/><circle cx="1310" cy="480" r="1.7" fill="#cbd5e1"/><circle cx="1310" cy="520" r="1.7" fill="#cbd5e1"/><circle cx="1310" cy="560" r="1.7" fill="#cbd5e1"/><circle cx="1310" cy="600" r="1.7" fill="#cbd5e1"/><circle cx="1310" cy="640" r="1.7" fill="#cbd5e1"/><circle cx="1310" cy="680" r="1.7" fill="#cbd5e1"/><circle cx="1310" cy="720" r="1.7" fill="#cbd5e1"/><circle cx="1310" cy="760" r="1.7" fill="#cbd5e1"/><circle cx="1310" cy="800" r="1.7" fill="#cbd5e1"/><circle cx="1310" cy="840" r="1.7" fill="#cbd5e1"/><circle cx="1350" cy="120" r="1.7" fill="#cbd5e1"/><circle cx="1350" cy="160" r="1.7" fill="#cbd5e1"/><circle cx="1350" cy="200" r="1.7" fill="#cbd5e1"/><circle cx="1350" cy="240" r="1.7" fill="#cbd5e1"/><circle cx="1350" cy="280" r="1.7" fill="#cbd5e1"/><circle cx="1350" cy="320" r="1.7" fill="#cbd5e1"/><circle cx="1350" cy="360" r="1.7" fill="#cbd5e1"/><circle cx="1350" cy="400" r="1.7" fill="#cbd5e1"/><circle cx="1350" cy="440" r="1.7" fill="#cbd5e1"/><circle cx="1350" cy="480" r="1.7" fill="#cbd5e1"/><circle cx="1350" cy="520" r="1.7" fill="#cbd5e1"/><circle cx="1350" cy="560" r="1.7" fill="#cbd5e1"/><circle cx="1350" cy="600" r="1.7" fill="#cbd5e1"/><circle cx="1350" cy="640" r="1.7" fill="#cbd5e1"/><circle cx="1350" cy="680" r="1.7" fill="#cbd5e1"/><circle cx="1350" cy="720" r="1.7" fill="#cbd5e1"/><circle cx="1350" cy="760" r="1.7" fill="#cbd5e1"/><circle cx="1350" cy="800" r="1.7" fill="#cbd5e1"/><circle cx="1350" cy="840" r="1.7" fill="#cbd5e1"/><circle cx="1390" cy="120" r="1.7" fill="#cbd5e1"/><circle cx="1390" cy="160" r="1.7" fill="#cbd5e1"/><circle cx="1390" cy="200" r="1.7" fill="#cbd5e1"/><circle cx="1390" cy="240" r="1.7" fill="#cbd5e1"/><circle cx="1390" cy="280" r="1.7" fill="#cbd5e1"/><circle cx="1390" cy="320" r="1.7" fill="#cbd5e1"/><circle cx="1390" cy="360" r="1.7" fill="#cbd5e1"/><circle cx="1390" cy="400" r="1.7" fill="#cbd5e1"/><circle cx="1390" cy="440" r="1.7" fill="#cbd5e1"/><circle cx="1390" cy="480" r="1.7" fill="#cbd5e1"/><circle cx="1390" cy="520" r="1.7" fill="#cbd5e1"/><circle cx="1390" cy="560" r="1.7" fill="#cbd5e1"/><circle cx="1390" cy="600" r="1.7" fill="#cbd5e1"/><circle cx="1390" cy="640" r="1.7" fill="#cbd5e1"/><circle cx="1390" cy="680" r="1.7" fill="#cbd5e1"/><circle cx="1390" cy="720" r="1.7" fill="#cbd5e1"/><circle cx="1390" cy="760" r="1.7" fill="#cbd5e1"/><circle cx="1390" cy="800" r="1.7" fill="#cbd5e1"/><circle cx="1390" cy="840" r="1.7" fill="#cbd5e1"/><circle cx="1430" cy="120" r="1.7" fill="#cbd5e1"/><circle cx="1430" cy="160" r="1.7" fill="#cbd5e1"/><circle cx="1430" cy="200" r="1.7" fill="#cbd5e1"/><circle cx="1430" cy="240" r="1.7" fill="#cbd5e1"/><circle cx="1430" cy="280" r="1.7" fill="#cbd5e1"/><circle cx="1430" cy="320" r="1.7" fill="#cbd5e1"/><circle cx="1430" cy="360" r="1.7" fill="#cbd5e1"/><circle cx="1430" cy="400" r="1.7" fill="#cbd5e1"/><circle cx="1430" cy="440" r="1.7" fill="#cbd5e1"/><circle cx="1430" cy="480" r="1.7" fill="#cbd5e1"/><circle cx="1430" cy="520" r="1.7" fill="#cbd5e1"/><circle cx="1430" cy="560" r="1.7" fill="#cbd5e1"/><circle cx="1430" cy="600" r="1.7" fill="#cbd5e1"/><circle cx="1430" cy="640" r="1.7" fill="#cbd5e1"/><circle cx="1430" cy="680" r="1.7" fill="#cbd5e1"/><circle cx="1430" cy="720" r="1.7" fill="#cbd5e1"/><circle cx="1430" cy="760" r="1.7" fill="#cbd5e1"/><circle cx="1430" cy="800" r="1.7" fill="#cbd5e1"/><circle cx="1430" cy="840" r="1.7" fill="#cbd5e1"/><circle cx="1470" cy="120" r="1.7" fill="#cbd5e1"/><circle cx="1470" cy="160" r="1.7" fill="#cbd5e1"/><circle cx="1470" cy="200" r="1.7" fill="#cbd5e1"/><circle cx="1470" cy="240" r="1.7" fill="#cbd5e1"/><circle cx="1470" cy="280" r="1.7" fill="#cbd5e1"/><circle cx="1470" cy="320" r="1.7" fill="#cbd5e1"/><circle cx="1470" cy="360" r="1.7" fill="#cbd5e1"/><circle cx="1470" cy="400" r="1.7" fill="#cbd5e1"/><circle cx="1470" cy="440" r="1.7" fill="#cbd5e1"/><circle cx="1470" cy="480" r="1.7" fill="#cbd5e1"/><circle cx="1470" cy="520" r="1.7" fill="#cbd5e1"/><circle cx="1470" cy="560" r="1.7" fill="#cbd5e1"/><circle cx="1470" cy="600" r="1.7" fill="#cbd5e1"/><circle cx="1470" cy="640" r="1.7" fill="#cbd5e1"/><circle cx="1470" cy="680" r="1.7" fill="#cbd5e1"/><circle cx="1470" cy="720" r="1.7" fill="#cbd5e1"/><circle cx="1470" cy="760" r="1.7" fill="#cbd5e1"/><circle cx="1470" cy="800" r="1.7" fill="#cbd5e1"/><circle cx="1470" cy="840" r="1.7" fill="#cbd5e1"/><circle cx="1510" cy="120" r="1.7" fill="#cbd5e1"/><circle cx="1510" cy="160" r="1.7" fill="#cbd5e1"/><circle cx="1510" cy="200" r="1.7" fill="#cbd5e1"/><circle cx="1510" cy="240" r="1.7" fill="#cbd5e1"/><circle cx="1510" cy="280" r="1.7" fill="#cbd5e1"/><circle cx="1510" cy="320" r="1.7" fill="#cbd5e1"/><circle cx="1510" cy="360" r="1.7" fill="#cbd5e1"/><circle cx="1510" cy="400" r="1.7" fill="#cbd5e1"/><circle cx="1510" cy="440" r="1.7" fill="#cbd5e1"/><circle cx="1510" cy="480" r="1.7" fill="#cbd5e1"/><circle cx="1510" cy="520" r="1.7" fill="#cbd5e1"/><circle cx="1510" cy="560" r="1.7" fill="#cbd5e1"/><circle cx="1510" cy="600" r="1.7" fill="#cbd5e1"/><circle cx="1510" cy="640" r="1.7" fill="#cbd5e1"/><circle cx="1510" cy="680" r="1.7" fill="#cbd5e1"/><circle cx="1510" cy="720" r="1.7" fill="#cbd5e1"/><circle cx="1510" cy="760" r="1.7" fill="#cbd5e1"/><circle cx="1510" cy="800" r="1.7" fill="#cbd5e1"/><circle cx="1510" cy="840" r="1.7" fill="#cbd5e1"/></g>
  <text x="70" y="78" class="eyebrow">RAG PRACTICE</text>
  <text x="70" y="126" class="title">RAG 구현 패턴 실습 흐름</text>
  <text x="72" y="162" class="subtitle">한 번에 모두 붙이지 않고 baseline에서 개선 지점을 분리한다.</text>
  <g filter="url(#soft)">
    <rect x="90" y="230" width="245" height="176" rx="24" fill="#ffffff" stroke="#d8e2ef" stroke-width="1.4"/>
    <rect x="90" y="230" width="245" height="8" rx="4" fill="#334155" opacity="0.9"/>
    <circle cx="124" cy="274" r="18" fill="#e2e8f0"/>
    <text x="124" y="281" text-anchor="middle" class="label" style="fill:#334155">01</text>
    <text x="154" y="280" class="card-title">Baseline</text>
    <text x="118" y="318" class="card-sub">Chunk → Embed → Search</text>
<text x="118" y="343" class="card-sub">먼저 비교 기준을 만든다</text>
  </g>
<path class="line" d="M335 318 C350.5 318, 350.5 318, 366 318"/>
  <g filter="url(#soft)">
    <rect x="382" y="230" width="245" height="176" rx="24" fill="#ffffff" stroke="#d8e2ef" stroke-width="1.4"/>
    <rect x="382" y="230" width="245" height="8" rx="4" fill="#1d4ed8" opacity="0.9"/>
    <circle cx="416" cy="274" r="18" fill="#dbeafe"/>
    <text x="416" y="281" text-anchor="middle" class="label" style="fill:#1d4ed8">02</text>
    <text x="446" y="280" class="card-title">Query Rewrite</text>
    <text x="410" y="318" class="card-sub">질문 표현을 문서 표현에 맞춤</text>
<text x="410" y="343" class="card-sub">실패 질문을 줄인다</text>
  </g>
<path class="line" d="M627 318 C642.5 318, 642.5 318, 658 318"/>
  <g filter="url(#soft)">
    <rect x="674" y="230" width="245" height="176" rx="24" fill="#ffffff" stroke="#d8e2ef" stroke-width="1.4"/>
    <rect x="674" y="230" width="245" height="8" rx="4" fill="#0f766e" opacity="0.9"/>
    <circle cx="708" cy="274" r="18" fill="#ccfbf1"/>
    <text x="708" y="281" text-anchor="middle" class="label" style="fill:#0f766e">03</text>
    <text x="738" y="280" class="card-title">Hybrid Search</text>
    <text x="702" y="318" class="card-sub">BM25 + Vector Search</text>
<text x="702" y="343" class="card-sub">키워드와 의미를 함께 본다</text>
  </g>
<path class="line" d="M919 318 C934.5 318, 934.5 318, 950 318"/>
  <g filter="url(#soft)">
    <rect x="966" y="230" width="245" height="176" rx="24" fill="#ffffff" stroke="#d8e2ef" stroke-width="1.4"/>
    <rect x="966" y="230" width="245" height="8" rx="4" fill="#6d28d9" opacity="0.9"/>
    <circle cx="1000" cy="274" r="18" fill="#ede9fe"/>
    <text x="1000" y="281" text-anchor="middle" class="label" style="fill:#6d28d9">04</text>
    <text x="1030" y="280" class="card-title">Reranker</text>
    <text x="994" y="318" class="card-sub">후보를 다시 정렬</text>
<text x="994" y="343" class="card-sub">Top-K 품질을 끌어올린다</text>
  </g>
<path class="line" d="M1211 318 C1226.5 318, 1226.5 318, 1242 318"/>
  <g filter="url(#soft)">
    <rect x="1258" y="230" width="245" height="176" rx="24" fill="#ffffff" stroke="#d8e2ef" stroke-width="1.4"/>
    <rect x="1258" y="230" width="245" height="8" rx="4" fill="#15803d" opacity="0.9"/>
    <circle cx="1292" cy="274" r="18" fill="#dcfce7"/>
    <text x="1292" y="281" text-anchor="middle" class="label" style="fill:#15803d">05</text>
    <text x="1322" y="280" class="card-title">Evaluation</text>
    <text x="1286" y="318" class="card-sub">Retrieval / Generation 분리</text>
<text x="1286" y="343" class="card-sub">개선 위치를 추적한다</text>
  </g>
  <g filter="url(#shadow)">
    <rect x="140" y="520" width="1320" height="230" rx="30" fill="#ffffff" stroke="#dbe3ef"/>
    <text x="190" y="578" class="card-title">실습에서 남기는 비교 로그</text>
    <text x="190" y="616" class="card-sub">같은 질문 세트로 단계별 결과를 저장해야 어떤 패턴이 효과가 있었는지 말할 수 있다.</text>
    <path d="M195 675 H1400" stroke="#e2e8f0" stroke-width="2"/>
    <text x="210" y="714" class="metric" style="fill:#1d4ed8">query</text>
    <text x="430" y="714" class="metric" style="fill:#0f766e">retrieved_docs</text>
    <text x="725" y="714" class="metric" style="fill:#6d28d9">rerank_score</text>
    <text x="1000" y="714" class="metric" style="fill:#15803d">grounded_answer</text>
    <text x="1260" y="714" class="metric" style="fill:#b45309">failure_reason</text>
  </g></svg>
