<svg xmlns="http://www.w3.org/2000/svg" viewBox="0 0 1600 900" width="1600" height="900" role="img" aria-labelledby="title desc">
  <title id="title">PDF/OCR Document Processing Pipeline</title>
  <desc id="desc">PDF를 레이아웃, OCR, 표/그림, 구조화 저장, 검색 입력으로 나누는 학습 다이어그램.</desc>
  <defs>
    <linearGradient id="bg" x1="0" y1="0" x2="1" y2="1">
      <stop offset="0" stop-color="#f8fafc"/>
      <stop offset="0.55" stop-color="#ffffff"/>
      <stop offset="1" stop-color="#eef6ff"/>
    </linearGradient>
    <filter id="shadow" x="-20%" y="-20%" width="140%" height="140%">
      <feDropShadow dx="0" dy="14" stdDeviation="18" flood-color="#0f172a" flood-opacity="0.14"/>
    </filter>
    <filter id="soft" x="-20%" y="-20%" width="140%" height="140%">
      <feDropShadow dx="0" dy="8" stdDeviation="10" flood-color="#1e293b" flood-opacity="0.08"/>
    </filter>
    <marker id="arrow" markerWidth="14" markerHeight="12" refX="12" refY="6" orient="auto">
      <path d="M0,0 L14,6 L0,12 Z" fill="#2563eb"/>
    </marker>
    <style><![CDATA[
      text { font-family: "Pretendard", "Noto Sans KR", "Apple SD Gothic Neo", "Malgun Gothic", Inter, Arial, sans-serif; fill: #0f172a; }
      .title { font-size: 42px; font-weight: 900; letter-spacing: 0; }
      .subtitle { font-size: 20px; fill: #475569; font-weight: 500; }
      .eyebrow { font-size: 15px; fill: #2563eb; font-weight: 900; letter-spacing: 1.2px; }
      .card-title { font-size: 24px; font-weight: 850; }
      .card-sub { font-size: 16px; fill: #475569; font-weight: 550; }
      .small { font-size: 14px; fill: #64748b; font-weight: 600; }
      .label { font-size: 15px; fill: #334155; font-weight: 800; }
      .metric { font-size: 20px; font-weight: 900; }
      .line { stroke: #2563eb; stroke-width: 3.5; fill: none; marker-end: url(#arrow); stroke-linecap: round; stroke-linejoin: round; }
    ]]></style>
  </defs>
  <rect width="1600" height="900" fill="url(#bg)"/>
  <path d="M0 104 C260 60 395 150 650 92 C935 28 1070 88 1600 44" fill="none" stroke="#dbeafe" stroke-width="24" opacity="0.75"/>
  <g opacity="0.42"><circle cx="70" cy="120" r="1.7" fill="#cbd5e1"/><circle cx="70" cy="160" r="1.7" fill="#cbd5e1"/><circle cx="70" cy="200" r="1.7" fill="#cbd5e1"/><circle cx="70" cy="240" r="1.7" fill="#cbd5e1"/><circle cx="70" cy="280" r="1.7" fill="#cbd5e1"/><circle cx="70" cy="320" r="1.7" fill="#cbd5e1"/><circle cx="70" cy="360" r="1.7" fill="#cbd5e1"/><circle cx="70" cy="400" r="1.7" fill="#cbd5e1"/><circle cx="70" cy="440" r="1.7" fill="#cbd5e1"/><circle cx="70" cy="480" r="1.7" fill="#cbd5e1"/><circle cx="70" cy="520" r="1.7" fill="#cbd5e1"/><circle cx="70" cy="560" r="1.7" fill="#cbd5e1"/><circle cx="70" cy="600" r="1.7" fill="#cbd5e1"/><circle cx="70" cy="640" r="1.7" fill="#cbd5e1"/><circle cx="70" cy="680" r="1.7" fill="#cbd5e1"/><circle cx="70" cy="720" r="1.7" fill="#cbd5e1"/><circle cx="70" cy="760" r="1.7" fill="#cbd5e1"/><circle cx="70" cy="800" r="1.7" fill="#cbd5e1"/><circle cx="70" cy="840" r="1.7" fill="#cbd5e1"/><circle cx="110" cy="120" r="1.7" fill="#cbd5e1"/><circle cx="110" cy="160" r="1.7" fill="#cbd5e1"/><circle cx="110" cy="200" r="1.7" fill="#cbd5e1"/><circle cx="110" cy="240" r="1.7" fill="#cbd5e1"/><circle cx="110" cy="280" r="1.7" fill="#cbd5e1"/><circle cx="110" cy="320" r="1.7" fill="#cbd5e1"/><circle cx="110" cy="360" r="1.7" fill="#cbd5e1"/><circle cx="110" cy="400" r="1.7" fill="#cbd5e1"/><circle cx="110" cy="440" r="1.7" fill="#cbd5e1"/><circle cx="110" cy="480" r="1.7" fill="#cbd5e1"/><circle cx="110" cy="520" r="1.7" fill="#cbd5e1"/><circle cx="110" cy="560" r="1.7" fill="#cbd5e1"/><circle cx="110" cy="600" r="1.7" fill="#cbd5e1"/><circle cx="110" cy="640" r="1.7" fill="#cbd5e1"/><circle cx="110" cy="680" r="1.7" fill="#cbd5e1"/><circle cx="110" cy="720" r="1.7" fill="#cbd5e1"/><circle cx="110" cy="760" r="1.7" fill="#cbd5e1"/><circle cx="110" cy="800" r="1.7" fill="#cbd5e1"/><circle cx="110" cy="840" r="1.7" fill="#cbd5e1"/><circle cx="150" cy="120" r="1.7" fill="#cbd5e1"/><circle cx="150" cy="160" r="1.7" fill="#cbd5e1"/><circle cx="150" cy="200" r="1.7" fill="#cbd5e1"/><circle cx="150" cy="240" r="1.7" fill="#cbd5e1"/><circle cx="150" cy="280" r="1.7" fill="#cbd5e1"/><circle cx="150" cy="320" r="1.7" fill="#cbd5e1"/><circle cx="150" cy="360" r="1.7" fill="#cbd5e1"/><circle cx="150" cy="400" r="1.7" fill="#cbd5e1"/><circle cx="150" cy="440" r="1.7" fill="#cbd5e1"/><circle cx="150" cy="480" r="1.7" fill="#cbd5e1"/><circle cx="150" cy="520" r="1.7" fill="#cbd5e1"/><circle cx="150" cy="560" r="1.7" fill="#cbd5e1"/><circle cx="150" cy="600" r="1.7" fill="#cbd5e1"/><circle cx="150" cy="640" r="1.7" fill="#cbd5e1"/><circle cx="150" cy="680" r="1.7" fill="#cbd5e1"/><circle cx="150" cy="720" r="1.7" fill="#cbd5e1"/><circle cx="150" cy="760" r="1.7" fill="#cbd5e1"/><circle cx="150" cy="800" r="1.7" fill="#cbd5e1"/><circle cx="150" cy="840" r="1.7" fill="#cbd5e1"/><circle cx="190" cy="120" r="1.7" fill="#cbd5e1"/><circle cx="190" cy="160" r="1.7" fill="#cbd5e1"/><circle cx="190" cy="200" r="1.7" fill="#cbd5e1"/><circle cx="190" cy="240" r="1.7" fill="#cbd5e1"/><circle cx="190" cy="280" r="1.7" fill="#cbd5e1"/><circle cx="190" cy="320" r="1.7" fill="#cbd5e1"/><circle cx="190" cy="360" r="1.7" fill="#cbd5e1"/><circle cx="190" cy="400" r="1.7" fill="#cbd5e1"/><circle cx="190" cy="440" r="1.7" fill="#cbd5e1"/><circle cx="190" cy="480" r="1.7" fill="#cbd5e1"/><circle cx="190" cy="520" r="1.7" fill="#cbd5e1"/><circle cx="190" cy="560" r="1.7" fill="#cbd5e1"/><circle cx="190" cy="600" r="1.7" fill="#cbd5e1"/><circle cx="190" cy="640" r="1.7" fill="#cbd5e1"/><circle cx="190" cy="680" r="1.7" fill="#cbd5e1"/><circle cx="190" cy="720" r="1.7" fill="#cbd5e1"/><circle cx="190" cy="760" r="1.7" fill="#cbd5e1"/><circle cx="190" cy="800" r="1.7" fill="#cbd5e1"/><circle cx="190" cy="840" r="1.7" fill="#cbd5e1"/><circle cx="230" cy="120" r="1.7" fill="#cbd5e1"/><circle cx="230" cy="160" r="1.7" fill="#cbd5e1"/><circle cx="230" cy="200" r="1.7" fill="#cbd5e1"/><circle cx="230" cy="240" r="1.7" fill="#cbd5e1"/><circle cx="230" cy="280" r="1.7" fill="#cbd5e1"/><circle cx="230" cy="320" r="1.7" fill="#cbd5e1"/><circle cx="230" cy="360" r="1.7" fill="#cbd5e1"/><circle cx="230" cy="400" r="1.7" fill="#cbd5e1"/><circle cx="230" cy="440" r="1.7" fill="#cbd5e1"/><circle cx="230" cy="480" r="1.7" fill="#cbd5e1"/><circle cx="230" cy="520" r="1.7" fill="#cbd5e1"/><circle cx="230" cy="560" r="1.7" fill="#cbd5e1"/><circle cx="230" cy="600" r="1.7" fill="#cbd5e1"/><circle cx="230" cy="640" r="1.7" fill="#cbd5e1"/><circle cx="230" cy="680" r="1.7" fill="#cbd5e1"/><circle cx="230" cy="720" r="1.7" fill="#cbd5e1"/><circle cx="230" cy="760" r="1.7" fill="#cbd5e1"/><circle cx="230" cy="800" r="1.7" fill="#cbd5e1"/><circle cx="230" cy="840" r="1.7" fill="#cbd5e1"/><circle cx="270" cy="120" r="1.7" fill="#cbd5e1"/><circle cx="270" cy="160" r="1.7" fill="#cbd5e1"/><circle cx="270" cy="200" r="1.7" fill="#cbd5e1"/><circle cx="270" cy="240" r="1.7" fill="#cbd5e1"/><circle cx="270" cy="280" r="1.7" fill="#cbd5e1"/><circle cx="270" cy="320" r="1.7" fill="#cbd5e1"/><circle cx="270" cy="360" r="1.7" fill="#cbd5e1"/><circle cx="270" cy="400" r="1.7" fill="#cbd5e1"/><circle cx="270" cy="440" r="1.7" fill="#cbd5e1"/><circle cx="270" cy="480" r="1.7" fill="#cbd5e1"/><circle cx="270" cy="520" r="1.7" fill="#cbd5e1"/><circle cx="270" cy="560" r="1.7" fill="#cbd5e1"/><circle cx="270" cy="600" r="1.7" fill="#cbd5e1"/><circle cx="270" cy="640" r="1.7" fill="#cbd5e1"/><circle cx="270" cy="680" r="1.7" fill="#cbd5e1"/><circle cx="270" cy="720" r="1.7" fill="#cbd5e1"/><circle cx="270" cy="760" r="1.7" fill="#cbd5e1"/><circle cx="270" cy="800" r="1.7" fill="#cbd5e1"/><circle cx="270" cy="840" r="1.7" fill="#cbd5e1"/><circle cx="310" cy="120" r="1.7" fill="#cbd5e1"/><circle cx="310" cy="160" r="1.7" fill="#cbd5e1"/><circle cx="310" cy="200" r="1.7" fill="#cbd5e1"/><circle cx="310" cy="240" r="1.7" fill="#cbd5e1"/><circle cx="310" cy="280" r="1.7" fill="#cbd5e1"/><circle cx="310" cy="320" r="1.7" fill="#cbd5e1"/><circle cx="310" cy="360" r="1.7" fill="#cbd5e1"/><circle cx="310" cy="400" r="1.7" fill="#cbd5e1"/><circle cx="310" cy="440" r="1.7" fill="#cbd5e1"/><circle cx="310" cy="480" r="1.7" fill="#cbd5e1"/><circle cx="310" cy="520" r="1.7" fill="#cbd5e1"/><circle cx="310" cy="560" r="1.7" fill="#cbd5e1"/><circle cx="310" cy="600" r="1.7" fill="#cbd5e1"/><circle cx="310" cy="640" r="1.7" fill="#cbd5e1"/><circle cx="310" cy="680" r="1.7" fill="#cbd5e1"/><circle cx="310" cy="720" r="1.7" fill="#cbd5e1"/><circle cx="310" cy="760" r="1.7" fill="#cbd5e1"/><circle cx="310" cy="800" r="1.7" fill="#cbd5e1"/><circle cx="310" cy="840" r="1.7" fill="#cbd5e1"/><circle cx="350" cy="120" r="1.7" fill="#cbd5e1"/><circle cx="350" cy="160" r="1.7" fill="#cbd5e1"/><circle cx="350" cy="200" r="1.7" fill="#cbd5e1"/><circle cx="350" cy="240" r="1.7" fill="#cbd5e1"/><circle cx="350" cy="280" r="1.7" fill="#cbd5e1"/><circle cx="350" cy="320" r="1.7" fill="#cbd5e1"/><circle cx="350" cy="360" r="1.7" fill="#cbd5e1"/><circle cx="350" cy="400" r="1.7" fill="#cbd5e1"/><circle cx="350" cy="440" r="1.7" fill="#cbd5e1"/><circle cx="350" cy="480" r="1.7" fill="#cbd5e1"/><circle cx="350" cy="520" r="1.7" fill="#cbd5e1"/><circle cx="350" cy="560" r="1.7" fill="#cbd5e1"/><circle cx="350" cy="600" r="1.7" fill="#cbd5e1"/><circle cx="350" cy="640" r="1.7" fill="#cbd5e1"/><circle cx="350" cy="680" r="1.7" fill="#cbd5e1"/><circle cx="350" cy="720" r="1.7" fill="#cbd5e1"/><circle cx="350" cy="760" r="1.7" fill="#cbd5e1"/><circle cx="350" cy="800" r="1.7" fill="#cbd5e1"/><circle cx="350" cy="840" r="1.7" fill="#cbd5e1"/><circle cx="390" cy="120" r="1.7" fill="#cbd5e1"/><circle cx="390" cy="160" r="1.7" fill="#cbd5e1"/><circle cx="390" cy="200" r="1.7" fill="#cbd5e1"/><circle cx="390" cy="240" r="1.7" fill="#cbd5e1"/><circle cx="390" cy="280" r="1.7" fill="#cbd5e1"/><circle cx="390" cy="320" r="1.7" fill="#cbd5e1"/><circle cx="390" cy="360" r="1.7" fill="#cbd5e1"/><circle cx="390" cy="400" r="1.7" fill="#cbd5e1"/><circle cx="390" cy="440" r="1.7" fill="#cbd5e1"/><circle cx="390" cy="480" r="1.7" fill="#cbd5e1"/><circle cx="390" cy="520" r="1.7" fill="#cbd5e1"/><circle cx="390" cy="560" r="1.7" fill="#cbd5e1"/><circle cx="390" cy="600" r="1.7" fill="#cbd5e1"/><circle cx="390" cy="640" r="1.7" fill="#cbd5e1"/><circle cx="390" cy="680" r="1.7" fill="#cbd5e1"/><circle cx="390" cy="720" r="1.7" fill="#cbd5e1"/><circle cx="390" cy="760" r="1.7" fill="#cbd5e1"/><circle cx="390" cy="800" r="1.7" fill="#cbd5e1"/><circle cx="390" cy="840" r="1.7" fill="#cbd5e1"/><circle cx="430" cy="120" r="1.7" fill="#cbd5e1"/><circle cx="430" cy="160" r="1.7" fill="#cbd5e1"/><circle cx="430" cy="200" r="1.7" fill="#cbd5e1"/><circle cx="430" cy="240" r="1.7" fill="#cbd5e1"/><circle cx="430" cy="280" r="1.7" fill="#cbd5e1"/><circle cx="430" cy="320" r="1.7" fill="#cbd5e1"/><circle cx="430" cy="360" r="1.7" fill="#cbd5e1"/><circle cx="430" cy="400" r="1.7" fill="#cbd5e1"/><circle cx="430" cy="440" r="1.7" fill="#cbd5e1"/><circle cx="430" cy="480" r="1.7" fill="#cbd5e1"/><circle cx="430" cy="520" r="1.7" fill="#cbd5e1"/><circle cx="430" cy="560" r="1.7" fill="#cbd5e1"/><circle cx="430" cy="600" r="1.7" fill="#cbd5e1"/><circle cx="430" cy="640" r="1.7" fill="#cbd5e1"/><circle cx="430" cy="680" r="1.7" fill="#cbd5e1"/><circle cx="430" cy="720" r="1.7" fill="#cbd5e1"/><circle cx="430" cy="760" r="1.7" fill="#cbd5e1"/><circle cx="430" cy="800" r="1.7" fill="#cbd5e1"/><circle cx="430" cy="840" r="1.7" fill="#cbd5e1"/><circle cx="470" cy="120" r="1.7" fill="#cbd5e1"/><circle cx="470" cy="160" r="1.7" fill="#cbd5e1"/><circle cx="470" cy="200" r="1.7" fill="#cbd5e1"/><circle cx="470" cy="240" r="1.7" fill="#cbd5e1"/><circle cx="470" cy="280" r="1.7" fill="#cbd5e1"/><circle cx="470" cy="320" r="1.7" fill="#cbd5e1"/><circle cx="470" cy="360" r="1.7" fill="#cbd5e1"/><circle cx="470" cy="400" r="1.7" fill="#cbd5e1"/><circle cx="470" cy="440" r="1.7" fill="#cbd5e1"/><circle cx="470" cy="480" r="1.7" fill="#cbd5e1"/><circle cx="470" cy="520" r="1.7" fill="#cbd5e1"/><circle cx="470" cy="560" r="1.7" fill="#cbd5e1"/><circle cx="470" cy="600" r="1.7" fill="#cbd5e1"/><circle cx="470" cy="640" r="1.7" fill="#cbd5e1"/><circle cx="470" cy="680" r="1.7" fill="#cbd5e1"/><circle cx="470" cy="720" r="1.7" fill="#cbd5e1"/><circle cx="470" cy="760" r="1.7" fill="#cbd5e1"/><circle cx="470" cy="800" r="1.7" fill="#cbd5e1"/><circle cx="470" cy="840" r="1.7" fill="#cbd5e1"/><circle cx="510" cy="120" r="1.7" fill="#cbd5e1"/><circle cx="510" cy="160" r="1.7" fill="#cbd5e1"/><circle cx="510" cy="200" r="1.7" fill="#cbd5e1"/><circle cx="510" cy="240" r="1.7" fill="#cbd5e1"/><circle cx="510" cy="280" r="1.7" fill="#cbd5e1"/><circle cx="510" cy="320" r="1.7" fill="#cbd5e1"/><circle cx="510" cy="360" r="1.7" fill="#cbd5e1"/><circle cx="510" cy="400" r="1.7" fill="#cbd5e1"/><circle cx="510" cy="440" r="1.7" fill="#cbd5e1"/><circle cx="510" cy="480" r="1.7" fill="#cbd5e1"/><circle cx="510" cy="520" r="1.7" fill="#cbd5e1"/><circle cx="510" cy="560" r="1.7" fill="#cbd5e1"/><circle cx="510" cy="600" r="1.7" fill="#cbd5e1"/><circle cx="510" cy="640" r="1.7" fill="#cbd5e1"/><circle cx="510" cy="680" r="1.7" fill="#cbd5e1"/><circle cx="510" cy="720" r="1.7" fill="#cbd5e1"/><circle cx="510" cy="760" r="1.7" fill="#cbd5e1"/><circle cx="510" cy="800" r="1.7" fill="#cbd5e1"/><circle cx="510" cy="840" r="1.7" fill="#cbd5e1"/><circle cx="550" cy="120" r="1.7" fill="#cbd5e1"/><circle cx="550" cy="160" r="1.7" fill="#cbd5e1"/><circle cx="550" cy="200" r="1.7" fill="#cbd5e1"/><circle cx="550" cy="240" r="1.7" fill="#cbd5e1"/><circle cx="550" cy="280" r="1.7" fill="#cbd5e1"/><circle cx="550" cy="320" r="1.7" fill="#cbd5e1"/><circle cx="550" cy="360" r="1.7" fill="#cbd5e1"/><circle cx="550" cy="400" r="1.7" fill="#cbd5e1"/><circle cx="550" cy="440" r="1.7" fill="#cbd5e1"/><circle cx="550" cy="480" r="1.7" fill="#cbd5e1"/><circle cx="550" cy="520" r="1.7" fill="#cbd5e1"/><circle cx="550" cy="560" r="1.7" fill="#cbd5e1"/><circle cx="550" cy="600" r="1.7" fill="#cbd5e1"/><circle cx="550" cy="640" r="1.7" fill="#cbd5e1"/><circle cx="550" cy="680" r="1.7" fill="#cbd5e1"/><circle cx="550" cy="720" r="1.7" fill="#cbd5e1"/><circle cx="550" cy="760" r="1.7" fill="#cbd5e1"/><circle cx="550" cy="800" r="1.7" fill="#cbd5e1"/><circle cx="550" cy="840" r="1.7" fill="#cbd5e1"/><circle cx="590" cy="120" r="1.7" fill="#cbd5e1"/><circle cx="590" cy="160" r="1.7" fill="#cbd5e1"/><circle cx="590" cy="200" r="1.7" fill="#cbd5e1"/><circle cx="590" cy="240" r="1.7" fill="#cbd5e1"/><circle cx="590" cy="280" r="1.7" fill="#cbd5e1"/><circle cx="590" cy="320" r="1.7" fill="#cbd5e1"/><circle cx="590" cy="360" r="1.7" fill="#cbd5e1"/><circle cx="590" cy="400" r="1.7" fill="#cbd5e1"/><circle cx="590" cy="440" r="1.7" fill="#cbd5e1"/><circle cx="590" cy="480" r="1.7" fill="#cbd5e1"/><circle cx="590" cy="520" r="1.7" fill="#cbd5e1"/><circle cx="590" cy="560" r="1.7" fill="#cbd5e1"/><circle cx="590" cy="600" r="1.7" fill="#cbd5e1"/><circle cx="590" cy="640" r="1.7" fill="#cbd5e1"/><circle cx="590" cy="680" r="1.7" fill="#cbd5e1"/><circle cx="590" cy="720" r="1.7" fill="#cbd5e1"/><circle cx="590" cy="760" r="1.7" fill="#cbd5e1"/><circle cx="590" cy="800" r="1.7" fill="#cbd5e1"/><circle cx="590" cy="840" r="1.7" fill="#cbd5e1"/><circle cx="630" cy="120" r="1.7" fill="#cbd5e1"/><circle cx="630" cy="160" r="1.7" fill="#cbd5e1"/><circle cx="630" cy="200" r="1.7" fill="#cbd5e1"/><circle cx="630" cy="240" r="1.7" fill="#cbd5e1"/><circle cx="630" cy="280" r="1.7" fill="#cbd5e1"/><circle cx="630" cy="320" r="1.7" fill="#cbd5e1"/><circle cx="630" cy="360" r="1.7" fill="#cbd5e1"/><circle cx="630" cy="400" r="1.7" fill="#cbd5e1"/><circle cx="630" cy="440" r="1.7" fill="#cbd5e1"/><circle cx="630" cy="480" r="1.7" fill="#cbd5e1"/><circle cx="630" cy="520" r="1.7" fill="#cbd5e1"/><circle cx="630" cy="560" r="1.7" fill="#cbd5e1"/><circle cx="630" cy="600" r="1.7" fill="#cbd5e1"/><circle cx="630" cy="640" r="1.7" fill="#cbd5e1"/><circle cx="630" cy="680" r="1.7" fill="#cbd5e1"/><circle cx="630" cy="720" r="1.7" fill="#cbd5e1"/><circle cx="630" cy="760" r="1.7" fill="#cbd5e1"/><circle cx="630" cy="800" r="1.7" fill="#cbd5e1"/><circle cx="630" cy="840" r="1.7" fill="#cbd5e1"/><circle cx="670" cy="120" r="1.7" fill="#cbd5e1"/><circle cx="670" cy="160" r="1.7" fill="#cbd5e1"/><circle cx="670" cy="200" r="1.7" fill="#cbd5e1"/><circle cx="670" cy="240" r="1.7" fill="#cbd5e1"/><circle cx="670" cy="280" r="1.7" fill="#cbd5e1"/><circle cx="670" cy="320" r="1.7" fill="#cbd5e1"/><circle cx="670" cy="360" r="1.7" fill="#cbd5e1"/><circle cx="670" cy="400" r="1.7" fill="#cbd5e1"/><circle cx="670" cy="440" r="1.7" fill="#cbd5e1"/><circle cx="670" cy="480" r="1.7" fill="#cbd5e1"/><circle cx="670" cy="520" r="1.7" fill="#cbd5e1"/><circle cx="670" cy="560" r="1.7" fill="#cbd5e1"/><circle cx="670" cy="600" r="1.7" fill="#cbd5e1"/><circle cx="670" cy="640" r="1.7" fill="#cbd5e1"/><circle cx="670" cy="680" r="1.7" fill="#cbd5e1"/><circle cx="670" cy="720" r="1.7" fill="#cbd5e1"/><circle cx="670" cy="760" r="1.7" fill="#cbd5e1"/><circle cx="670" cy="800" r="1.7" fill="#cbd5e1"/><circle cx="670" cy="840" r="1.7" fill="#cbd5e1"/><circle cx="710" cy="120" r="1.7" fill="#cbd5e1"/><circle cx="710" cy="160" r="1.7" fill="#cbd5e1"/><circle cx="710" cy="200" r="1.7" fill="#cbd5e1"/><circle cx="710" cy="240" r="1.7" fill="#cbd5e1"/><circle cx="710" cy="280" r="1.7" fill="#cbd5e1"/><circle cx="710" cy="320" r="1.7" fill="#cbd5e1"/><circle cx="710" cy="360" r="1.7" fill="#cbd5e1"/><circle cx="710" cy="400" r="1.7" fill="#cbd5e1"/><circle cx="710" cy="440" r="1.7" fill="#cbd5e1"/><circle cx="710" cy="480" r="1.7" fill="#cbd5e1"/><circle cx="710" cy="520" r="1.7" fill="#cbd5e1"/><circle cx="710" cy="560" r="1.7" fill="#cbd5e1"/><circle cx="710" cy="600" r="1.7" fill="#cbd5e1"/><circle cx="710" cy="640" r="1.7" fill="#cbd5e1"/><circle cx="710" cy="680" r="1.7" fill="#cbd5e1"/><circle cx="710" cy="720" r="1.7" fill="#cbd5e1"/><circle cx="710" cy="760" r="1.7" fill="#cbd5e1"/><circle cx="710" cy="800" r="1.7" fill="#cbd5e1"/><circle cx="710" cy="840" r="1.7" fill="#cbd5e1"/><circle cx="750" cy="120" r="1.7" fill="#cbd5e1"/><circle cx="750" cy="160" r="1.7" fill="#cbd5e1"/><circle cx="750" cy="200" r="1.7" fill="#cbd5e1"/><circle cx="750" cy="240" r="1.7" fill="#cbd5e1"/><circle cx="750" cy="280" r="1.7" fill="#cbd5e1"/><circle cx="750" cy="320" r="1.7" fill="#cbd5e1"/><circle cx="750" cy="360" r="1.7" fill="#cbd5e1"/><circle cx="750" cy="400" r="1.7" fill="#cbd5e1"/><circle cx="750" cy="440" r="1.7" fill="#cbd5e1"/><circle cx="750" cy="480" r="1.7" fill="#cbd5e1"/><circle cx="750" cy="520" r="1.7" fill="#cbd5e1"/><circle cx="750" cy="560" r="1.7" fill="#cbd5e1"/><circle cx="750" cy="600" r="1.7" fill="#cbd5e1"/><circle cx="750" cy="640" r="1.7" fill="#cbd5e1"/><circle cx="750" cy="680" r="1.7" fill="#cbd5e1"/><circle cx="750" cy="720" r="1.7" fill="#cbd5e1"/><circle cx="750" cy="760" r="1.7" fill="#cbd5e1"/><circle cx="750" cy="800" r="1.7" fill="#cbd5e1"/><circle cx="750" cy="840" r="1.7" fill="#cbd5e1"/><circle cx="790" cy="120" r="1.7" fill="#cbd5e1"/><circle cx="790" cy="160" r="1.7" fill="#cbd5e1"/><circle cx="790" cy="200" r="1.7" fill="#cbd5e1"/><circle cx="790" cy="240" r="1.7" fill="#cbd5e1"/><circle cx="790" cy="280" r="1.7" fill="#cbd5e1"/><circle cx="790" cy="320" r="1.7" fill="#cbd5e1"/><circle cx="790" cy="360" r="1.7" fill="#cbd5e1"/><circle cx="790" cy="400" r="1.7" fill="#cbd5e1"/><circle cx="790" cy="440" r="1.7" fill="#cbd5e1"/><circle cx="790" cy="480" r="1.7" fill="#cbd5e1"/><circle cx="790" cy="520" r="1.7" fill="#cbd5e1"/><circle cx="790" cy="560" r="1.7" fill="#cbd5e1"/><circle cx="790" cy="600" r="1.7" fill="#cbd5e1"/><circle cx="790" cy="640" r="1.7" fill="#cbd5e1"/><circle cx="790" cy="680" r="1.7" fill="#cbd5e1"/><circle cx="790" cy="720" r="1.7" fill="#cbd5e1"/><circle cx="790" cy="760" r="1.7" fill="#cbd5e1"/><circle cx="790" cy="800" r="1.7" fill="#cbd5e1"/><circle cx="790" cy="840" r="1.7" fill="#cbd5e1"/><circle cx="830" cy="120" r="1.7" fill="#cbd5e1"/><circle cx="830" cy="160" r="1.7" fill="#cbd5e1"/><circle cx="830" cy="200" r="1.7" fill="#cbd5e1"/><circle cx="830" cy="240" r="1.7" fill="#cbd5e1"/><circle cx="830" cy="280" r="1.7" fill="#cbd5e1"/><circle cx="830" cy="320" r="1.7" fill="#cbd5e1"/><circle cx="830" cy="360" r="1.7" fill="#cbd5e1"/><circle cx="830" cy="400" r="1.7" fill="#cbd5e1"/><circle cx="830" cy="440" r="1.7" fill="#cbd5e1"/><circle cx="830" cy="480" r="1.7" fill="#cbd5e1"/><circle cx="830" cy="520" r="1.7" fill="#cbd5e1"/><circle cx="830" cy="560" r="1.7" fill="#cbd5e1"/><circle cx="830" cy="600" r="1.7" fill="#cbd5e1"/><circle cx="830" cy="640" r="1.7" fill="#cbd5e1"/><circle cx="830" cy="680" r="1.7" fill="#cbd5e1"/><circle cx="830" cy="720" r="1.7" fill="#cbd5e1"/><circle cx="830" cy="760" r="1.7" fill="#cbd5e1"/><circle cx="830" cy="800" r="1.7" fill="#cbd5e1"/><circle cx="830" cy="840" r="1.7" fill="#cbd5e1"/><circle cx="870" cy="120" r="1.7" fill="#cbd5e1"/><circle cx="870" cy="160" r="1.7" fill="#cbd5e1"/><circle cx="870" cy="200" r="1.7" fill="#cbd5e1"/><circle cx="870" cy="240" r="1.7" fill="#cbd5e1"/><circle cx="870" cy="280" r="1.7" fill="#cbd5e1"/><circle cx="870" cy="320" r="1.7" fill="#cbd5e1"/><circle cx="870" cy="360" r="1.7" fill="#cbd5e1"/><circle cx="870" cy="400" r="1.7" fill="#cbd5e1"/><circle cx="870" cy="440" r="1.7" fill="#cbd5e1"/><circle cx="870" cy="480" r="1.7" fill="#cbd5e1"/><circle cx="870" cy="520" r="1.7" fill="#cbd5e1"/><circle cx="870" cy="560" r="1.7" fill="#cbd5e1"/><circle cx="870" cy="600" r="1.7" fill="#cbd5e1"/><circle cx="870" cy="640" r="1.7" fill="#cbd5e1"/><circle cx="870" cy="680" r="1.7" fill="#cbd5e1"/><circle cx="870" cy="720" r="1.7" fill="#cbd5e1"/><circle cx="870" cy="760" r="1.7" fill="#cbd5e1"/><circle cx="870" cy="800" r="1.7" fill="#cbd5e1"/><circle cx="870" cy="840" r="1.7" fill="#cbd5e1"/><circle cx="910" cy="120" r="1.7" fill="#cbd5e1"/><circle cx="910" cy="160" r="1.7" fill="#cbd5e1"/><circle cx="910" cy="200" r="1.7" fill="#cbd5e1"/><circle cx="910" cy="240" r="1.7" fill="#cbd5e1"/><circle cx="910" cy="280" r="1.7" fill="#cbd5e1"/><circle cx="910" cy="320" r="1.7" fill="#cbd5e1"/><circle cx="910" cy="360" r="1.7" fill="#cbd5e1"/><circle cx="910" cy="400" r="1.7" fill="#cbd5e1"/><circle cx="910" cy="440" r="1.7" fill="#cbd5e1"/><circle cx="910" cy="480" r="1.7" fill="#cbd5e1"/><circle cx="910" cy="520" r="1.7" fill="#cbd5e1"/><circle cx="910" cy="560" r="1.7" fill="#cbd5e1"/><circle cx="910" cy="600" r="1.7" fill="#cbd5e1"/><circle cx="910" cy="640" r="1.7" fill="#cbd5e1"/><circle cx="910" cy="680" r="1.7" fill="#cbd5e1"/><circle cx="910" cy="720" r="1.7" fill="#cbd5e1"/><circle cx="910" cy="760" r="1.7" fill="#cbd5e1"/><circle cx="910" cy="800" r="1.7" fill="#cbd5e1"/><circle cx="910" cy="840" r="1.7" fill="#cbd5e1"/><circle cx="950" cy="120" r="1.7" fill="#cbd5e1"/><circle cx="950" cy="160" r="1.7" fill="#cbd5e1"/><circle cx="950" cy="200" r="1.7" fill="#cbd5e1"/><circle cx="950" cy="240" r="1.7" fill="#cbd5e1"/><circle cx="950" cy="280" r="1.7" fill="#cbd5e1"/><circle cx="950" cy="320" r="1.7" fill="#cbd5e1"/><circle cx="950" cy="360" r="1.7" fill="#cbd5e1"/><circle cx="950" cy="400" r="1.7" fill="#cbd5e1"/><circle cx="950" cy="440" r="1.7" fill="#cbd5e1"/><circle cx="950" cy="480" r="1.7" fill="#cbd5e1"/><circle cx="950" cy="520" r="1.7" fill="#cbd5e1"/><circle cx="950" cy="560" r="1.7" fill="#cbd5e1"/><circle cx="950" cy="600" r="1.7" fill="#cbd5e1"/><circle cx="950" cy="640" r="1.7" fill="#cbd5e1"/><circle cx="950" cy="680" r="1.7" fill="#cbd5e1"/><circle cx="950" cy="720" r="1.7" fill="#cbd5e1"/><circle cx="950" cy="760" r="1.7" fill="#cbd5e1"/><circle cx="950" cy="800" r="1.7" fill="#cbd5e1"/><circle cx="950" cy="840" r="1.7" fill="#cbd5e1"/><circle cx="990" cy="120" r="1.7" fill="#cbd5e1"/><circle cx="990" cy="160" r="1.7" fill="#cbd5e1"/><circle cx="990" cy="200" r="1.7" fill="#cbd5e1"/><circle cx="990" cy="240" r="1.7" fill="#cbd5e1"/><circle cx="990" cy="280" r="1.7" fill="#cbd5e1"/><circle cx="990" cy="320" r="1.7" fill="#cbd5e1"/><circle cx="990" cy="360" r="1.7" fill="#cbd5e1"/><circle cx="990" cy="400" r="1.7" fill="#cbd5e1"/><circle cx="990" cy="440" r="1.7" fill="#cbd5e1"/><circle cx="990" cy="480" r="1.7" fill="#cbd5e1"/><circle cx="990" cy="520" r="1.7" fill="#cbd5e1"/><circle cx="990" cy="560" r="1.7" fill="#cbd5e1"/><circle cx="990" cy="600" r="1.7" fill="#cbd5e1"/><circle cx="990" cy="640" r="1.7" fill="#cbd5e1"/><circle cx="990" cy="680" r="1.7" fill="#cbd5e1"/><circle cx="990" cy="720" r="1.7" fill="#cbd5e1"/><circle cx="990" cy="760" r="1.7" fill="#cbd5e1"/><circle cx="990" cy="800" r="1.7" fill="#cbd5e1"/><circle cx="990" cy="840" r="1.7" fill="#cbd5e1"/><circle cx="1030" cy="120" r="1.7" fill="#cbd5e1"/><circle cx="1030" cy="160" r="1.7" fill="#cbd5e1"/><circle cx="1030" cy="200" r="1.7" fill="#cbd5e1"/><circle cx="1030" cy="240" r="1.7" fill="#cbd5e1"/><circle cx="1030" cy="280" r="1.7" fill="#cbd5e1"/><circle cx="1030" cy="320" r="1.7" fill="#cbd5e1"/><circle cx="1030" cy="360" r="1.7" fill="#cbd5e1"/><circle cx="1030" cy="400" r="1.7" fill="#cbd5e1"/><circle cx="1030" cy="440" r="1.7" fill="#cbd5e1"/><circle cx="1030" cy="480" r="1.7" fill="#cbd5e1"/><circle cx="1030" cy="520" r="1.7" fill="#cbd5e1"/><circle cx="1030" cy="560" r="1.7" fill="#cbd5e1"/><circle cx="1030" cy="600" r="1.7" fill="#cbd5e1"/><circle cx="1030" cy="640" r="1.7" fill="#cbd5e1"/><circle cx="1030" cy="680" r="1.7" fill="#cbd5e1"/><circle cx="1030" cy="720" r="1.7" fill="#cbd5e1"/><circle cx="1030" cy="760" r="1.7" fill="#cbd5e1"/><circle cx="1030" cy="800" r="1.7" fill="#cbd5e1"/><circle cx="1030" cy="840" r="1.7" fill="#cbd5e1"/><circle cx="1070" cy="120" r="1.7" fill="#cbd5e1"/><circle cx="1070" cy="160" r="1.7" fill="#cbd5e1"/><circle cx="1070" cy="200" r="1.7" fill="#cbd5e1"/><circle cx="1070" cy="240" r="1.7" fill="#cbd5e1"/><circle cx="1070" cy="280" r="1.7" fill="#cbd5e1"/><circle cx="1070" cy="320" r="1.7" fill="#cbd5e1"/><circle cx="1070" cy="360" r="1.7" fill="#cbd5e1"/><circle cx="1070" cy="400" r="1.7" fill="#cbd5e1"/><circle cx="1070" cy="440" r="1.7" fill="#cbd5e1"/><circle cx="1070" cy="480" r="1.7" fill="#cbd5e1"/><circle cx="1070" cy="520" r="1.7" fill="#cbd5e1"/><circle cx="1070" cy="560" r="1.7" fill="#cbd5e1"/><circle cx="1070" cy="600" r="1.7" fill="#cbd5e1"/><circle cx="1070" cy="640" r="1.7" fill="#cbd5e1"/><circle cx="1070" cy="680" r="1.7" fill="#cbd5e1"/><circle cx="1070" cy="720" r="1.7" fill="#cbd5e1"/><circle cx="1070" cy="760" r="1.7" fill="#cbd5e1"/><circle cx="1070" cy="800" r="1.7" fill="#cbd5e1"/><circle cx="1070" cy="840" r="1.7" fill="#cbd5e1"/><circle cx="1110" cy="120" r="1.7" fill="#cbd5e1"/><circle cx="1110" cy="160" r="1.7" fill="#cbd5e1"/><circle cx="1110" cy="200" r="1.7" fill="#cbd5e1"/><circle cx="1110" cy="240" r="1.7" fill="#cbd5e1"/><circle cx="1110" cy="280" r="1.7" fill="#cbd5e1"/><circle cx="1110" cy="320" r="1.7" fill="#cbd5e1"/><circle cx="1110" cy="360" r="1.7" fill="#cbd5e1"/><circle cx="1110" cy="400" r="1.7" fill="#cbd5e1"/><circle cx="1110" cy="440" r="1.7" fill="#cbd5e1"/><circle cx="1110" cy="480" r="1.7" fill="#cbd5e1"/><circle cx="1110" cy="520" r="1.7" fill="#cbd5e1"/><circle cx="1110" cy="560" r="1.7" fill="#cbd5e1"/><circle cx="1110" cy="600" r="1.7" fill="#cbd5e1"/><circle cx="1110" cy="640" r="1.7" fill="#cbd5e1"/><circle cx="1110" cy="680" r="1.7" fill="#cbd5e1"/><circle cx="1110" cy="720" r="1.7" fill="#cbd5e1"/><circle cx="1110" cy="760" r="1.7" fill="#cbd5e1"/><circle cx="1110" cy="800" r="1.7" fill="#cbd5e1"/><circle cx="1110" cy="840" r="1.7" fill="#cbd5e1"/><circle cx="1150" cy="120" r="1.7" fill="#cbd5e1"/><circle cx="1150" cy="160" r="1.7" fill="#cbd5e1"/><circle cx="1150" cy="200" r="1.7" fill="#cbd5e1"/><circle cx="1150" cy="240" r="1.7" fill="#cbd5e1"/><circle cx="1150" cy="280" r="1.7" fill="#cbd5e1"/><circle cx="1150" cy="320" r="1.7" fill="#cbd5e1"/><circle cx="1150" cy="360" r="1.7" fill="#cbd5e1"/><circle cx="1150" cy="400" r="1.7" fill="#cbd5e1"/><circle cx="1150" cy="440" r="1.7" fill="#cbd5e1"/><circle cx="1150" cy="480" r="1.7" fill="#cbd5e1"/><circle cx="1150" cy="520" r="1.7" fill="#cbd5e1"/><circle cx="1150" cy="560" r="1.7" fill="#cbd5e1"/><circle cx="1150" cy="600" r="1.7" fill="#cbd5e1"/><circle cx="1150" cy="640" r="1.7" fill="#cbd5e1"/><circle cx="1150" cy="680" r="1.7" fill="#cbd5e1"/><circle cx="1150" cy="720" r="1.7" fill="#cbd5e1"/><circle cx="1150" cy="760" r="1.7" fill="#cbd5e1"/><circle cx="1150" cy="800" r="1.7" fill="#cbd5e1"/><circle cx="1150" cy="840" r="1.7" fill="#cbd5e1"/><circle cx="1190" cy="120" r="1.7" fill="#cbd5e1"/><circle cx="1190" cy="160" r="1.7" fill="#cbd5e1"/><circle cx="1190" cy="200" r="1.7" fill="#cbd5e1"/><circle cx="1190" cy="240" r="1.7" fill="#cbd5e1"/><circle cx="1190" cy="280" r="1.7" fill="#cbd5e1"/><circle cx="1190" cy="320" r="1.7" fill="#cbd5e1"/><circle cx="1190" cy="360" r="1.7" fill="#cbd5e1"/><circle cx="1190" cy="400" r="1.7" fill="#cbd5e1"/><circle cx="1190" cy="440" r="1.7" fill="#cbd5e1"/><circle cx="1190" cy="480" r="1.7" fill="#cbd5e1"/><circle cx="1190" cy="520" r="1.7" fill="#cbd5e1"/><circle cx="1190" cy="560" r="1.7" fill="#cbd5e1"/><circle cx="1190" cy="600" r="1.7" fill="#cbd5e1"/><circle cx="1190" cy="640" r="1.7" fill="#cbd5e1"/><circle cx="1190" cy="680" r="1.7" fill="#cbd5e1"/><circle cx="1190" cy="720" r="1.7" fill="#cbd5e1"/><circle cx="1190" cy="760" r="1.7" fill="#cbd5e1"/><circle cx="1190" cy="800" r="1.7" fill="#cbd5e1"/><circle cx="1190" cy="840" r="1.7" fill="#cbd5e1"/><circle cx="1230" cy="120" r="1.7" fill="#cbd5e1"/><circle cx="1230" cy="160" r="1.7" fill="#cbd5e1"/><circle cx="1230" cy="200" r="1.7" fill="#cbd5e1"/><circle cx="1230" cy="240" r="1.7" fill="#cbd5e1"/><circle cx="1230" cy="280" r="1.7" fill="#cbd5e1"/><circle cx="1230" cy="320" r="1.7" fill="#cbd5e1"/><circle cx="1230" cy="360" r="1.7" fill="#cbd5e1"/><circle cx="1230" cy="400" r="1.7" fill="#cbd5e1"/><circle cx="1230" cy="440" r="1.7" fill="#cbd5e1"/><circle cx="1230" cy="480" r="1.7" fill="#cbd5e1"/><circle cx="1230" cy="520" r="1.7" fill="#cbd5e1"/><circle cx="1230" cy="560" r="1.7" fill="#cbd5e1"/><circle cx="1230" cy="600" r="1.7" fill="#cbd5e1"/><circle cx="1230" cy="640" r="1.7" fill="#cbd5e1"/><circle cx="1230" cy="680" r="1.7" fill="#cbd5e1"/><circle cx="1230" cy="720" r="1.7" fill="#cbd5e1"/><circle cx="1230" cy="760" r="1.7" fill="#cbd5e1"/><circle cx="1230" cy="800" r="1.7" fill="#cbd5e1"/><circle cx="1230" cy="840" r="1.7" fill="#cbd5e1"/><circle cx="1270" cy="120" r="1.7" fill="#cbd5e1"/><circle cx="1270" cy="160" r="1.7" fill="#cbd5e1"/><circle cx="1270" cy="200" r="1.7" fill="#cbd5e1"/><circle cx="1270" cy="240" r="1.7" fill="#cbd5e1"/><circle cx="1270" cy="280" r="1.7" fill="#cbd5e1"/><circle cx="1270" cy="320" r="1.7" fill="#cbd5e1"/><circle cx="1270" cy="360" r="1.7" fill="#cbd5e1"/><circle cx="1270" cy="400" r="1.7" fill="#cbd5e1"/><circle cx="1270" cy="440" r="1.7" fill="#cbd5e1"/><circle cx="1270" cy="480" r="1.7" fill="#cbd5e1"/><circle cx="1270" cy="520" r="1.7" fill="#cbd5e1"/><circle cx="1270" cy="560" r="1.7" fill="#cbd5e1"/><circle cx="1270" cy="600" r="1.7" fill="#cbd5e1"/><circle cx="1270" cy="640" r="1.7" fill="#cbd5e1"/><circle cx="1270" cy="680" r="1.7" fill="#cbd5e1"/><circle cx="1270" cy="720" r="1.7" fill="#cbd5e1"/><circle cx="1270" cy="760" r="1.7" fill="#cbd5e1"/><circle cx="1270" cy="800" r="1.7" fill="#cbd5e1"/><circle cx="1270" cy="840" r="1.7" fill="#cbd5e1"/><circle cx="1310" cy="120" r="1.7" fill="#cbd5e1"/><circle cx="1310" cy="160" r="1.7" fill="#cbd5e1"/><circle cx="1310" cy="200" r="1.7" fill="#cbd5e1"/><circle cx="1310" cy="240" r="1.7" fill="#cbd5e1"/><circle cx="1310" cy="280" r="1.7" fill="#cbd5e1"/><circle cx="1310" cy="320" r="1.7" fill="#cbd5e1"/><circle cx="1310" cy="360" r="1.7" fill="#cbd5e1"/><circle cx="1310" cy="400" r="1.7" fill="#cbd5e1"/><circle cx="1310" cy="440" r="1.7" fill="#cbd5e1"/><circle cx="1310" cy="480" r="1.7" fill="#cbd5e1"/><circle cx="1310" cy="520" r="1.7" fill="#cbd5e1"/><circle cx="1310" cy="560" r="1.7" fill="#cbd5e1"/><circle cx="1310" cy="600" r="1.7" fill="#cbd5e1"/><circle cx="1310" cy="640" r="1.7" fill="#cbd5e1"/><circle cx="1310" cy="680" r="1.7" fill="#cbd5e1"/><circle cx="1310" cy="720" r="1.7" fill="#cbd5e1"/><circle cx="1310" cy="760" r="1.7" fill="#cbd5e1"/><circle cx="1310" cy="800" r="1.7" fill="#cbd5e1"/><circle cx="1310" cy="840" r="1.7" fill="#cbd5e1"/><circle cx="1350" cy="120" r="1.7" fill="#cbd5e1"/><circle cx="1350" cy="160" r="1.7" fill="#cbd5e1"/><circle cx="1350" cy="200" r="1.7" fill="#cbd5e1"/><circle cx="1350" cy="240" r="1.7" fill="#cbd5e1"/><circle cx="1350" cy="280" r="1.7" fill="#cbd5e1"/><circle cx="1350" cy="320" r="1.7" fill="#cbd5e1"/><circle cx="1350" cy="360" r="1.7" fill="#cbd5e1"/><circle cx="1350" cy="400" r="1.7" fill="#cbd5e1"/><circle cx="1350" cy="440" r="1.7" fill="#cbd5e1"/><circle cx="1350" cy="480" r="1.7" fill="#cbd5e1"/><circle cx="1350" cy="520" r="1.7" fill="#cbd5e1"/><circle cx="1350" cy="560" r="1.7" fill="#cbd5e1"/><circle cx="1350" cy="600" r="1.7" fill="#cbd5e1"/><circle cx="1350" cy="640" r="1.7" fill="#cbd5e1"/><circle cx="1350" cy="680" r="1.7" fill="#cbd5e1"/><circle cx="1350" cy="720" r="1.7" fill="#cbd5e1"/><circle cx="1350" cy="760" r="1.7" fill="#cbd5e1"/><circle cx="1350" cy="800" r="1.7" fill="#cbd5e1"/><circle cx="1350" cy="840" r="1.7" fill="#cbd5e1"/><circle cx="1390" cy="120" r="1.7" fill="#cbd5e1"/><circle cx="1390" cy="160" r="1.7" fill="#cbd5e1"/><circle cx="1390" cy="200" r="1.7" fill="#cbd5e1"/><circle cx="1390" cy="240" r="1.7" fill="#cbd5e1"/><circle cx="1390" cy="280" r="1.7" fill="#cbd5e1"/><circle cx="1390" cy="320" r="1.7" fill="#cbd5e1"/><circle cx="1390" cy="360" r="1.7" fill="#cbd5e1"/><circle cx="1390" cy="400" r="1.7" fill="#cbd5e1"/><circle cx="1390" cy="440" r="1.7" fill="#cbd5e1"/><circle cx="1390" cy="480" r="1.7" fill="#cbd5e1"/><circle cx="1390" cy="520" r="1.7" fill="#cbd5e1"/><circle cx="1390" cy="560" r="1.7" fill="#cbd5e1"/><circle cx="1390" cy="600" r="1.7" fill="#cbd5e1"/><circle cx="1390" cy="640" r="1.7" fill="#cbd5e1"/><circle cx="1390" cy="680" r="1.7" fill="#cbd5e1"/><circle cx="1390" cy="720" r="1.7" fill="#cbd5e1"/><circle cx="1390" cy="760" r="1.7" fill="#cbd5e1"/><circle cx="1390" cy="800" r="1.7" fill="#cbd5e1"/><circle cx="1390" cy="840" r="1.7" fill="#cbd5e1"/><circle cx="1430" cy="120" r="1.7" fill="#cbd5e1"/><circle cx="1430" cy="160" r="1.7" fill="#cbd5e1"/><circle cx="1430" cy="200" r="1.7" fill="#cbd5e1"/><circle cx="1430" cy="240" r="1.7" fill="#cbd5e1"/><circle cx="1430" cy="280" r="1.7" fill="#cbd5e1"/><circle cx="1430" cy="320" r="1.7" fill="#cbd5e1"/><circle cx="1430" cy="360" r="1.7" fill="#cbd5e1"/><circle cx="1430" cy="400" r="1.7" fill="#cbd5e1"/><circle cx="1430" cy="440" r="1.7" fill="#cbd5e1"/><circle cx="1430" cy="480" r="1.7" fill="#cbd5e1"/><circle cx="1430" cy="520" r="1.7" fill="#cbd5e1"/><circle cx="1430" cy="560" r="1.7" fill="#cbd5e1"/><circle cx="1430" cy="600" r="1.7" fill="#cbd5e1"/><circle cx="1430" cy="640" r="1.7" fill="#cbd5e1"/><circle cx="1430" cy="680" r="1.7" fill="#cbd5e1"/><circle cx="1430" cy="720" r="1.7" fill="#cbd5e1"/><circle cx="1430" cy="760" r="1.7" fill="#cbd5e1"/><circle cx="1430" cy="800" r="1.7" fill="#cbd5e1"/><circle cx="1430" cy="840" r="1.7" fill="#cbd5e1"/><circle cx="1470" cy="120" r="1.7" fill="#cbd5e1"/><circle cx="1470" cy="160" r="1.7" fill="#cbd5e1"/><circle cx="1470" cy="200" r="1.7" fill="#cbd5e1"/><circle cx="1470" cy="240" r="1.7" fill="#cbd5e1"/><circle cx="1470" cy="280" r="1.7" fill="#cbd5e1"/><circle cx="1470" cy="320" r="1.7" fill="#cbd5e1"/><circle cx="1470" cy="360" r="1.7" fill="#cbd5e1"/><circle cx="1470" cy="400" r="1.7" fill="#cbd5e1"/><circle cx="1470" cy="440" r="1.7" fill="#cbd5e1"/><circle cx="1470" cy="480" r="1.7" fill="#cbd5e1"/><circle cx="1470" cy="520" r="1.7" fill="#cbd5e1"/><circle cx="1470" cy="560" r="1.7" fill="#cbd5e1"/><circle cx="1470" cy="600" r="1.7" fill="#cbd5e1"/><circle cx="1470" cy="640" r="1.7" fill="#cbd5e1"/><circle cx="1470" cy="680" r="1.7" fill="#cbd5e1"/><circle cx="1470" cy="720" r="1.7" fill="#cbd5e1"/><circle cx="1470" cy="760" r="1.7" fill="#cbd5e1"/><circle cx="1470" cy="800" r="1.7" fill="#cbd5e1"/><circle cx="1470" cy="840" r="1.7" fill="#cbd5e1"/><circle cx="1510" cy="120" r="1.7" fill="#cbd5e1"/><circle cx="1510" cy="160" r="1.7" fill="#cbd5e1"/><circle cx="1510" cy="200" r="1.7" fill="#cbd5e1"/><circle cx="1510" cy="240" r="1.7" fill="#cbd5e1"/><circle cx="1510" cy="280" r="1.7" fill="#cbd5e1"/><circle cx="1510" cy="320" r="1.7" fill="#cbd5e1"/><circle cx="1510" cy="360" r="1.7" fill="#cbd5e1"/><circle cx="1510" cy="400" r="1.7" fill="#cbd5e1"/><circle cx="1510" cy="440" r="1.7" fill="#cbd5e1"/><circle cx="1510" cy="480" r="1.7" fill="#cbd5e1"/><circle cx="1510" cy="520" r="1.7" fill="#cbd5e1"/><circle cx="1510" cy="560" r="1.7" fill="#cbd5e1"/><circle cx="1510" cy="600" r="1.7" fill="#cbd5e1"/><circle cx="1510" cy="640" r="1.7" fill="#cbd5e1"/><circle cx="1510" cy="680" r="1.7" fill="#cbd5e1"/><circle cx="1510" cy="720" r="1.7" fill="#cbd5e1"/><circle cx="1510" cy="760" r="1.7" fill="#cbd5e1"/><circle cx="1510" cy="800" r="1.7" fill="#cbd5e1"/><circle cx="1510" cy="840" r="1.7" fill="#cbd5e1"/></g>
  <text x="70" y="78" class="eyebrow">DOCUMENT AI PRACTICE</text>
  <text x="70" y="126" class="title">PDF/OCR 문서 처리 흐름</text>
  <text x="72" y="162" class="subtitle">읽는 모델보다 중요한 것은 block type, 위치, 표/그림 맥락을 보존하는 구조다.</text>
  <g filter="url(#soft)">
    <rect x="70" y="230" width="270" height="180" rx="24" fill="#ffffff" stroke="#d8e2ef" stroke-width="1.4"/>
    <rect x="70" y="230" width="270" height="8" rx="4" fill="#1d4ed8" opacity="0.9"/>
    <circle cx="104" cy="274" r="18" fill="#dbeafe"/>
    <text x="104" y="281" text-anchor="middle" class="label" style="fill:#1d4ed8">01</text>
    <text x="134" y="280" class="card-title">원본 PDF</text>
    <text x="98" y="318" class="card-sub">스캔/디지털 PDF</text>
<text x="98" y="343" class="card-sub">페이지·좌표계 유지</text>
  </g>
  <g filter="url(#soft)">
    <rect x="385" y="230" width="270" height="180" rx="24" fill="#ffffff" stroke="#d8e2ef" stroke-width="1.4"/>
    <rect x="385" y="230" width="270" height="8" rx="4" fill="#0f766e" opacity="0.9"/>
    <circle cx="419" cy="274" r="18" fill="#ccfbf1"/>
    <text x="419" y="281" text-anchor="middle" class="label" style="fill:#0f766e">02</text>
    <text x="449" y="280" class="card-title">Layout 분석</text>
    <text x="413" y="318" class="card-sub">title/text/table 분리</text>
<text x="413" y="343" class="card-sub">figure/formula 분리</text>
  </g>
  <g filter="url(#soft)">
    <rect x="700" y="230" width="270" height="180" rx="24" fill="#ffffff" stroke="#d8e2ef" stroke-width="1.4"/>
    <rect x="700" y="230" width="270" height="8" rx="4" fill="#6d28d9" opacity="0.9"/>
    <circle cx="734" cy="274" r="18" fill="#ede9fe"/>
    <text x="734" y="281" text-anchor="middle" class="label" style="fill:#6d28d9">03</text>
    <text x="764" y="280" class="card-title">OCR &amp; Parser</text>
    <text x="728" y="318" class="card-sub">텍스트 추출</text>
<text x="728" y="343" class="card-sub">표는 구조로 보존</text>
  </g>
  <g filter="url(#soft)">
    <rect x="1015" y="230" width="270" height="180" rx="24" fill="#ffffff" stroke="#d8e2ef" stroke-width="1.4"/>
    <rect x="1015" y="230" width="270" height="8" rx="4" fill="#b45309" opacity="0.9"/>
    <circle cx="1049" cy="274" r="18" fill="#fef3c7"/>
    <text x="1049" y="281" text-anchor="middle" class="label" style="fill:#b45309">04</text>
    <text x="1079" y="280" class="card-title">Block Schema</text>
    <text x="1043" y="318" class="card-sub">page/bbox/type 저장</text>
<text x="1043" y="343" class="card-sub">caption/section 연결</text>
  </g>
  <g filter="url(#soft)">
    <rect x="1330" y="230" width="200" height="180" rx="24" fill="#ffffff" stroke="#d8e2ef" stroke-width="1.4"/>
    <rect x="1330" y="230" width="200" height="8" rx="4" fill="#15803d" opacity="0.9"/>
    <circle cx="1364" cy="274" r="18" fill="#dcfce7"/>
    <text x="1364" y="281" text-anchor="middle" class="label" style="fill:#15803d">05</text>
    <text x="1394" y="280" class="card-title">Retrieval 입력</text>
    <text x="1358" y="318" class="card-sub">chunk/metadata 연결</text>
<text x="1358" y="343" class="card-sub">근거 위치 추적</text>
  </g>
<path class="line" d="M340 320 C362.5 320, 362.5 320, 385 320"/>
<path class="line" d="M655 320 C677.5 320, 677.5 320, 700 320"/>
<path class="line" d="M970 320 C992.5 320, 992.5 320, 1015 320"/>
<path class="line" d="M1285 320 C1307.5 320, 1307.5 320, 1330 320"/>
  <g filter="url(#shadow)">
    <rect x="120" y="500" width="1360" height="260" rx="30" fill="#0f172a"/>
    <text x="170" y="558" class="card-title" style="fill:#ffffff">검색 품질을 만드는 보존 단위</text>
    <text x="170" y="602" class="card-sub" style="fill:#cbd5e1">OCR text만 저장하면 표의 행/열, 그림의 caption, 수식의 위치가 사라진다.</text>
    <g transform="translate(170 640)"><rect x="0" y="0" width="230" height="72" rx="18" fill="#1e293b" stroke="#334155"/><text x="22" y="30" class="label" style="fill:#93c5fd">block_type</text><text x="22" y="55" class="small" style="fill:#cbd5e1">블록 종류 보존</text><rect x="250" y="0" width="230" height="72" rx="18" fill="#1e293b" stroke="#334155"/><text x="272" y="30" class="label" style="fill:#93c5fd">bbox</text><text x="272" y="55" class="small" style="fill:#cbd5e1">원문 위치로 돌아가기</text><rect x="500" y="0" width="230" height="72" rx="18" fill="#1e293b" stroke="#334155"/><text x="522" y="30" class="label" style="fill:#93c5fd">page</text><text x="522" y="55" class="small" style="fill:#cbd5e1">인용·검증 위치</text><rect x="750" y="0" width="230" height="72" rx="18" fill="#1e293b" stroke="#334155"/><text x="772" y="30" class="label" style="fill:#93c5fd">metadata</text><text x="772" y="55" class="small" style="fill:#cbd5e1">섹션·출처·파서</text><rect x="1000" y="0" width="230" height="72" rx="18" fill="#1e293b" stroke="#334155"/><text x="1022" y="30" class="label" style="fill:#93c5fd">raw_link</text><text x="1022" y="55" class="small" style="fill:#cbd5e1">원본 파일 추적</text></g></g></svg>
