<svg xmlns="http://www.w3.org/2000/svg" viewBox="0 0 1600 900" width="1600" height="900" role="img" aria-labelledby="title desc">
  <title id="title">Financial RAG Evidence Design</title>
  <desc id="desc">금융 RAG에서 리포트, 뉴스, 표, 그래프 근거를 분리하고 답변에 연결하는 구조.</desc>
  <defs>
    <linearGradient id="bg" x1="0" y1="0" x2="1" y2="1">
      <stop offset="0" stop-color="#f8fafc"/>
      <stop offset="0.55" stop-color="#ffffff"/>
      <stop offset="1" stop-color="#eef6ff"/>
    </linearGradient>
    <filter id="shadow" x="-20%" y="-20%" width="140%" height="140%">
      <feDropShadow dx="0" dy="14" stdDeviation="18" flood-color="#0f172a" flood-opacity="0.14"/>
    </filter>
    <filter id="soft" x="-20%" y="-20%" width="140%" height="140%">
      <feDropShadow dx="0" dy="8" stdDeviation="10" flood-color="#1e293b" flood-opacity="0.08"/>
    </filter>
    <marker id="arrow" markerWidth="14" markerHeight="12" refX="12" refY="6" orient="auto">
      <path d="M0,0 L14,6 L0,12 Z" fill="#0f766e"/>
    </marker>
    <style><![CDATA[
      text { font-family: "Pretendard", "Noto Sans KR", "Apple SD Gothic Neo", "Malgun Gothic", Inter, Arial, sans-serif; fill: #0f172a; }
      .title { font-size: 42px; font-weight: 900; letter-spacing: 0; }
      .subtitle { font-size: 20px; fill: #475569; font-weight: 500; }
      .eyebrow { font-size: 15px; fill: #0f766e; font-weight: 900; letter-spacing: 1.2px; }
      .card-title { font-size: 24px; font-weight: 850; }
      .card-sub { font-size: 16px; fill: #475569; font-weight: 550; }
      .small { font-size: 14px; fill: #64748b; font-weight: 600; }
      .label { font-size: 15px; fill: #334155; font-weight: 800; }
      .metric { font-size: 20px; font-weight: 900; }
      .line { stroke: #0f766e; stroke-width: 3.5; fill: none; marker-end: url(#arrow); stroke-linecap: round; stroke-linejoin: round; }
    ]]></style>
  </defs>
  <rect width="1600" height="900" fill="url(#bg)"/>
  <path d="M0 104 C260 60 395 150 650 92 C935 28 1070 88 1600 44" fill="none" stroke="#dbeafe" stroke-width="24" opacity="0.75"/>
  <g opacity="0.42"><circle cx="70" cy="120" r="1.7" fill="#cbd5e1"/><circle cx="70" cy="160" r="1.7" fill="#cbd5e1"/><circle cx="70" cy="200" r="1.7" fill="#cbd5e1"/><circle cx="70" cy="240" r="1.7" fill="#cbd5e1"/><circle cx="70" cy="280" r="1.7" fill="#cbd5e1"/><circle cx="70" cy="320" r="1.7" fill="#cbd5e1"/><circle cx="70" cy="360" r="1.7" fill="#cbd5e1"/><circle cx="70" cy="400" r="1.7" fill="#cbd5e1"/><circle cx="70" cy="440" r="1.7" fill="#cbd5e1"/><circle cx="70" cy="480" r="1.7" fill="#cbd5e1"/><circle cx="70" cy="520" r="1.7" fill="#cbd5e1"/><circle cx="70" cy="560" r="1.7" fill="#cbd5e1"/><circle cx="70" cy="600" r="1.7" fill="#cbd5e1"/><circle cx="70" cy="640" r="1.7" fill="#cbd5e1"/><circle cx="70" cy="680" r="1.7" fill="#cbd5e1"/><circle cx="70" cy="720" r="1.7" fill="#cbd5e1"/><circle cx="70" cy="760" r="1.7" fill="#cbd5e1"/><circle cx="70" cy="800" r="1.7" fill="#cbd5e1"/><circle cx="70" cy="840" r="1.7" fill="#cbd5e1"/><circle cx="110" cy="120" r="1.7" fill="#cbd5e1"/><circle cx="110" cy="160" r="1.7" fill="#cbd5e1"/><circle cx="110" cy="200" r="1.7" fill="#cbd5e1"/><circle cx="110" cy="240" r="1.7" fill="#cbd5e1"/><circle cx="110" cy="280" r="1.7" fill="#cbd5e1"/><circle cx="110" cy="320" r="1.7" fill="#cbd5e1"/><circle cx="110" cy="360" r="1.7" fill="#cbd5e1"/><circle cx="110" cy="400" r="1.7" fill="#cbd5e1"/><circle cx="110" cy="440" r="1.7" fill="#cbd5e1"/><circle cx="110" cy="480" r="1.7" fill="#cbd5e1"/><circle cx="110" cy="520" r="1.7" fill="#cbd5e1"/><circle cx="110" cy="560" r="1.7" fill="#cbd5e1"/><circle cx="110" cy="600" r="1.7" fill="#cbd5e1"/><circle cx="110" cy="640" r="1.7" fill="#cbd5e1"/><circle cx="110" cy="680" r="1.7" fill="#cbd5e1"/><circle cx="110" cy="720" r="1.7" fill="#cbd5e1"/><circle cx="110" cy="760" r="1.7" fill="#cbd5e1"/><circle cx="110" cy="800" r="1.7" fill="#cbd5e1"/><circle cx="110" cy="840" r="1.7" fill="#cbd5e1"/><circle cx="150" cy="120" r="1.7" fill="#cbd5e1"/><circle cx="150" cy="160" r="1.7" fill="#cbd5e1"/><circle cx="150" cy="200" r="1.7" fill="#cbd5e1"/><circle cx="150" cy="240" r="1.7" fill="#cbd5e1"/><circle cx="150" cy="280" r="1.7" fill="#cbd5e1"/><circle cx="150" cy="320" r="1.7" fill="#cbd5e1"/><circle cx="150" cy="360" r="1.7" fill="#cbd5e1"/><circle cx="150" cy="400" r="1.7" fill="#cbd5e1"/><circle cx="150" cy="440" r="1.7" fill="#cbd5e1"/><circle cx="150" cy="480" r="1.7" fill="#cbd5e1"/><circle cx="150" cy="520" r="1.7" fill="#cbd5e1"/><circle cx="150" cy="560" r="1.7" fill="#cbd5e1"/><circle cx="150" cy="600" r="1.7" fill="#cbd5e1"/><circle cx="150" cy="640" r="1.7" fill="#cbd5e1"/><circle cx="150" cy="680" r="1.7" fill="#cbd5e1"/><circle cx="150" cy="720" r="1.7" fill="#cbd5e1"/><circle cx="150" cy="760" r="1.7" fill="#cbd5e1"/><circle cx="150" cy="800" r="1.7" fill="#cbd5e1"/><circle cx="150" cy="840" r="1.7" fill="#cbd5e1"/><circle cx="190" cy="120" r="1.7" fill="#cbd5e1"/><circle cx="190" cy="160" r="1.7" fill="#cbd5e1"/><circle cx="190" cy="200" r="1.7" fill="#cbd5e1"/><circle cx="190" cy="240" r="1.7" fill="#cbd5e1"/><circle cx="190" cy="280" r="1.7" fill="#cbd5e1"/><circle cx="190" cy="320" r="1.7" fill="#cbd5e1"/><circle cx="190" cy="360" r="1.7" fill="#cbd5e1"/><circle cx="190" cy="400" r="1.7" fill="#cbd5e1"/><circle cx="190" cy="440" r="1.7" fill="#cbd5e1"/><circle cx="190" cy="480" r="1.7" fill="#cbd5e1"/><circle cx="190" cy="520" r="1.7" fill="#cbd5e1"/><circle cx="190" cy="560" r="1.7" fill="#cbd5e1"/><circle cx="190" cy="600" r="1.7" fill="#cbd5e1"/><circle cx="190" cy="640" r="1.7" fill="#cbd5e1"/><circle cx="190" cy="680" r="1.7" fill="#cbd5e1"/><circle cx="190" cy="720" r="1.7" fill="#cbd5e1"/><circle cx="190" cy="760" r="1.7" fill="#cbd5e1"/><circle cx="190" cy="800" r="1.7" fill="#cbd5e1"/><circle cx="190" cy="840" r="1.7" fill="#cbd5e1"/><circle cx="230" cy="120" r="1.7" fill="#cbd5e1"/><circle cx="230" cy="160" r="1.7" fill="#cbd5e1"/><circle cx="230" cy="200" r="1.7" fill="#cbd5e1"/><circle cx="230" cy="240" r="1.7" fill="#cbd5e1"/><circle cx="230" cy="280" r="1.7" fill="#cbd5e1"/><circle cx="230" cy="320" r="1.7" fill="#cbd5e1"/><circle cx="230" cy="360" r="1.7" fill="#cbd5e1"/><circle cx="230" cy="400" r="1.7" fill="#cbd5e1"/><circle cx="230" cy="440" r="1.7" fill="#cbd5e1"/><circle cx="230" cy="480" r="1.7" fill="#cbd5e1"/><circle cx="230" cy="520" r="1.7" fill="#cbd5e1"/><circle cx="230" cy="560" r="1.7" fill="#cbd5e1"/><circle cx="230" cy="600" r="1.7" fill="#cbd5e1"/><circle cx="230" cy="640" r="1.7" fill="#cbd5e1"/><circle cx="230" cy="680" r="1.7" fill="#cbd5e1"/><circle cx="230" cy="720" r="1.7" fill="#cbd5e1"/><circle cx="230" cy="760" r="1.7" fill="#cbd5e1"/><circle cx="230" cy="800" r="1.7" fill="#cbd5e1"/><circle cx="230" cy="840" r="1.7" fill="#cbd5e1"/><circle cx="270" cy="120" r="1.7" fill="#cbd5e1"/><circle cx="270" cy="160" r="1.7" fill="#cbd5e1"/><circle cx="270" cy="200" r="1.7" fill="#cbd5e1"/><circle cx="270" cy="240" r="1.7" fill="#cbd5e1"/><circle cx="270" cy="280" r="1.7" fill="#cbd5e1"/><circle cx="270" cy="320" r="1.7" fill="#cbd5e1"/><circle cx="270" cy="360" r="1.7" fill="#cbd5e1"/><circle cx="270" cy="400" r="1.7" fill="#cbd5e1"/><circle cx="270" cy="440" r="1.7" fill="#cbd5e1"/><circle cx="270" cy="480" r="1.7" fill="#cbd5e1"/><circle cx="270" cy="520" r="1.7" fill="#cbd5e1"/><circle cx="270" cy="560" r="1.7" fill="#cbd5e1"/><circle cx="270" cy="600" r="1.7" fill="#cbd5e1"/><circle cx="270" cy="640" r="1.7" fill="#cbd5e1"/><circle cx="270" cy="680" r="1.7" fill="#cbd5e1"/><circle cx="270" cy="720" r="1.7" fill="#cbd5e1"/><circle cx="270" cy="760" r="1.7" fill="#cbd5e1"/><circle cx="270" cy="800" r="1.7" fill="#cbd5e1"/><circle cx="270" cy="840" r="1.7" fill="#cbd5e1"/><circle cx="310" cy="120" r="1.7" fill="#cbd5e1"/><circle cx="310" cy="160" r="1.7" fill="#cbd5e1"/><circle cx="310" cy="200" r="1.7" fill="#cbd5e1"/><circle cx="310" cy="240" r="1.7" fill="#cbd5e1"/><circle cx="310" cy="280" r="1.7" fill="#cbd5e1"/><circle cx="310" cy="320" r="1.7" fill="#cbd5e1"/><circle cx="310" cy="360" r="1.7" fill="#cbd5e1"/><circle cx="310" cy="400" r="1.7" fill="#cbd5e1"/><circle cx="310" cy="440" r="1.7" fill="#cbd5e1"/><circle cx="310" cy="480" r="1.7" fill="#cbd5e1"/><circle cx="310" cy="520" r="1.7" fill="#cbd5e1"/><circle cx="310" cy="560" r="1.7" fill="#cbd5e1"/><circle cx="310" cy="600" r="1.7" fill="#cbd5e1"/><circle cx="310" cy="640" r="1.7" fill="#cbd5e1"/><circle cx="310" cy="680" r="1.7" fill="#cbd5e1"/><circle cx="310" cy="720" r="1.7" fill="#cbd5e1"/><circle cx="310" cy="760" r="1.7" fill="#cbd5e1"/><circle cx="310" cy="800" r="1.7" fill="#cbd5e1"/><circle cx="310" cy="840" r="1.7" fill="#cbd5e1"/><circle cx="350" cy="120" r="1.7" fill="#cbd5e1"/><circle cx="350" cy="160" r="1.7" fill="#cbd5e1"/><circle cx="350" cy="200" r="1.7" fill="#cbd5e1"/><circle cx="350" cy="240" r="1.7" fill="#cbd5e1"/><circle cx="350" cy="280" r="1.7" fill="#cbd5e1"/><circle cx="350" cy="320" r="1.7" fill="#cbd5e1"/><circle cx="350" cy="360" r="1.7" fill="#cbd5e1"/><circle cx="350" cy="400" r="1.7" fill="#cbd5e1"/><circle cx="350" cy="440" r="1.7" fill="#cbd5e1"/><circle cx="350" cy="480" r="1.7" fill="#cbd5e1"/><circle cx="350" cy="520" r="1.7" fill="#cbd5e1"/><circle cx="350" cy="560" r="1.7" fill="#cbd5e1"/><circle cx="350" cy="600" r="1.7" fill="#cbd5e1"/><circle cx="350" cy="640" r="1.7" fill="#cbd5e1"/><circle cx="350" cy="680" r="1.7" fill="#cbd5e1"/><circle cx="350" cy="720" r="1.7" fill="#cbd5e1"/><circle cx="350" cy="760" r="1.7" fill="#cbd5e1"/><circle cx="350" cy="800" r="1.7" fill="#cbd5e1"/><circle cx="350" cy="840" r="1.7" fill="#cbd5e1"/><circle cx="390" cy="120" r="1.7" fill="#cbd5e1"/><circle cx="390" cy="160" r="1.7" fill="#cbd5e1"/><circle cx="390" cy="200" r="1.7" fill="#cbd5e1"/><circle cx="390" cy="240" r="1.7" fill="#cbd5e1"/><circle cx="390" cy="280" r="1.7" fill="#cbd5e1"/><circle cx="390" cy="320" r="1.7" fill="#cbd5e1"/><circle cx="390" cy="360" r="1.7" fill="#cbd5e1"/><circle cx="390" cy="400" r="1.7" fill="#cbd5e1"/><circle cx="390" cy="440" r="1.7" fill="#cbd5e1"/><circle cx="390" cy="480" r="1.7" fill="#cbd5e1"/><circle cx="390" cy="520" r="1.7" fill="#cbd5e1"/><circle cx="390" cy="560" r="1.7" fill="#cbd5e1"/><circle cx="390" cy="600" r="1.7" fill="#cbd5e1"/><circle cx="390" cy="640" r="1.7" fill="#cbd5e1"/><circle cx="390" cy="680" r="1.7" fill="#cbd5e1"/><circle cx="390" cy="720" r="1.7" fill="#cbd5e1"/><circle cx="390" cy="760" r="1.7" fill="#cbd5e1"/><circle cx="390" cy="800" r="1.7" fill="#cbd5e1"/><circle cx="390" cy="840" r="1.7" fill="#cbd5e1"/><circle cx="430" cy="120" r="1.7" fill="#cbd5e1"/><circle cx="430" cy="160" r="1.7" fill="#cbd5e1"/><circle cx="430" cy="200" r="1.7" fill="#cbd5e1"/><circle cx="430" cy="240" r="1.7" fill="#cbd5e1"/><circle cx="430" cy="280" r="1.7" fill="#cbd5e1"/><circle cx="430" cy="320" r="1.7" fill="#cbd5e1"/><circle cx="430" cy="360" r="1.7" fill="#cbd5e1"/><circle cx="430" cy="400" r="1.7" fill="#cbd5e1"/><circle cx="430" cy="440" r="1.7" fill="#cbd5e1"/><circle cx="430" cy="480" r="1.7" fill="#cbd5e1"/><circle cx="430" cy="520" r="1.7" fill="#cbd5e1"/><circle cx="430" cy="560" r="1.7" fill="#cbd5e1"/><circle cx="430" cy="600" r="1.7" fill="#cbd5e1"/><circle cx="430" cy="640" r="1.7" fill="#cbd5e1"/><circle cx="430" cy="680" r="1.7" fill="#cbd5e1"/><circle cx="430" cy="720" r="1.7" fill="#cbd5e1"/><circle cx="430" cy="760" r="1.7" fill="#cbd5e1"/><circle cx="430" cy="800" r="1.7" fill="#cbd5e1"/><circle cx="430" cy="840" r="1.7" fill="#cbd5e1"/><circle cx="470" cy="120" r="1.7" fill="#cbd5e1"/><circle cx="470" cy="160" r="1.7" fill="#cbd5e1"/><circle cx="470" cy="200" r="1.7" fill="#cbd5e1"/><circle cx="470" cy="240" r="1.7" fill="#cbd5e1"/><circle cx="470" cy="280" r="1.7" fill="#cbd5e1"/><circle cx="470" cy="320" r="1.7" fill="#cbd5e1"/><circle cx="470" cy="360" r="1.7" fill="#cbd5e1"/><circle cx="470" cy="400" r="1.7" fill="#cbd5e1"/><circle cx="470" cy="440" r="1.7" fill="#cbd5e1"/><circle cx="470" cy="480" r="1.7" fill="#cbd5e1"/><circle cx="470" cy="520" r="1.7" fill="#cbd5e1"/><circle cx="470" cy="560" r="1.7" fill="#cbd5e1"/><circle cx="470" cy="600" r="1.7" fill="#cbd5e1"/><circle cx="470" cy="640" r="1.7" fill="#cbd5e1"/><circle cx="470" cy="680" r="1.7" fill="#cbd5e1"/><circle cx="470" cy="720" r="1.7" fill="#cbd5e1"/><circle cx="470" cy="760" r="1.7" fill="#cbd5e1"/><circle cx="470" cy="800" r="1.7" fill="#cbd5e1"/><circle cx="470" cy="840" r="1.7" fill="#cbd5e1"/><circle cx="510" cy="120" r="1.7" fill="#cbd5e1"/><circle cx="510" cy="160" r="1.7" fill="#cbd5e1"/><circle cx="510" cy="200" r="1.7" fill="#cbd5e1"/><circle cx="510" cy="240" r="1.7" fill="#cbd5e1"/><circle cx="510" cy="280" r="1.7" fill="#cbd5e1"/><circle cx="510" cy="320" r="1.7" fill="#cbd5e1"/><circle cx="510" cy="360" r="1.7" fill="#cbd5e1"/><circle cx="510" cy="400" r="1.7" fill="#cbd5e1"/><circle cx="510" cy="440" r="1.7" fill="#cbd5e1"/><circle cx="510" cy="480" r="1.7" fill="#cbd5e1"/><circle cx="510" cy="520" r="1.7" fill="#cbd5e1"/><circle cx="510" cy="560" r="1.7" fill="#cbd5e1"/><circle cx="510" cy="600" r="1.7" fill="#cbd5e1"/><circle cx="510" cy="640" r="1.7" fill="#cbd5e1"/><circle cx="510" cy="680" r="1.7" fill="#cbd5e1"/><circle cx="510" cy="720" r="1.7" fill="#cbd5e1"/><circle cx="510" cy="760" r="1.7" fill="#cbd5e1"/><circle cx="510" cy="800" r="1.7" fill="#cbd5e1"/><circle cx="510" cy="840" r="1.7" fill="#cbd5e1"/><circle cx="550" cy="120" r="1.7" fill="#cbd5e1"/><circle cx="550" cy="160" r="1.7" fill="#cbd5e1"/><circle cx="550" cy="200" r="1.7" fill="#cbd5e1"/><circle cx="550" cy="240" r="1.7" fill="#cbd5e1"/><circle cx="550" cy="280" r="1.7" fill="#cbd5e1"/><circle cx="550" cy="320" r="1.7" fill="#cbd5e1"/><circle cx="550" cy="360" r="1.7" fill="#cbd5e1"/><circle cx="550" cy="400" r="1.7" fill="#cbd5e1"/><circle cx="550" cy="440" r="1.7" fill="#cbd5e1"/><circle cx="550" cy="480" r="1.7" fill="#cbd5e1"/><circle cx="550" cy="520" r="1.7" fill="#cbd5e1"/><circle cx="550" cy="560" r="1.7" fill="#cbd5e1"/><circle cx="550" cy="600" r="1.7" fill="#cbd5e1"/><circle cx="550" cy="640" r="1.7" fill="#cbd5e1"/><circle cx="550" cy="680" r="1.7" fill="#cbd5e1"/><circle cx="550" cy="720" r="1.7" fill="#cbd5e1"/><circle cx="550" cy="760" r="1.7" fill="#cbd5e1"/><circle cx="550" cy="800" r="1.7" fill="#cbd5e1"/><circle cx="550" cy="840" r="1.7" fill="#cbd5e1"/><circle cx="590" cy="120" r="1.7" fill="#cbd5e1"/><circle cx="590" cy="160" r="1.7" fill="#cbd5e1"/><circle cx="590" cy="200" r="1.7" fill="#cbd5e1"/><circle cx="590" cy="240" r="1.7" fill="#cbd5e1"/><circle cx="590" cy="280" r="1.7" fill="#cbd5e1"/><circle cx="590" cy="320" r="1.7" fill="#cbd5e1"/><circle cx="590" cy="360" r="1.7" fill="#cbd5e1"/><circle cx="590" cy="400" r="1.7" fill="#cbd5e1"/><circle cx="590" cy="440" r="1.7" fill="#cbd5e1"/><circle cx="590" cy="480" r="1.7" fill="#cbd5e1"/><circle cx="590" cy="520" r="1.7" fill="#cbd5e1"/><circle cx="590" cy="560" r="1.7" fill="#cbd5e1"/><circle cx="590" cy="600" r="1.7" fill="#cbd5e1"/><circle cx="590" cy="640" r="1.7" fill="#cbd5e1"/><circle cx="590" cy="680" r="1.7" fill="#cbd5e1"/><circle cx="590" cy="720" r="1.7" fill="#cbd5e1"/><circle cx="590" cy="760" r="1.7" fill="#cbd5e1"/><circle cx="590" cy="800" r="1.7" fill="#cbd5e1"/><circle cx="590" cy="840" r="1.7" fill="#cbd5e1"/><circle cx="630" cy="120" r="1.7" fill="#cbd5e1"/><circle cx="630" cy="160" r="1.7" fill="#cbd5e1"/><circle cx="630" cy="200" r="1.7" fill="#cbd5e1"/><circle cx="630" cy="240" r="1.7" fill="#cbd5e1"/><circle cx="630" cy="280" r="1.7" fill="#cbd5e1"/><circle cx="630" cy="320" r="1.7" fill="#cbd5e1"/><circle cx="630" cy="360" r="1.7" fill="#cbd5e1"/><circle cx="630" cy="400" r="1.7" fill="#cbd5e1"/><circle cx="630" cy="440" r="1.7" fill="#cbd5e1"/><circle cx="630" cy="480" r="1.7" fill="#cbd5e1"/><circle cx="630" cy="520" r="1.7" fill="#cbd5e1"/><circle cx="630" cy="560" r="1.7" fill="#cbd5e1"/><circle cx="630" cy="600" r="1.7" fill="#cbd5e1"/><circle cx="630" cy="640" r="1.7" fill="#cbd5e1"/><circle cx="630" cy="680" r="1.7" fill="#cbd5e1"/><circle cx="630" cy="720" r="1.7" fill="#cbd5e1"/><circle cx="630" cy="760" r="1.7" fill="#cbd5e1"/><circle cx="630" cy="800" r="1.7" fill="#cbd5e1"/><circle cx="630" cy="840" r="1.7" fill="#cbd5e1"/><circle cx="670" cy="120" r="1.7" fill="#cbd5e1"/><circle cx="670" cy="160" r="1.7" fill="#cbd5e1"/><circle cx="670" cy="200" r="1.7" fill="#cbd5e1"/><circle cx="670" cy="240" r="1.7" fill="#cbd5e1"/><circle cx="670" cy="280" r="1.7" fill="#cbd5e1"/><circle cx="670" cy="320" r="1.7" fill="#cbd5e1"/><circle cx="670" cy="360" r="1.7" fill="#cbd5e1"/><circle cx="670" cy="400" r="1.7" fill="#cbd5e1"/><circle cx="670" cy="440" r="1.7" fill="#cbd5e1"/><circle cx="670" cy="480" r="1.7" fill="#cbd5e1"/><circle cx="670" cy="520" r="1.7" fill="#cbd5e1"/><circle cx="670" cy="560" r="1.7" fill="#cbd5e1"/><circle cx="670" cy="600" r="1.7" fill="#cbd5e1"/><circle cx="670" cy="640" r="1.7" fill="#cbd5e1"/><circle cx="670" cy="680" r="1.7" fill="#cbd5e1"/><circle cx="670" cy="720" r="1.7" fill="#cbd5e1"/><circle cx="670" cy="760" r="1.7" fill="#cbd5e1"/><circle cx="670" cy="800" r="1.7" fill="#cbd5e1"/><circle cx="670" cy="840" r="1.7" fill="#cbd5e1"/><circle cx="710" cy="120" r="1.7" fill="#cbd5e1"/><circle cx="710" cy="160" r="1.7" fill="#cbd5e1"/><circle cx="710" cy="200" r="1.7" fill="#cbd5e1"/><circle cx="710" cy="240" r="1.7" fill="#cbd5e1"/><circle cx="710" cy="280" r="1.7" fill="#cbd5e1"/><circle cx="710" cy="320" r="1.7" fill="#cbd5e1"/><circle cx="710" cy="360" r="1.7" fill="#cbd5e1"/><circle cx="710" cy="400" r="1.7" fill="#cbd5e1"/><circle cx="710" cy="440" r="1.7" fill="#cbd5e1"/><circle cx="710" cy="480" r="1.7" fill="#cbd5e1"/><circle cx="710" cy="520" r="1.7" fill="#cbd5e1"/><circle cx="710" cy="560" r="1.7" fill="#cbd5e1"/><circle cx="710" cy="600" r="1.7" fill="#cbd5e1"/><circle cx="710" cy="640" r="1.7" fill="#cbd5e1"/><circle cx="710" cy="680" r="1.7" fill="#cbd5e1"/><circle cx="710" cy="720" r="1.7" fill="#cbd5e1"/><circle cx="710" cy="760" r="1.7" fill="#cbd5e1"/><circle cx="710" cy="800" r="1.7" fill="#cbd5e1"/><circle cx="710" cy="840" r="1.7" fill="#cbd5e1"/><circle cx="750" cy="120" r="1.7" fill="#cbd5e1"/><circle cx="750" cy="160" r="1.7" fill="#cbd5e1"/><circle cx="750" cy="200" r="1.7" fill="#cbd5e1"/><circle cx="750" cy="240" r="1.7" fill="#cbd5e1"/><circle cx="750" cy="280" r="1.7" fill="#cbd5e1"/><circle cx="750" cy="320" r="1.7" fill="#cbd5e1"/><circle cx="750" cy="360" r="1.7" fill="#cbd5e1"/><circle cx="750" cy="400" r="1.7" fill="#cbd5e1"/><circle cx="750" cy="440" r="1.7" fill="#cbd5e1"/><circle cx="750" cy="480" r="1.7" fill="#cbd5e1"/><circle cx="750" cy="520" r="1.7" fill="#cbd5e1"/><circle cx="750" cy="560" r="1.7" fill="#cbd5e1"/><circle cx="750" cy="600" r="1.7" fill="#cbd5e1"/><circle cx="750" cy="640" r="1.7" fill="#cbd5e1"/><circle cx="750" cy="680" r="1.7" fill="#cbd5e1"/><circle cx="750" cy="720" r="1.7" fill="#cbd5e1"/><circle cx="750" cy="760" r="1.7" fill="#cbd5e1"/><circle cx="750" cy="800" r="1.7" fill="#cbd5e1"/><circle cx="750" cy="840" r="1.7" fill="#cbd5e1"/><circle cx="790" cy="120" r="1.7" fill="#cbd5e1"/><circle cx="790" cy="160" r="1.7" fill="#cbd5e1"/><circle cx="790" cy="200" r="1.7" fill="#cbd5e1"/><circle cx="790" cy="240" r="1.7" fill="#cbd5e1"/><circle cx="790" cy="280" r="1.7" fill="#cbd5e1"/><circle cx="790" cy="320" r="1.7" fill="#cbd5e1"/><circle cx="790" cy="360" r="1.7" fill="#cbd5e1"/><circle cx="790" cy="400" r="1.7" fill="#cbd5e1"/><circle cx="790" cy="440" r="1.7" fill="#cbd5e1"/><circle cx="790" cy="480" r="1.7" fill="#cbd5e1"/><circle cx="790" cy="520" r="1.7" fill="#cbd5e1"/><circle cx="790" cy="560" r="1.7" fill="#cbd5e1"/><circle cx="790" cy="600" r="1.7" fill="#cbd5e1"/><circle cx="790" cy="640" r="1.7" fill="#cbd5e1"/><circle cx="790" cy="680" r="1.7" fill="#cbd5e1"/><circle cx="790" cy="720" r="1.7" fill="#cbd5e1"/><circle cx="790" cy="760" r="1.7" fill="#cbd5e1"/><circle cx="790" cy="800" r="1.7" fill="#cbd5e1"/><circle cx="790" cy="840" r="1.7" fill="#cbd5e1"/><circle cx="830" cy="120" r="1.7" fill="#cbd5e1"/><circle cx="830" cy="160" r="1.7" fill="#cbd5e1"/><circle cx="830" cy="200" r="1.7" fill="#cbd5e1"/><circle cx="830" cy="240" r="1.7" fill="#cbd5e1"/><circle cx="830" cy="280" r="1.7" fill="#cbd5e1"/><circle cx="830" cy="320" r="1.7" fill="#cbd5e1"/><circle cx="830" cy="360" r="1.7" fill="#cbd5e1"/><circle cx="830" cy="400" r="1.7" fill="#cbd5e1"/><circle cx="830" cy="440" r="1.7" fill="#cbd5e1"/><circle cx="830" cy="480" r="1.7" fill="#cbd5e1"/><circle cx="830" cy="520" r="1.7" fill="#cbd5e1"/><circle cx="830" cy="560" r="1.7" fill="#cbd5e1"/><circle cx="830" cy="600" r="1.7" fill="#cbd5e1"/><circle cx="830" cy="640" r="1.7" fill="#cbd5e1"/><circle cx="830" cy="680" r="1.7" fill="#cbd5e1"/><circle cx="830" cy="720" r="1.7" fill="#cbd5e1"/><circle cx="830" cy="760" r="1.7" fill="#cbd5e1"/><circle cx="830" cy="800" r="1.7" fill="#cbd5e1"/><circle cx="830" cy="840" r="1.7" fill="#cbd5e1"/><circle cx="870" cy="120" r="1.7" fill="#cbd5e1"/><circle cx="870" cy="160" r="1.7" fill="#cbd5e1"/><circle cx="870" cy="200" r="1.7" fill="#cbd5e1"/><circle cx="870" cy="240" r="1.7" fill="#cbd5e1"/><circle cx="870" cy="280" r="1.7" fill="#cbd5e1"/><circle cx="870" cy="320" r="1.7" fill="#cbd5e1"/><circle cx="870" cy="360" r="1.7" fill="#cbd5e1"/><circle cx="870" cy="400" r="1.7" fill="#cbd5e1"/><circle cx="870" cy="440" r="1.7" fill="#cbd5e1"/><circle cx="870" cy="480" r="1.7" fill="#cbd5e1"/><circle cx="870" cy="520" r="1.7" fill="#cbd5e1"/><circle cx="870" cy="560" r="1.7" fill="#cbd5e1"/><circle cx="870" cy="600" r="1.7" fill="#cbd5e1"/><circle cx="870" cy="640" r="1.7" fill="#cbd5e1"/><circle cx="870" cy="680" r="1.7" fill="#cbd5e1"/><circle cx="870" cy="720" r="1.7" fill="#cbd5e1"/><circle cx="870" cy="760" r="1.7" fill="#cbd5e1"/><circle cx="870" cy="800" r="1.7" fill="#cbd5e1"/><circle cx="870" cy="840" r="1.7" fill="#cbd5e1"/><circle cx="910" cy="120" r="1.7" fill="#cbd5e1"/><circle cx="910" cy="160" r="1.7" fill="#cbd5e1"/><circle cx="910" cy="200" r="1.7" fill="#cbd5e1"/><circle cx="910" cy="240" r="1.7" fill="#cbd5e1"/><circle cx="910" cy="280" r="1.7" fill="#cbd5e1"/><circle cx="910" cy="320" r="1.7" fill="#cbd5e1"/><circle cx="910" cy="360" r="1.7" fill="#cbd5e1"/><circle cx="910" cy="400" r="1.7" fill="#cbd5e1"/><circle cx="910" cy="440" r="1.7" fill="#cbd5e1"/><circle cx="910" cy="480" r="1.7" fill="#cbd5e1"/><circle cx="910" cy="520" r="1.7" fill="#cbd5e1"/><circle cx="910" cy="560" r="1.7" fill="#cbd5e1"/><circle cx="910" cy="600" r="1.7" fill="#cbd5e1"/><circle cx="910" cy="640" r="1.7" fill="#cbd5e1"/><circle cx="910" cy="680" r="1.7" fill="#cbd5e1"/><circle cx="910" cy="720" r="1.7" fill="#cbd5e1"/><circle cx="910" cy="760" r="1.7" fill="#cbd5e1"/><circle cx="910" cy="800" r="1.7" fill="#cbd5e1"/><circle cx="910" cy="840" r="1.7" fill="#cbd5e1"/><circle cx="950" cy="120" r="1.7" fill="#cbd5e1"/><circle cx="950" cy="160" r="1.7" fill="#cbd5e1"/><circle cx="950" cy="200" r="1.7" fill="#cbd5e1"/><circle cx="950" cy="240" r="1.7" fill="#cbd5e1"/><circle cx="950" cy="280" r="1.7" fill="#cbd5e1"/><circle cx="950" cy="320" r="1.7" fill="#cbd5e1"/><circle cx="950" cy="360" r="1.7" fill="#cbd5e1"/><circle cx="950" cy="400" r="1.7" fill="#cbd5e1"/><circle cx="950" cy="440" r="1.7" fill="#cbd5e1"/><circle cx="950" cy="480" r="1.7" fill="#cbd5e1"/><circle cx="950" cy="520" r="1.7" fill="#cbd5e1"/><circle cx="950" cy="560" r="1.7" fill="#cbd5e1"/><circle cx="950" cy="600" r="1.7" fill="#cbd5e1"/><circle cx="950" cy="640" r="1.7" fill="#cbd5e1"/><circle cx="950" cy="680" r="1.7" fill="#cbd5e1"/><circle cx="950" cy="720" r="1.7" fill="#cbd5e1"/><circle cx="950" cy="760" r="1.7" fill="#cbd5e1"/><circle cx="950" cy="800" r="1.7" fill="#cbd5e1"/><circle cx="950" cy="840" r="1.7" fill="#cbd5e1"/><circle cx="990" cy="120" r="1.7" fill="#cbd5e1"/><circle cx="990" cy="160" r="1.7" fill="#cbd5e1"/><circle cx="990" cy="200" r="1.7" fill="#cbd5e1"/><circle cx="990" cy="240" r="1.7" fill="#cbd5e1"/><circle cx="990" cy="280" r="1.7" fill="#cbd5e1"/><circle cx="990" cy="320" r="1.7" fill="#cbd5e1"/><circle cx="990" cy="360" r="1.7" fill="#cbd5e1"/><circle cx="990" cy="400" r="1.7" fill="#cbd5e1"/><circle cx="990" cy="440" r="1.7" fill="#cbd5e1"/><circle cx="990" cy="480" r="1.7" fill="#cbd5e1"/><circle cx="990" cy="520" r="1.7" fill="#cbd5e1"/><circle cx="990" cy="560" r="1.7" fill="#cbd5e1"/><circle cx="990" cy="600" r="1.7" fill="#cbd5e1"/><circle cx="990" cy="640" r="1.7" fill="#cbd5e1"/><circle cx="990" cy="680" r="1.7" fill="#cbd5e1"/><circle cx="990" cy="720" r="1.7" fill="#cbd5e1"/><circle cx="990" cy="760" r="1.7" fill="#cbd5e1"/><circle cx="990" cy="800" r="1.7" fill="#cbd5e1"/><circle cx="990" cy="840" r="1.7" fill="#cbd5e1"/><circle cx="1030" cy="120" r="1.7" fill="#cbd5e1"/><circle cx="1030" cy="160" r="1.7" fill="#cbd5e1"/><circle cx="1030" cy="200" r="1.7" fill="#cbd5e1"/><circle cx="1030" cy="240" r="1.7" fill="#cbd5e1"/><circle cx="1030" cy="280" r="1.7" fill="#cbd5e1"/><circle cx="1030" cy="320" r="1.7" fill="#cbd5e1"/><circle cx="1030" cy="360" r="1.7" fill="#cbd5e1"/><circle cx="1030" cy="400" r="1.7" fill="#cbd5e1"/><circle cx="1030" cy="440" r="1.7" fill="#cbd5e1"/><circle cx="1030" cy="480" r="1.7" fill="#cbd5e1"/><circle cx="1030" cy="520" r="1.7" fill="#cbd5e1"/><circle cx="1030" cy="560" r="1.7" fill="#cbd5e1"/><circle cx="1030" cy="600" r="1.7" fill="#cbd5e1"/><circle cx="1030" cy="640" r="1.7" fill="#cbd5e1"/><circle cx="1030" cy="680" r="1.7" fill="#cbd5e1"/><circle cx="1030" cy="720" r="1.7" fill="#cbd5e1"/><circle cx="1030" cy="760" r="1.7" fill="#cbd5e1"/><circle cx="1030" cy="800" r="1.7" fill="#cbd5e1"/><circle cx="1030" cy="840" r="1.7" fill="#cbd5e1"/><circle cx="1070" cy="120" r="1.7" fill="#cbd5e1"/><circle cx="1070" cy="160" r="1.7" fill="#cbd5e1"/><circle cx="1070" cy="200" r="1.7" fill="#cbd5e1"/><circle cx="1070" cy="240" r="1.7" fill="#cbd5e1"/><circle cx="1070" cy="280" r="1.7" fill="#cbd5e1"/><circle cx="1070" cy="320" r="1.7" fill="#cbd5e1"/><circle cx="1070" cy="360" r="1.7" fill="#cbd5e1"/><circle cx="1070" cy="400" r="1.7" fill="#cbd5e1"/><circle cx="1070" cy="440" r="1.7" fill="#cbd5e1"/><circle cx="1070" cy="480" r="1.7" fill="#cbd5e1"/><circle cx="1070" cy="520" r="1.7" fill="#cbd5e1"/><circle cx="1070" cy="560" r="1.7" fill="#cbd5e1"/><circle cx="1070" cy="600" r="1.7" fill="#cbd5e1"/><circle cx="1070" cy="640" r="1.7" fill="#cbd5e1"/><circle cx="1070" cy="680" r="1.7" fill="#cbd5e1"/><circle cx="1070" cy="720" r="1.7" fill="#cbd5e1"/><circle cx="1070" cy="760" r="1.7" fill="#cbd5e1"/><circle cx="1070" cy="800" r="1.7" fill="#cbd5e1"/><circle cx="1070" cy="840" r="1.7" fill="#cbd5e1"/><circle cx="1110" cy="120" r="1.7" fill="#cbd5e1"/><circle cx="1110" cy="160" r="1.7" fill="#cbd5e1"/><circle cx="1110" cy="200" r="1.7" fill="#cbd5e1"/><circle cx="1110" cy="240" r="1.7" fill="#cbd5e1"/><circle cx="1110" cy="280" r="1.7" fill="#cbd5e1"/><circle cx="1110" cy="320" r="1.7" fill="#cbd5e1"/><circle cx="1110" cy="360" r="1.7" fill="#cbd5e1"/><circle cx="1110" cy="400" r="1.7" fill="#cbd5e1"/><circle cx="1110" cy="440" r="1.7" fill="#cbd5e1"/><circle cx="1110" cy="480" r="1.7" fill="#cbd5e1"/><circle cx="1110" cy="520" r="1.7" fill="#cbd5e1"/><circle cx="1110" cy="560" r="1.7" fill="#cbd5e1"/><circle cx="1110" cy="600" r="1.7" fill="#cbd5e1"/><circle cx="1110" cy="640" r="1.7" fill="#cbd5e1"/><circle cx="1110" cy="680" r="1.7" fill="#cbd5e1"/><circle cx="1110" cy="720" r="1.7" fill="#cbd5e1"/><circle cx="1110" cy="760" r="1.7" fill="#cbd5e1"/><circle cx="1110" cy="800" r="1.7" fill="#cbd5e1"/><circle cx="1110" cy="840" r="1.7" fill="#cbd5e1"/><circle cx="1150" cy="120" r="1.7" fill="#cbd5e1"/><circle cx="1150" cy="160" r="1.7" fill="#cbd5e1"/><circle cx="1150" cy="200" r="1.7" fill="#cbd5e1"/><circle cx="1150" cy="240" r="1.7" fill="#cbd5e1"/><circle cx="1150" cy="280" r="1.7" fill="#cbd5e1"/><circle cx="1150" cy="320" r="1.7" fill="#cbd5e1"/><circle cx="1150" cy="360" r="1.7" fill="#cbd5e1"/><circle cx="1150" cy="400" r="1.7" fill="#cbd5e1"/><circle cx="1150" cy="440" r="1.7" fill="#cbd5e1"/><circle cx="1150" cy="480" r="1.7" fill="#cbd5e1"/><circle cx="1150" cy="520" r="1.7" fill="#cbd5e1"/><circle cx="1150" cy="560" r="1.7" fill="#cbd5e1"/><circle cx="1150" cy="600" r="1.7" fill="#cbd5e1"/><circle cx="1150" cy="640" r="1.7" fill="#cbd5e1"/><circle cx="1150" cy="680" r="1.7" fill="#cbd5e1"/><circle cx="1150" cy="720" r="1.7" fill="#cbd5e1"/><circle cx="1150" cy="760" r="1.7" fill="#cbd5e1"/><circle cx="1150" cy="800" r="1.7" fill="#cbd5e1"/><circle cx="1150" cy="840" r="1.7" fill="#cbd5e1"/><circle cx="1190" cy="120" r="1.7" fill="#cbd5e1"/><circle cx="1190" cy="160" r="1.7" fill="#cbd5e1"/><circle cx="1190" cy="200" r="1.7" fill="#cbd5e1"/><circle cx="1190" cy="240" r="1.7" fill="#cbd5e1"/><circle cx="1190" cy="280" r="1.7" fill="#cbd5e1"/><circle cx="1190" cy="320" r="1.7" fill="#cbd5e1"/><circle cx="1190" cy="360" r="1.7" fill="#cbd5e1"/><circle cx="1190" cy="400" r="1.7" fill="#cbd5e1"/><circle cx="1190" cy="440" r="1.7" fill="#cbd5e1"/><circle cx="1190" cy="480" r="1.7" fill="#cbd5e1"/><circle cx="1190" cy="520" r="1.7" fill="#cbd5e1"/><circle cx="1190" cy="560" r="1.7" fill="#cbd5e1"/><circle cx="1190" cy="600" r="1.7" fill="#cbd5e1"/><circle cx="1190" cy="640" r="1.7" fill="#cbd5e1"/><circle cx="1190" cy="680" r="1.7" fill="#cbd5e1"/><circle cx="1190" cy="720" r="1.7" fill="#cbd5e1"/><circle cx="1190" cy="760" r="1.7" fill="#cbd5e1"/><circle cx="1190" cy="800" r="1.7" fill="#cbd5e1"/><circle cx="1190" cy="840" r="1.7" fill="#cbd5e1"/><circle cx="1230" cy="120" r="1.7" fill="#cbd5e1"/><circle cx="1230" cy="160" r="1.7" fill="#cbd5e1"/><circle cx="1230" cy="200" r="1.7" fill="#cbd5e1"/><circle cx="1230" cy="240" r="1.7" fill="#cbd5e1"/><circle cx="1230" cy="280" r="1.7" fill="#cbd5e1"/><circle cx="1230" cy="320" r="1.7" fill="#cbd5e1"/><circle cx="1230" cy="360" r="1.7" fill="#cbd5e1"/><circle cx="1230" cy="400" r="1.7" fill="#cbd5e1"/><circle cx="1230" cy="440" r="1.7" fill="#cbd5e1"/><circle cx="1230" cy="480" r="1.7" fill="#cbd5e1"/><circle cx="1230" cy="520" r="1.7" fill="#cbd5e1"/><circle cx="1230" cy="560" r="1.7" fill="#cbd5e1"/><circle cx="1230" cy="600" r="1.7" fill="#cbd5e1"/><circle cx="1230" cy="640" r="1.7" fill="#cbd5e1"/><circle cx="1230" cy="680" r="1.7" fill="#cbd5e1"/><circle cx="1230" cy="720" r="1.7" fill="#cbd5e1"/><circle cx="1230" cy="760" r="1.7" fill="#cbd5e1"/><circle cx="1230" cy="800" r="1.7" fill="#cbd5e1"/><circle cx="1230" cy="840" r="1.7" fill="#cbd5e1"/><circle cx="1270" cy="120" r="1.7" fill="#cbd5e1"/><circle cx="1270" cy="160" r="1.7" fill="#cbd5e1"/><circle cx="1270" cy="200" r="1.7" fill="#cbd5e1"/><circle cx="1270" cy="240" r="1.7" fill="#cbd5e1"/><circle cx="1270" cy="280" r="1.7" fill="#cbd5e1"/><circle cx="1270" cy="320" r="1.7" fill="#cbd5e1"/><circle cx="1270" cy="360" r="1.7" fill="#cbd5e1"/><circle cx="1270" cy="400" r="1.7" fill="#cbd5e1"/><circle cx="1270" cy="440" r="1.7" fill="#cbd5e1"/><circle cx="1270" cy="480" r="1.7" fill="#cbd5e1"/><circle cx="1270" cy="520" r="1.7" fill="#cbd5e1"/><circle cx="1270" cy="560" r="1.7" fill="#cbd5e1"/><circle cx="1270" cy="600" r="1.7" fill="#cbd5e1"/><circle cx="1270" cy="640" r="1.7" fill="#cbd5e1"/><circle cx="1270" cy="680" r="1.7" fill="#cbd5e1"/><circle cx="1270" cy="720" r="1.7" fill="#cbd5e1"/><circle cx="1270" cy="760" r="1.7" fill="#cbd5e1"/><circle cx="1270" cy="800" r="1.7" fill="#cbd5e1"/><circle cx="1270" cy="840" r="1.7" fill="#cbd5e1"/><circle cx="1310" cy="120" r="1.7" fill="#cbd5e1"/><circle cx="1310" cy="160" r="1.7" fill="#cbd5e1"/><circle cx="1310" cy="200" r="1.7" fill="#cbd5e1"/><circle cx="1310" cy="240" r="1.7" fill="#cbd5e1"/><circle cx="1310" cy="280" r="1.7" fill="#cbd5e1"/><circle cx="1310" cy="320" r="1.7" fill="#cbd5e1"/><circle cx="1310" cy="360" r="1.7" fill="#cbd5e1"/><circle cx="1310" cy="400" r="1.7" fill="#cbd5e1"/><circle cx="1310" cy="440" r="1.7" fill="#cbd5e1"/><circle cx="1310" cy="480" r="1.7" fill="#cbd5e1"/><circle cx="1310" cy="520" r="1.7" fill="#cbd5e1"/><circle cx="1310" cy="560" r="1.7" fill="#cbd5e1"/><circle cx="1310" cy="600" r="1.7" fill="#cbd5e1"/><circle cx="1310" cy="640" r="1.7" fill="#cbd5e1"/><circle cx="1310" cy="680" r="1.7" fill="#cbd5e1"/><circle cx="1310" cy="720" r="1.7" fill="#cbd5e1"/><circle cx="1310" cy="760" r="1.7" fill="#cbd5e1"/><circle cx="1310" cy="800" r="1.7" fill="#cbd5e1"/><circle cx="1310" cy="840" r="1.7" fill="#cbd5e1"/><circle cx="1350" cy="120" r="1.7" fill="#cbd5e1"/><circle cx="1350" cy="160" r="1.7" fill="#cbd5e1"/><circle cx="1350" cy="200" r="1.7" fill="#cbd5e1"/><circle cx="1350" cy="240" r="1.7" fill="#cbd5e1"/><circle cx="1350" cy="280" r="1.7" fill="#cbd5e1"/><circle cx="1350" cy="320" r="1.7" fill="#cbd5e1"/><circle cx="1350" cy="360" r="1.7" fill="#cbd5e1"/><circle cx="1350" cy="400" r="1.7" fill="#cbd5e1"/><circle cx="1350" cy="440" r="1.7" fill="#cbd5e1"/><circle cx="1350" cy="480" r="1.7" fill="#cbd5e1"/><circle cx="1350" cy="520" r="1.7" fill="#cbd5e1"/><circle cx="1350" cy="560" r="1.7" fill="#cbd5e1"/><circle cx="1350" cy="600" r="1.7" fill="#cbd5e1"/><circle cx="1350" cy="640" r="1.7" fill="#cbd5e1"/><circle cx="1350" cy="680" r="1.7" fill="#cbd5e1"/><circle cx="1350" cy="720" r="1.7" fill="#cbd5e1"/><circle cx="1350" cy="760" r="1.7" fill="#cbd5e1"/><circle cx="1350" cy="800" r="1.7" fill="#cbd5e1"/><circle cx="1350" cy="840" r="1.7" fill="#cbd5e1"/><circle cx="1390" cy="120" r="1.7" fill="#cbd5e1"/><circle cx="1390" cy="160" r="1.7" fill="#cbd5e1"/><circle cx="1390" cy="200" r="1.7" fill="#cbd5e1"/><circle cx="1390" cy="240" r="1.7" fill="#cbd5e1"/><circle cx="1390" cy="280" r="1.7" fill="#cbd5e1"/><circle cx="1390" cy="320" r="1.7" fill="#cbd5e1"/><circle cx="1390" cy="360" r="1.7" fill="#cbd5e1"/><circle cx="1390" cy="400" r="1.7" fill="#cbd5e1"/><circle cx="1390" cy="440" r="1.7" fill="#cbd5e1"/><circle cx="1390" cy="480" r="1.7" fill="#cbd5e1"/><circle cx="1390" cy="520" r="1.7" fill="#cbd5e1"/><circle cx="1390" cy="560" r="1.7" fill="#cbd5e1"/><circle cx="1390" cy="600" r="1.7" fill="#cbd5e1"/><circle cx="1390" cy="640" r="1.7" fill="#cbd5e1"/><circle cx="1390" cy="680" r="1.7" fill="#cbd5e1"/><circle cx="1390" cy="720" r="1.7" fill="#cbd5e1"/><circle cx="1390" cy="760" r="1.7" fill="#cbd5e1"/><circle cx="1390" cy="800" r="1.7" fill="#cbd5e1"/><circle cx="1390" cy="840" r="1.7" fill="#cbd5e1"/><circle cx="1430" cy="120" r="1.7" fill="#cbd5e1"/><circle cx="1430" cy="160" r="1.7" fill="#cbd5e1"/><circle cx="1430" cy="200" r="1.7" fill="#cbd5e1"/><circle cx="1430" cy="240" r="1.7" fill="#cbd5e1"/><circle cx="1430" cy="280" r="1.7" fill="#cbd5e1"/><circle cx="1430" cy="320" r="1.7" fill="#cbd5e1"/><circle cx="1430" cy="360" r="1.7" fill="#cbd5e1"/><circle cx="1430" cy="400" r="1.7" fill="#cbd5e1"/><circle cx="1430" cy="440" r="1.7" fill="#cbd5e1"/><circle cx="1430" cy="480" r="1.7" fill="#cbd5e1"/><circle cx="1430" cy="520" r="1.7" fill="#cbd5e1"/><circle cx="1430" cy="560" r="1.7" fill="#cbd5e1"/><circle cx="1430" cy="600" r="1.7" fill="#cbd5e1"/><circle cx="1430" cy="640" r="1.7" fill="#cbd5e1"/><circle cx="1430" cy="680" r="1.7" fill="#cbd5e1"/><circle cx="1430" cy="720" r="1.7" fill="#cbd5e1"/><circle cx="1430" cy="760" r="1.7" fill="#cbd5e1"/><circle cx="1430" cy="800" r="1.7" fill="#cbd5e1"/><circle cx="1430" cy="840" r="1.7" fill="#cbd5e1"/><circle cx="1470" cy="120" r="1.7" fill="#cbd5e1"/><circle cx="1470" cy="160" r="1.7" fill="#cbd5e1"/><circle cx="1470" cy="200" r="1.7" fill="#cbd5e1"/><circle cx="1470" cy="240" r="1.7" fill="#cbd5e1"/><circle cx="1470" cy="280" r="1.7" fill="#cbd5e1"/><circle cx="1470" cy="320" r="1.7" fill="#cbd5e1"/><circle cx="1470" cy="360" r="1.7" fill="#cbd5e1"/><circle cx="1470" cy="400" r="1.7" fill="#cbd5e1"/><circle cx="1470" cy="440" r="1.7" fill="#cbd5e1"/><circle cx="1470" cy="480" r="1.7" fill="#cbd5e1"/><circle cx="1470" cy="520" r="1.7" fill="#cbd5e1"/><circle cx="1470" cy="560" r="1.7" fill="#cbd5e1"/><circle cx="1470" cy="600" r="1.7" fill="#cbd5e1"/><circle cx="1470" cy="640" r="1.7" fill="#cbd5e1"/><circle cx="1470" cy="680" r="1.7" fill="#cbd5e1"/><circle cx="1470" cy="720" r="1.7" fill="#cbd5e1"/><circle cx="1470" cy="760" r="1.7" fill="#cbd5e1"/><circle cx="1470" cy="800" r="1.7" fill="#cbd5e1"/><circle cx="1470" cy="840" r="1.7" fill="#cbd5e1"/><circle cx="1510" cy="120" r="1.7" fill="#cbd5e1"/><circle cx="1510" cy="160" r="1.7" fill="#cbd5e1"/><circle cx="1510" cy="200" r="1.7" fill="#cbd5e1"/><circle cx="1510" cy="240" r="1.7" fill="#cbd5e1"/><circle cx="1510" cy="280" r="1.7" fill="#cbd5e1"/><circle cx="1510" cy="320" r="1.7" fill="#cbd5e1"/><circle cx="1510" cy="360" r="1.7" fill="#cbd5e1"/><circle cx="1510" cy="400" r="1.7" fill="#cbd5e1"/><circle cx="1510" cy="440" r="1.7" fill="#cbd5e1"/><circle cx="1510" cy="480" r="1.7" fill="#cbd5e1"/><circle cx="1510" cy="520" r="1.7" fill="#cbd5e1"/><circle cx="1510" cy="560" r="1.7" fill="#cbd5e1"/><circle cx="1510" cy="600" r="1.7" fill="#cbd5e1"/><circle cx="1510" cy="640" r="1.7" fill="#cbd5e1"/><circle cx="1510" cy="680" r="1.7" fill="#cbd5e1"/><circle cx="1510" cy="720" r="1.7" fill="#cbd5e1"/><circle cx="1510" cy="760" r="1.7" fill="#cbd5e1"/><circle cx="1510" cy="800" r="1.7" fill="#cbd5e1"/><circle cx="1510" cy="840" r="1.7" fill="#cbd5e1"/></g>
  <text x="70" y="78" class="eyebrow">FINANCIAL RAG</text>
  <text x="70" y="126" class="title">금융 RAG 근거 설계</text>
  <text x="72" y="162" class="subtitle">리포트·뉴스·표·그래프는 시간성과 검증 방식이 다르므로 같은 chunk로 섞지 않는다.</text>
  <g filter="url(#soft)">
    <rect x="80" y="215" width="330" height="96" rx="24" fill="#ffffff" stroke="#d8e2ef" stroke-width="1.4"/>
    <rect x="80" y="215" width="330" height="8" rx="4" fill="#1d4ed8" opacity="0.9"/>
    <circle cx="114" cy="259" r="18" fill="#dbeafe"/>
    <text x="114" y="266" text-anchor="middle" class="label" style="fill:#1d4ed8">1</text>
    <text x="144" y="265" class="card-title">리포트 본문</text>
    <text x="108" y="303" class="card-sub">장기 관점 / 발행일</text>
  </g>
<path class="line" d="M410 263 C482.5 263, 482.5 398, 555 398"/>
  <g filter="url(#soft)">
    <rect x="80" y="343" width="330" height="96" rx="24" fill="#ffffff" stroke="#d8e2ef" stroke-width="1.4"/>
    <rect x="80" y="343" width="330" height="8" rx="4" fill="#b45309" opacity="0.9"/>
    <circle cx="114" cy="387" r="18" fill="#fef3c7"/>
    <text x="114" y="394" text-anchor="middle" class="label" style="fill:#b45309">2</text>
    <text x="144" y="393" class="card-title">뉴스</text>
    <text x="108" y="431" class="card-sub">최신 이벤트 / 감성</text>
  </g>
<path class="line" d="M410 391 C482.5 391, 482.5 398, 555 398"/>
  <g filter="url(#soft)">
    <rect x="80" y="471" width="330" height="96" rx="24" fill="#ffffff" stroke="#d8e2ef" stroke-width="1.4"/>
    <rect x="80" y="471" width="330" height="8" rx="4" fill="#0f766e" opacity="0.9"/>
    <circle cx="114" cy="515" r="18" fill="#ccfbf1"/>
    <text x="114" y="522" text-anchor="middle" class="label" style="fill:#0f766e">3</text>
    <text x="144" y="521" class="card-title">표 데이터</text>
    <text x="108" y="559" class="card-sub">수치 / 단위 / 기간</text>
  </g>
<path class="line" d="M410 519 C482.5 519, 482.5 398, 555 398"/>
  <g filter="url(#soft)">
    <rect x="80" y="599" width="330" height="96" rx="24" fill="#ffffff" stroke="#d8e2ef" stroke-width="1.4"/>
    <rect x="80" y="599" width="330" height="8" rx="4" fill="#6d28d9" opacity="0.9"/>
    <circle cx="114" cy="643" r="18" fill="#ede9fe"/>
    <text x="114" y="650" text-anchor="middle" class="label" style="fill:#6d28d9">4</text>
    <text x="144" y="649" class="card-title">그래프·차트</text>
    <text x="108" y="687" class="card-sub">추세 / 시각 맥락</text>
  </g>
<path class="line" d="M410 647 C482.5 647, 482.5 398, 555 398"/>
  <g filter="url(#shadow)">
    <rect x="540" y="235" width="520" height="360" rx="34" fill="#ffffff" stroke="#d7e3ef"/>
    <text x="590" y="298" class="card-title">Source-aware Evidence Store</text>
    <text x="590" y="334" class="card-sub">근거를 답변 전 단계에서 분리·추적한다.</text>
<g><rect x="590" y="374" width="190" height="34" rx="17" fill="#dbeafe" stroke="#1d4ed8" stroke-opacity="0.18"/><text x="685.0" y="397" text-anchor="middle" class="label" style="fill:#1d4ed8">source_type</text></g><g><rect x="815" y="374" width="190" height="34" rx="17" fill="#fef3c7" stroke="#b45309" stroke-opacity="0.18"/><text x="910.0" y="397" text-anchor="middle" class="label" style="fill:#b45309">published_at</text></g><g><rect x="590" y="436" width="190" height="34" rx="17" fill="#ccfbf1" stroke="#0f766e" stroke-opacity="0.18"/><text x="685.0" y="459" text-anchor="middle" class="label" style="fill:#0f766e">company / ticker</text></g><g><rect x="815" y="436" width="190" height="34" rx="17" fill="#ede9fe" stroke="#6d28d9" stroke-opacity="0.18"/><text x="910.0" y="459" text-anchor="middle" class="label" style="fill:#6d28d9">page / table_id</text></g><g><rect x="590" y="498" width="190" height="34" rx="17" fill="#dcfce7" stroke="#15803d" stroke-opacity="0.18"/><text x="685.0" y="521" text-anchor="middle" class="label" style="fill:#15803d">unit / period</text></g>  </g><path class="line" d="M1060 415 C1127.5 415, 1127.5 415, 1195 415"/>
  <g filter="url(#shadow)">
    <rect x="1190" y="248" width="330" height="335" rx="34" fill="#0f172a"/>
    <text x="1235" y="310" class="card-title" style="fill:#ffffff">Grounded Answer</text>
    <text x="1235" y="350" class="card-sub" style="fill:#cbd5e1">답변은 근거 밖으로 나가지 않는다.</text>
    <rect x="1235" y="390" width="232" height="44" rx="14" fill="#123a4a"/><text x="1258" y="419" class="label" style="fill:#99f6e4">리포트 기준</text>
    <rect x="1235" y="450" width="232" height="44" rx="14" fill="#3f2e11"/><text x="1258" y="479" class="label" style="fill:#fde68a">최근 뉴스 기준</text>
    <rect x="1235" y="510" width="232" height="44" rx="14" fill="#1e293b"/><text x="1258" y="539" class="label" style="fill:#cbd5e1">표/그래프 인용</text>
  </g>
  <g filter="url(#soft)">
    <rect x="220" y="735" width="1160" height="78" rx="24" fill="#ecfeff" stroke="#99f6e4"/>
    <text x="260" y="785" class="metric" style="fill:#0f766e">핵심 기준</text>
    <text x="390" y="785" class="card-sub">투자 조언처럼 단정하지 않고, 근거 종류·날짜·단위·원문 위치를 함께 남긴다.</text>
  </g></svg>
